%TF.GenerationSoftware,KiCad,Pcbnew,7.0.10*%
%TF.CreationDate,2024-03-12T15:31:41+01:00*%
%TF.ProjectId,owlThief,6f776c54-6869-4656-962e-6b696361645f,rev?*%
%TF.SameCoordinates,Original*%
%TF.FileFunction,Soldermask,Top*%
%TF.FilePolarity,Negative*%
%FSLAX46Y46*%
G04 Gerber Fmt 4.6, Leading zero omitted, Abs format (unit mm)*
G04 Created by KiCad (PCBNEW 7.0.10) date 2024-03-12 15:31:41*
%MOMM*%
%LPD*%
G01*
G04 APERTURE LIST*
%ADD10C,0.010000*%
G04 APERTURE END LIST*
%TO.C,Ref\u002A\u002A*%
D10*
X200050127Y-99593084D02*
X200358743Y-99714512D01*
X200641053Y-99908539D01*
X200761655Y-100025128D01*
X200914922Y-100203347D01*
X201027690Y-100373121D01*
X201108396Y-100555529D01*
X201165479Y-100771649D01*
X201207374Y-101042559D01*
X201222276Y-101175872D01*
X201296374Y-101550431D01*
X201436130Y-101871750D01*
X201642424Y-102141110D01*
X201916138Y-102359792D01*
X202109667Y-102465590D01*
X202429908Y-102572530D01*
X202761799Y-102602659D01*
X203091169Y-102559798D01*
X203403848Y-102447769D01*
X203685665Y-102270394D01*
X203922450Y-102031494D01*
X203972573Y-101963151D01*
X204092858Y-101761170D01*
X204177101Y-101548090D01*
X204233429Y-101298327D01*
X204265004Y-101042697D01*
X204336327Y-100663519D01*
X204473097Y-100328374D01*
X204670749Y-100043819D01*
X204924713Y-99816414D01*
X205230424Y-99652718D01*
X205233797Y-99651398D01*
X205500891Y-99578672D01*
X205792386Y-99551533D01*
X206078094Y-99570031D01*
X206327825Y-99634218D01*
X206364167Y-99649513D01*
X206654279Y-99803575D01*
X206878380Y-99978169D01*
X207035939Y-100160383D01*
X207167069Y-100368726D01*
X207259021Y-100584602D01*
X207320872Y-100834554D01*
X207357171Y-101099492D01*
X207431667Y-101496603D01*
X207567142Y-101835182D01*
X207763980Y-102115827D01*
X208022562Y-102339138D01*
X208222093Y-102452944D01*
X208552791Y-102567886D01*
X208889004Y-102604168D01*
X209219030Y-102566028D01*
X209531168Y-102457701D01*
X209813716Y-102283427D01*
X210054973Y-102047441D01*
X210243236Y-101753983D01*
X210262125Y-101714204D01*
X210339354Y-101483284D01*
X210394986Y-101177629D01*
X210407000Y-101074499D01*
X210458134Y-100741664D01*
X210540394Y-100470358D01*
X210662259Y-100240530D01*
X210832207Y-100032129D01*
X210859466Y-100004374D01*
X211140989Y-99778079D01*
X211453616Y-99625674D01*
X211786883Y-99550219D01*
X212130328Y-99554777D01*
X212291740Y-99585295D01*
X212642753Y-99711665D01*
X212940161Y-99901068D01*
X213178861Y-100147393D01*
X213353749Y-100444528D01*
X213459723Y-100786362D01*
X213488624Y-101018794D01*
X213480110Y-101508692D01*
X213401887Y-102021455D01*
X213258933Y-102540069D01*
X213056227Y-103047521D01*
X212798745Y-103526799D01*
X212717753Y-103653269D01*
X212345485Y-104138787D01*
X211918809Y-104563638D01*
X211444953Y-104925204D01*
X210931143Y-105220863D01*
X210384608Y-105447998D01*
X209812575Y-105603988D01*
X209222271Y-105686215D01*
X208620925Y-105692058D01*
X208015764Y-105618899D01*
X207579946Y-105515317D01*
X207324899Y-105428905D01*
X207046895Y-105313084D01*
X206762637Y-105176940D01*
X206488828Y-105029559D01*
X206242170Y-104880024D01*
X206039366Y-104737422D01*
X205897118Y-104610838D01*
X205878914Y-104590071D01*
X205844899Y-104567579D01*
X205793299Y-104576807D01*
X205709939Y-104624560D01*
X205580644Y-104717642D01*
X205524515Y-104760203D01*
X205043151Y-105078303D01*
X204515763Y-105337185D01*
X203958429Y-105531466D01*
X203387228Y-105655764D01*
X202818240Y-105704697D01*
X202702333Y-105704919D01*
X202529586Y-105701333D01*
X202385155Y-105695944D01*
X202293324Y-105689737D01*
X202279000Y-105687737D01*
X202208079Y-105675195D01*
X202079646Y-105653603D01*
X201919786Y-105627338D01*
X201898000Y-105623799D01*
X201384954Y-105501926D01*
X200870450Y-105306910D01*
X200371765Y-105048177D01*
X199906175Y-104735153D01*
X199490958Y-104377262D01*
X199354079Y-104235931D01*
X198964786Y-103753478D01*
X198646054Y-103232683D01*
X198400958Y-102681227D01*
X198232570Y-102106791D01*
X198143963Y-101517055D01*
X198130333Y-101177244D01*
X198145820Y-100854978D01*
X198197167Y-100591024D01*
X198291708Y-100363978D01*
X198436776Y-100152438D01*
X198510539Y-100067428D01*
X198780077Y-99829073D01*
X199080179Y-99662248D01*
X199399470Y-99567165D01*
X199726578Y-99544039D01*
X200050127Y-99593084D01*
G36*
X200050127Y-99593084D02*
G01*
X200358743Y-99714512D01*
X200641053Y-99908539D01*
X200761655Y-100025128D01*
X200914922Y-100203347D01*
X201027690Y-100373121D01*
X201108396Y-100555529D01*
X201165479Y-100771649D01*
X201207374Y-101042559D01*
X201222276Y-101175872D01*
X201296374Y-101550431D01*
X201436130Y-101871750D01*
X201642424Y-102141110D01*
X201916138Y-102359792D01*
X202109667Y-102465590D01*
X202429908Y-102572530D01*
X202761799Y-102602659D01*
X203091169Y-102559798D01*
X203403848Y-102447769D01*
X203685665Y-102270394D01*
X203922450Y-102031494D01*
X203972573Y-101963151D01*
X204092858Y-101761170D01*
X204177101Y-101548090D01*
X204233429Y-101298327D01*
X204265004Y-101042697D01*
X204336327Y-100663519D01*
X204473097Y-100328374D01*
X204670749Y-100043819D01*
X204924713Y-99816414D01*
X205230424Y-99652718D01*
X205233797Y-99651398D01*
X205500891Y-99578672D01*
X205792386Y-99551533D01*
X206078094Y-99570031D01*
X206327825Y-99634218D01*
X206364167Y-99649513D01*
X206654279Y-99803575D01*
X206878380Y-99978169D01*
X207035939Y-100160383D01*
X207167069Y-100368726D01*
X207259021Y-100584602D01*
X207320872Y-100834554D01*
X207357171Y-101099492D01*
X207431667Y-101496603D01*
X207567142Y-101835182D01*
X207763980Y-102115827D01*
X208022562Y-102339138D01*
X208222093Y-102452944D01*
X208552791Y-102567886D01*
X208889004Y-102604168D01*
X209219030Y-102566028D01*
X209531168Y-102457701D01*
X209813716Y-102283427D01*
X210054973Y-102047441D01*
X210243236Y-101753983D01*
X210262125Y-101714204D01*
X210339354Y-101483284D01*
X210394986Y-101177629D01*
X210407000Y-101074499D01*
X210458134Y-100741664D01*
X210540394Y-100470358D01*
X210662259Y-100240530D01*
X210832207Y-100032129D01*
X210859466Y-100004374D01*
X211140989Y-99778079D01*
X211453616Y-99625674D01*
X211786883Y-99550219D01*
X212130328Y-99554777D01*
X212291740Y-99585295D01*
X212642753Y-99711665D01*
X212940161Y-99901068D01*
X213178861Y-100147393D01*
X213353749Y-100444528D01*
X213459723Y-100786362D01*
X213488624Y-101018794D01*
X213480110Y-101508692D01*
X213401887Y-102021455D01*
X213258933Y-102540069D01*
X213056227Y-103047521D01*
X212798745Y-103526799D01*
X212717753Y-103653269D01*
X212345485Y-104138787D01*
X211918809Y-104563638D01*
X211444953Y-104925204D01*
X210931143Y-105220863D01*
X210384608Y-105447998D01*
X209812575Y-105603988D01*
X209222271Y-105686215D01*
X208620925Y-105692058D01*
X208015764Y-105618899D01*
X207579946Y-105515317D01*
X207324899Y-105428905D01*
X207046895Y-105313084D01*
X206762637Y-105176940D01*
X206488828Y-105029559D01*
X206242170Y-104880024D01*
X206039366Y-104737422D01*
X205897118Y-104610838D01*
X205878914Y-104590071D01*
X205844899Y-104567579D01*
X205793299Y-104576807D01*
X205709939Y-104624560D01*
X205580644Y-104717642D01*
X205524515Y-104760203D01*
X205043151Y-105078303D01*
X204515763Y-105337185D01*
X203958429Y-105531466D01*
X203387228Y-105655764D01*
X202818240Y-105704697D01*
X202702333Y-105704919D01*
X202529586Y-105701333D01*
X202385155Y-105695944D01*
X202293324Y-105689737D01*
X202279000Y-105687737D01*
X202208079Y-105675195D01*
X202079646Y-105653603D01*
X201919786Y-105627338D01*
X201898000Y-105623799D01*
X201384954Y-105501926D01*
X200870450Y-105306910D01*
X200371765Y-105048177D01*
X199906175Y-104735153D01*
X199490958Y-104377262D01*
X199354079Y-104235931D01*
X198964786Y-103753478D01*
X198646054Y-103232683D01*
X198400958Y-102681227D01*
X198232570Y-102106791D01*
X198143963Y-101517055D01*
X198130333Y-101177244D01*
X198145820Y-100854978D01*
X198197167Y-100591024D01*
X198291708Y-100363978D01*
X198436776Y-100152438D01*
X198510539Y-100067428D01*
X198780077Y-99829073D01*
X199080179Y-99662248D01*
X199399470Y-99567165D01*
X199726578Y-99544039D01*
X200050127Y-99593084D01*
G37*
X206091873Y-74985227D02*
X206419384Y-75091590D01*
X206726450Y-75278085D01*
X206866942Y-75398136D01*
X207083660Y-75648172D01*
X207234987Y-75930305D01*
X207323069Y-76252257D01*
X207350048Y-76621748D01*
X207320206Y-77030270D01*
X207198010Y-77657960D01*
X206999845Y-78251183D01*
X206727970Y-78805807D01*
X206384647Y-79317703D01*
X205972135Y-79782738D01*
X205660020Y-80064510D01*
X205162709Y-80422123D01*
X204629412Y-80706456D01*
X204068155Y-80916555D01*
X203486965Y-81051469D01*
X202893867Y-81110246D01*
X202296886Y-81091933D01*
X201704049Y-80995579D01*
X201123381Y-80820230D01*
X200727766Y-80649641D01*
X200516703Y-80539457D01*
X200300473Y-80414766D01*
X200110857Y-80294396D01*
X200023460Y-80232367D01*
X199889396Y-80131694D01*
X199778212Y-80049661D01*
X199709730Y-80000853D01*
X199701800Y-79995672D01*
X199646895Y-80005557D01*
X199543884Y-80059997D01*
X199409860Y-80149532D01*
X199367944Y-80180475D01*
X199125591Y-80345581D01*
X198835300Y-80516130D01*
X198526416Y-80676733D01*
X198228281Y-80812000D01*
X198003333Y-80896178D01*
X197520748Y-81018032D01*
X196998660Y-81089482D01*
X196467051Y-81108503D01*
X195955902Y-81073071D01*
X195780833Y-81046268D01*
X195179740Y-80896535D01*
X194608036Y-80668801D01*
X194072327Y-80366608D01*
X193579216Y-79993499D01*
X193270405Y-79699838D01*
X192860936Y-79216499D01*
X192528667Y-78699158D01*
X192272540Y-78145571D01*
X192091498Y-77553489D01*
X191991793Y-76985099D01*
X191965304Y-76585648D01*
X191991089Y-76242648D01*
X192072336Y-75943564D01*
X192212233Y-75675862D01*
X192378525Y-75464847D01*
X192642593Y-75233295D01*
X192937544Y-75073319D01*
X193251817Y-74983482D01*
X193573847Y-74962347D01*
X193892072Y-75008477D01*
X194194929Y-75120434D01*
X194470855Y-75296781D01*
X194708286Y-75536081D01*
X194863735Y-75773736D01*
X194933953Y-75922271D01*
X194985914Y-76078724D01*
X195026826Y-76269493D01*
X195060371Y-76493969D01*
X195132050Y-76877525D01*
X195240255Y-77192273D01*
X195391483Y-77448568D01*
X195592229Y-77656762D01*
X195848990Y-77827211D01*
X195919755Y-77863694D01*
X196067143Y-77932163D01*
X196188496Y-77973666D01*
X196315429Y-77994815D01*
X196479557Y-78002219D01*
X196585167Y-78002833D01*
X196779664Y-77999813D01*
X196921197Y-77986346D01*
X197041381Y-77955822D01*
X197171832Y-77901629D01*
X197250578Y-77863694D01*
X197523184Y-77699577D01*
X197737767Y-77499505D01*
X197900749Y-77253280D01*
X198018551Y-76950705D01*
X198097593Y-76581581D01*
X198109167Y-76500000D01*
X198160707Y-76188333D01*
X198228817Y-75940311D01*
X198322364Y-75735260D01*
X198450218Y-75552510D01*
X198573199Y-75418405D01*
X198852680Y-75193615D01*
X199160589Y-75043116D01*
X199485475Y-74966669D01*
X199815887Y-74964034D01*
X200140376Y-75034971D01*
X200447491Y-75179241D01*
X200725782Y-75396603D01*
X200791808Y-75464847D01*
X200969769Y-75697439D01*
X201096060Y-75956392D01*
X201178108Y-76260550D01*
X201216233Y-76542009D01*
X201285893Y-76927342D01*
X201419346Y-77257488D01*
X201617776Y-77534258D01*
X201882366Y-77759462D01*
X202090806Y-77879253D01*
X202226843Y-77940901D01*
X202346200Y-77978019D01*
X202479541Y-77996588D01*
X202657529Y-78002589D01*
X202724390Y-78002833D01*
X202918788Y-77999784D01*
X203060307Y-77986217D01*
X203180644Y-77955503D01*
X203311495Y-77901012D01*
X203388381Y-77863955D01*
X203680039Y-77684270D01*
X203909580Y-77459872D01*
X204081161Y-77184085D01*
X204198937Y-76850235D01*
X204266957Y-76452690D01*
X204339271Y-76063224D01*
X204470366Y-75733533D01*
X204661907Y-75460891D01*
X204915562Y-75242571D01*
X205059199Y-75156627D01*
X205404527Y-75016776D01*
X205751169Y-74959966D01*
X206091873Y-74985227D01*
G36*
X206091873Y-74985227D02*
G01*
X206419384Y-75091590D01*
X206726450Y-75278085D01*
X206866942Y-75398136D01*
X207083660Y-75648172D01*
X207234987Y-75930305D01*
X207323069Y-76252257D01*
X207350048Y-76621748D01*
X207320206Y-77030270D01*
X207198010Y-77657960D01*
X206999845Y-78251183D01*
X206727970Y-78805807D01*
X206384647Y-79317703D01*
X205972135Y-79782738D01*
X205660020Y-80064510D01*
X205162709Y-80422123D01*
X204629412Y-80706456D01*
X204068155Y-80916555D01*
X203486965Y-81051469D01*
X202893867Y-81110246D01*
X202296886Y-81091933D01*
X201704049Y-80995579D01*
X201123381Y-80820230D01*
X200727766Y-80649641D01*
X200516703Y-80539457D01*
X200300473Y-80414766D01*
X200110857Y-80294396D01*
X200023460Y-80232367D01*
X199889396Y-80131694D01*
X199778212Y-80049661D01*
X199709730Y-80000853D01*
X199701800Y-79995672D01*
X199646895Y-80005557D01*
X199543884Y-80059997D01*
X199409860Y-80149532D01*
X199367944Y-80180475D01*
X199125591Y-80345581D01*
X198835300Y-80516130D01*
X198526416Y-80676733D01*
X198228281Y-80812000D01*
X198003333Y-80896178D01*
X197520748Y-81018032D01*
X196998660Y-81089482D01*
X196467051Y-81108503D01*
X195955902Y-81073071D01*
X195780833Y-81046268D01*
X195179740Y-80896535D01*
X194608036Y-80668801D01*
X194072327Y-80366608D01*
X193579216Y-79993499D01*
X193270405Y-79699838D01*
X192860936Y-79216499D01*
X192528667Y-78699158D01*
X192272540Y-78145571D01*
X192091498Y-77553489D01*
X191991793Y-76985099D01*
X191965304Y-76585648D01*
X191991089Y-76242648D01*
X192072336Y-75943564D01*
X192212233Y-75675862D01*
X192378525Y-75464847D01*
X192642593Y-75233295D01*
X192937544Y-75073319D01*
X193251817Y-74983482D01*
X193573847Y-74962347D01*
X193892072Y-75008477D01*
X194194929Y-75120434D01*
X194470855Y-75296781D01*
X194708286Y-75536081D01*
X194863735Y-75773736D01*
X194933953Y-75922271D01*
X194985914Y-76078724D01*
X195026826Y-76269493D01*
X195060371Y-76493969D01*
X195132050Y-76877525D01*
X195240255Y-77192273D01*
X195391483Y-77448568D01*
X195592229Y-77656762D01*
X195848990Y-77827211D01*
X195919755Y-77863694D01*
X196067143Y-77932163D01*
X196188496Y-77973666D01*
X196315429Y-77994815D01*
X196479557Y-78002219D01*
X196585167Y-78002833D01*
X196779664Y-77999813D01*
X196921197Y-77986346D01*
X197041381Y-77955822D01*
X197171832Y-77901629D01*
X197250578Y-77863694D01*
X197523184Y-77699577D01*
X197737767Y-77499505D01*
X197900749Y-77253280D01*
X198018551Y-76950705D01*
X198097593Y-76581581D01*
X198109167Y-76500000D01*
X198160707Y-76188333D01*
X198228817Y-75940311D01*
X198322364Y-75735260D01*
X198450218Y-75552510D01*
X198573199Y-75418405D01*
X198852680Y-75193615D01*
X199160589Y-75043116D01*
X199485475Y-74966669D01*
X199815887Y-74964034D01*
X200140376Y-75034971D01*
X200447491Y-75179241D01*
X200725782Y-75396603D01*
X200791808Y-75464847D01*
X200969769Y-75697439D01*
X201096060Y-75956392D01*
X201178108Y-76260550D01*
X201216233Y-76542009D01*
X201285893Y-76927342D01*
X201419346Y-77257488D01*
X201617776Y-77534258D01*
X201882366Y-77759462D01*
X202090806Y-77879253D01*
X202226843Y-77940901D01*
X202346200Y-77978019D01*
X202479541Y-77996588D01*
X202657529Y-78002589D01*
X202724390Y-78002833D01*
X202918788Y-77999784D01*
X203060307Y-77986217D01*
X203180644Y-77955503D01*
X203311495Y-77901012D01*
X203388381Y-77863955D01*
X203680039Y-77684270D01*
X203909580Y-77459872D01*
X204081161Y-77184085D01*
X204198937Y-76850235D01*
X204266957Y-76452690D01*
X204339271Y-76063224D01*
X204470366Y-75733533D01*
X204661907Y-75460891D01*
X204915562Y-75242571D01*
X205059199Y-75156627D01*
X205404527Y-75016776D01*
X205751169Y-74959966D01*
X206091873Y-74985227D01*
G37*
X209104173Y-87275210D02*
X209413391Y-87353028D01*
X209702133Y-87492889D01*
X209958914Y-87693559D01*
X210172247Y-87953806D01*
X210276271Y-88141567D01*
X210359705Y-88398081D01*
X210402627Y-88713384D01*
X210405645Y-89072255D01*
X210369372Y-89459471D01*
X210294416Y-89859813D01*
X210192805Y-90223613D01*
X209964597Y-90790988D01*
X209668432Y-91314462D01*
X209310850Y-91789733D01*
X208898392Y-92212495D01*
X208437600Y-92578446D01*
X207935014Y-92883281D01*
X207397175Y-93122695D01*
X206830624Y-93292386D01*
X206241903Y-93388049D01*
X205637551Y-93405380D01*
X205383029Y-93388492D01*
X204831570Y-93298530D01*
X204277832Y-93137018D01*
X203743525Y-92912341D01*
X203250362Y-92632884D01*
X203033988Y-92481264D01*
X202727296Y-92250544D01*
X202598398Y-92354320D01*
X202106421Y-92702190D01*
X201577880Y-92986478D01*
X201027533Y-93200433D01*
X200470138Y-93337304D01*
X200437500Y-93342802D01*
X200205723Y-93373093D01*
X199941000Y-93395627D01*
X199675090Y-93408657D01*
X199439751Y-93410435D01*
X199315667Y-93404518D01*
X198803495Y-93331577D01*
X198290906Y-93202431D01*
X197805964Y-93025368D01*
X197460051Y-92856605D01*
X196929835Y-92514891D01*
X196454906Y-92111562D01*
X196039789Y-91652426D01*
X195689009Y-91143290D01*
X195407092Y-90589961D01*
X195198564Y-89998247D01*
X195180391Y-89931407D01*
X195128985Y-89717604D01*
X195095442Y-89521736D01*
X195076098Y-89312894D01*
X195067291Y-89060163D01*
X195066119Y-88967166D01*
X195065172Y-88737296D01*
X195069107Y-88571482D01*
X195080831Y-88449135D01*
X195103254Y-88349667D01*
X195139283Y-88252491D01*
X195179732Y-88162833D01*
X195370260Y-87853001D01*
X195626635Y-87593037D01*
X195907833Y-87408061D01*
X196036179Y-87344310D01*
X196144478Y-87304749D01*
X196260723Y-87283671D01*
X196412908Y-87275369D01*
X196564890Y-87274094D01*
X196762914Y-87276510D01*
X196905759Y-87288011D01*
X197022854Y-87314517D01*
X197143626Y-87361950D01*
X197247412Y-87411413D01*
X197551383Y-87600173D01*
X197789789Y-87836845D01*
X197965361Y-88125707D01*
X198080831Y-88471041D01*
X198132501Y-88798485D01*
X198199195Y-89188888D01*
X198321154Y-89517372D01*
X198501222Y-89788509D01*
X198742242Y-90006866D01*
X198967542Y-90140138D01*
X199105926Y-90205016D01*
X199219637Y-90245919D01*
X199336450Y-90268318D01*
X199484139Y-90277685D01*
X199674849Y-90279500D01*
X199873511Y-90277732D01*
X200013996Y-90268724D01*
X200122776Y-90246920D01*
X200226326Y-90206764D01*
X200351118Y-90142699D01*
X200366634Y-90134303D01*
X200646756Y-89947981D01*
X200863135Y-89723276D01*
X201021279Y-89451121D01*
X201126692Y-89122452D01*
X201178333Y-88797833D01*
X201247525Y-88404497D01*
X201369268Y-88074175D01*
X201547641Y-87800462D01*
X201786722Y-87576954D01*
X202061254Y-87411413D01*
X202202506Y-87345561D01*
X202319307Y-87304828D01*
X202441106Y-87283279D01*
X202597352Y-87274981D01*
X202743776Y-87273879D01*
X202943396Y-87276632D01*
X203086489Y-87288411D01*
X203201117Y-87314576D01*
X203315340Y-87360486D01*
X203390913Y-87397489D01*
X203613228Y-87540020D01*
X203828002Y-87730489D01*
X204011500Y-87944565D01*
X204139989Y-88157917D01*
X204146092Y-88171691D01*
X204194480Y-88321536D01*
X204237788Y-88524222D01*
X204269368Y-88747937D01*
X204271973Y-88773853D01*
X204344450Y-89174530D01*
X204479089Y-89519951D01*
X204674834Y-89808451D01*
X204930631Y-90038368D01*
X205157667Y-90169673D01*
X205280029Y-90222182D01*
X205393889Y-90254828D01*
X205525908Y-90272037D01*
X205702751Y-90278235D01*
X205813833Y-90278594D01*
X206094222Y-90266363D01*
X206318628Y-90224764D01*
X206513349Y-90144399D01*
X206704679Y-90015869D01*
X206820910Y-89918676D01*
X207044541Y-89668199D01*
X207202888Y-89366857D01*
X207297225Y-89011917D01*
X207317177Y-88855887D01*
X207363623Y-88522244D01*
X207438126Y-88249338D01*
X207547872Y-88015850D01*
X207652945Y-87859920D01*
X207892256Y-87609028D01*
X208168520Y-87426344D01*
X208470251Y-87310635D01*
X208785964Y-87260668D01*
X209104173Y-87275210D01*
G36*
X209104173Y-87275210D02*
G01*
X209413391Y-87353028D01*
X209702133Y-87492889D01*
X209958914Y-87693559D01*
X210172247Y-87953806D01*
X210276271Y-88141567D01*
X210359705Y-88398081D01*
X210402627Y-88713384D01*
X210405645Y-89072255D01*
X210369372Y-89459471D01*
X210294416Y-89859813D01*
X210192805Y-90223613D01*
X209964597Y-90790988D01*
X209668432Y-91314462D01*
X209310850Y-91789733D01*
X208898392Y-92212495D01*
X208437600Y-92578446D01*
X207935014Y-92883281D01*
X207397175Y-93122695D01*
X206830624Y-93292386D01*
X206241903Y-93388049D01*
X205637551Y-93405380D01*
X205383029Y-93388492D01*
X204831570Y-93298530D01*
X204277832Y-93137018D01*
X203743525Y-92912341D01*
X203250362Y-92632884D01*
X203033988Y-92481264D01*
X202727296Y-92250544D01*
X202598398Y-92354320D01*
X202106421Y-92702190D01*
X201577880Y-92986478D01*
X201027533Y-93200433D01*
X200470138Y-93337304D01*
X200437500Y-93342802D01*
X200205723Y-93373093D01*
X199941000Y-93395627D01*
X199675090Y-93408657D01*
X199439751Y-93410435D01*
X199315667Y-93404518D01*
X198803495Y-93331577D01*
X198290906Y-93202431D01*
X197805964Y-93025368D01*
X197460051Y-92856605D01*
X196929835Y-92514891D01*
X196454906Y-92111562D01*
X196039789Y-91652426D01*
X195689009Y-91143290D01*
X195407092Y-90589961D01*
X195198564Y-89998247D01*
X195180391Y-89931407D01*
X195128985Y-89717604D01*
X195095442Y-89521736D01*
X195076098Y-89312894D01*
X195067291Y-89060163D01*
X195066119Y-88967166D01*
X195065172Y-88737296D01*
X195069107Y-88571482D01*
X195080831Y-88449135D01*
X195103254Y-88349667D01*
X195139283Y-88252491D01*
X195179732Y-88162833D01*
X195370260Y-87853001D01*
X195626635Y-87593037D01*
X195907833Y-87408061D01*
X196036179Y-87344310D01*
X196144478Y-87304749D01*
X196260723Y-87283671D01*
X196412908Y-87275369D01*
X196564890Y-87274094D01*
X196762914Y-87276510D01*
X196905759Y-87288011D01*
X197022854Y-87314517D01*
X197143626Y-87361950D01*
X197247412Y-87411413D01*
X197551383Y-87600173D01*
X197789789Y-87836845D01*
X197965361Y-88125707D01*
X198080831Y-88471041D01*
X198132501Y-88798485D01*
X198199195Y-89188888D01*
X198321154Y-89517372D01*
X198501222Y-89788509D01*
X198742242Y-90006866D01*
X198967542Y-90140138D01*
X199105926Y-90205016D01*
X199219637Y-90245919D01*
X199336450Y-90268318D01*
X199484139Y-90277685D01*
X199674849Y-90279500D01*
X199873511Y-90277732D01*
X200013996Y-90268724D01*
X200122776Y-90246920D01*
X200226326Y-90206764D01*
X200351118Y-90142699D01*
X200366634Y-90134303D01*
X200646756Y-89947981D01*
X200863135Y-89723276D01*
X201021279Y-89451121D01*
X201126692Y-89122452D01*
X201178333Y-88797833D01*
X201247525Y-88404497D01*
X201369268Y-88074175D01*
X201547641Y-87800462D01*
X201786722Y-87576954D01*
X202061254Y-87411413D01*
X202202506Y-87345561D01*
X202319307Y-87304828D01*
X202441106Y-87283279D01*
X202597352Y-87274981D01*
X202743776Y-87273879D01*
X202943396Y-87276632D01*
X203086489Y-87288411D01*
X203201117Y-87314576D01*
X203315340Y-87360486D01*
X203390913Y-87397489D01*
X203613228Y-87540020D01*
X203828002Y-87730489D01*
X204011500Y-87944565D01*
X204139989Y-88157917D01*
X204146092Y-88171691D01*
X204194480Y-88321536D01*
X204237788Y-88524222D01*
X204269368Y-88747937D01*
X204271973Y-88773853D01*
X204344450Y-89174530D01*
X204479089Y-89519951D01*
X204674834Y-89808451D01*
X204930631Y-90038368D01*
X205157667Y-90169673D01*
X205280029Y-90222182D01*
X205393889Y-90254828D01*
X205525908Y-90272037D01*
X205702751Y-90278235D01*
X205813833Y-90278594D01*
X206094222Y-90266363D01*
X206318628Y-90224764D01*
X206513349Y-90144399D01*
X206704679Y-90015869D01*
X206820910Y-89918676D01*
X207044541Y-89668199D01*
X207202888Y-89366857D01*
X207297225Y-89011917D01*
X207317177Y-88855887D01*
X207363623Y-88522244D01*
X207438126Y-88249338D01*
X207547872Y-88015850D01*
X207652945Y-87859920D01*
X207892256Y-87609028D01*
X208168520Y-87426344D01*
X208470251Y-87310635D01*
X208785964Y-87260668D01*
X209104173Y-87275210D01*
G37*
X223891157Y-80132218D02*
X224200684Y-80208499D01*
X224490485Y-80346988D01*
X224749076Y-80546565D01*
X224964971Y-80806113D01*
X225063096Y-80977550D01*
X225129297Y-81119110D01*
X225170467Y-81235446D01*
X225192471Y-81355646D01*
X225201174Y-81508797D01*
X225202500Y-81668959D01*
X225201116Y-81856072D01*
X225192178Y-81991533D01*
X225168511Y-82103741D01*
X225122936Y-82221094D01*
X225048275Y-82371990D01*
X225002697Y-82459512D01*
X224853311Y-82776760D01*
X224732655Y-83106991D01*
X224638632Y-83461943D01*
X224569148Y-83853353D01*
X224522105Y-84292960D01*
X224495409Y-84792500D01*
X224486968Y-85347666D01*
X224508962Y-86222320D01*
X224578450Y-87061342D01*
X224698712Y-87883389D01*
X224873031Y-88707117D01*
X225104689Y-89551183D01*
X225366797Y-90348993D01*
X225978387Y-91987848D01*
X226636090Y-93557274D01*
X227339724Y-95057040D01*
X228089105Y-96486919D01*
X228884049Y-97846681D01*
X229724373Y-99136097D01*
X230609893Y-100354938D01*
X231540427Y-101502976D01*
X232515791Y-102579981D01*
X233535801Y-103585723D01*
X234600274Y-104519975D01*
X235709027Y-105382507D01*
X236861876Y-106173090D01*
X238058638Y-106891495D01*
X239021786Y-107401251D01*
X240213230Y-107957822D01*
X241435834Y-108451690D01*
X242704323Y-108888518D01*
X243532833Y-109136750D01*
X244082885Y-109287903D01*
X244614106Y-109423458D01*
X245140833Y-109546237D01*
X245677404Y-109659062D01*
X246238157Y-109764756D01*
X246837427Y-109866142D01*
X247489553Y-109966043D01*
X248208871Y-110067280D01*
X248369417Y-110088922D01*
X248462708Y-110097892D01*
X248506526Y-110095173D01*
X248507000Y-110094140D01*
X248493245Y-110052322D01*
X248454653Y-109942161D01*
X248395235Y-109774915D01*
X248318998Y-109561840D01*
X248229954Y-109314195D01*
X248172476Y-109154885D01*
X247397878Y-107058625D01*
X246612775Y-105028973D01*
X245817838Y-103067217D01*
X245013737Y-101174643D01*
X244201141Y-99352538D01*
X243380720Y-97602188D01*
X242553146Y-95924882D01*
X241719087Y-94321905D01*
X240879214Y-92794545D01*
X240034197Y-91344088D01*
X239184705Y-89971821D01*
X238331410Y-88679031D01*
X237474981Y-87467004D01*
X236616088Y-86337029D01*
X235755401Y-85290390D01*
X235731887Y-85263000D01*
X235522005Y-85004304D01*
X235370602Y-84779657D01*
X235269035Y-84571502D01*
X235208661Y-84362284D01*
X235181495Y-84145119D01*
X235196857Y-83776788D01*
X235289756Y-83437196D01*
X235457163Y-83133092D01*
X235696049Y-82871224D01*
X235785833Y-82798401D01*
X236055914Y-82631802D01*
X236343046Y-82533350D01*
X236669694Y-82495915D01*
X236741306Y-82495121D01*
X236934742Y-82502241D01*
X237086076Y-82528250D01*
X237237335Y-82582492D01*
X237333972Y-82626905D01*
X237482263Y-82701745D01*
X237604186Y-82775237D01*
X237716203Y-82861306D01*
X237834777Y-82973881D01*
X237976369Y-83126888D01*
X238123107Y-83294500D01*
X238956046Y-84297439D01*
X239791424Y-85382727D01*
X240627929Y-86548131D01*
X241464245Y-87791416D01*
X242299057Y-89110347D01*
X243131052Y-90502692D01*
X243958915Y-91966215D01*
X244781330Y-93498682D01*
X245596985Y-95097859D01*
X246404564Y-96761513D01*
X247202752Y-98487409D01*
X247641889Y-99472859D01*
X248158752Y-100666506D01*
X248679817Y-101905331D01*
X249199496Y-103174904D01*
X249712203Y-104460797D01*
X250212353Y-105748581D01*
X250694358Y-107023827D01*
X251152632Y-108272107D01*
X251581589Y-109478992D01*
X251975643Y-110630053D01*
X252062249Y-110889903D01*
X252144807Y-111141577D01*
X252203439Y-111330963D01*
X252241713Y-111475853D01*
X252263197Y-111594037D01*
X252271457Y-111703308D01*
X252270060Y-111821455D01*
X252265968Y-111905903D01*
X252213136Y-112256973D01*
X252092742Y-112561749D01*
X251900022Y-112830725D01*
X251800208Y-112931960D01*
X251574585Y-113111274D01*
X251329177Y-113239678D01*
X251050695Y-113320663D01*
X250725855Y-113357718D01*
X250341369Y-113354332D01*
X250221500Y-113346634D01*
X250102355Y-113337915D01*
X249920573Y-113324762D01*
X249697972Y-113308747D01*
X249456366Y-113291443D01*
X249374833Y-113285621D01*
X248136122Y-113171793D01*
X246869654Y-113006747D01*
X245600930Y-112794809D01*
X244355451Y-112540304D01*
X243158717Y-112247560D01*
X242995376Y-112203459D01*
X241491116Y-111751594D01*
X240037229Y-111231835D01*
X238633042Y-110643721D01*
X237277878Y-109986793D01*
X235971060Y-109260589D01*
X234711913Y-108464650D01*
X233499762Y-107598516D01*
X232333929Y-106661725D01*
X231213740Y-105653818D01*
X230138518Y-104574335D01*
X229107588Y-103422815D01*
X228120273Y-102198799D01*
X227925015Y-101941299D01*
X227100340Y-100786241D01*
X226303963Y-99558286D01*
X225540152Y-98265720D01*
X224813174Y-96916830D01*
X224127296Y-95519904D01*
X223486785Y-94083228D01*
X222895909Y-92615089D01*
X222366928Y-91147333D01*
X222109712Y-90319762D01*
X221889331Y-89465054D01*
X221706750Y-88593831D01*
X221562937Y-87716715D01*
X221458857Y-86844329D01*
X221395475Y-85987295D01*
X221373758Y-85156235D01*
X221394672Y-84361773D01*
X221459181Y-83614530D01*
X221568253Y-82925128D01*
X221603995Y-82756829D01*
X221709854Y-82353330D01*
X221844883Y-81944223D01*
X222000982Y-81548989D01*
X222170051Y-81187112D01*
X222343990Y-80878071D01*
X222449596Y-80723057D01*
X222685482Y-80471528D01*
X222959067Y-80287798D01*
X223258863Y-80170749D01*
X223573388Y-80119261D01*
X223891157Y-80132218D01*
G36*
X223891157Y-80132218D02*
G01*
X224200684Y-80208499D01*
X224490485Y-80346988D01*
X224749076Y-80546565D01*
X224964971Y-80806113D01*
X225063096Y-80977550D01*
X225129297Y-81119110D01*
X225170467Y-81235446D01*
X225192471Y-81355646D01*
X225201174Y-81508797D01*
X225202500Y-81668959D01*
X225201116Y-81856072D01*
X225192178Y-81991533D01*
X225168511Y-82103741D01*
X225122936Y-82221094D01*
X225048275Y-82371990D01*
X225002697Y-82459512D01*
X224853311Y-82776760D01*
X224732655Y-83106991D01*
X224638632Y-83461943D01*
X224569148Y-83853353D01*
X224522105Y-84292960D01*
X224495409Y-84792500D01*
X224486968Y-85347666D01*
X224508962Y-86222320D01*
X224578450Y-87061342D01*
X224698712Y-87883389D01*
X224873031Y-88707117D01*
X225104689Y-89551183D01*
X225366797Y-90348993D01*
X225978387Y-91987848D01*
X226636090Y-93557274D01*
X227339724Y-95057040D01*
X228089105Y-96486919D01*
X228884049Y-97846681D01*
X229724373Y-99136097D01*
X230609893Y-100354938D01*
X231540427Y-101502976D01*
X232515791Y-102579981D01*
X233535801Y-103585723D01*
X234600274Y-104519975D01*
X235709027Y-105382507D01*
X236861876Y-106173090D01*
X238058638Y-106891495D01*
X239021786Y-107401251D01*
X240213230Y-107957822D01*
X241435834Y-108451690D01*
X242704323Y-108888518D01*
X243532833Y-109136750D01*
X244082885Y-109287903D01*
X244614106Y-109423458D01*
X245140833Y-109546237D01*
X245677404Y-109659062D01*
X246238157Y-109764756D01*
X246837427Y-109866142D01*
X247489553Y-109966043D01*
X248208871Y-110067280D01*
X248369417Y-110088922D01*
X248462708Y-110097892D01*
X248506526Y-110095173D01*
X248507000Y-110094140D01*
X248493245Y-110052322D01*
X248454653Y-109942161D01*
X248395235Y-109774915D01*
X248318998Y-109561840D01*
X248229954Y-109314195D01*
X248172476Y-109154885D01*
X247397878Y-107058625D01*
X246612775Y-105028973D01*
X245817838Y-103067217D01*
X245013737Y-101174643D01*
X244201141Y-99352538D01*
X243380720Y-97602188D01*
X242553146Y-95924882D01*
X241719087Y-94321905D01*
X240879214Y-92794545D01*
X240034197Y-91344088D01*
X239184705Y-89971821D01*
X238331410Y-88679031D01*
X237474981Y-87467004D01*
X236616088Y-86337029D01*
X235755401Y-85290390D01*
X235731887Y-85263000D01*
X235522005Y-85004304D01*
X235370602Y-84779657D01*
X235269035Y-84571502D01*
X235208661Y-84362284D01*
X235181495Y-84145119D01*
X235196857Y-83776788D01*
X235289756Y-83437196D01*
X235457163Y-83133092D01*
X235696049Y-82871224D01*
X235785833Y-82798401D01*
X236055914Y-82631802D01*
X236343046Y-82533350D01*
X236669694Y-82495915D01*
X236741306Y-82495121D01*
X236934742Y-82502241D01*
X237086076Y-82528250D01*
X237237335Y-82582492D01*
X237333972Y-82626905D01*
X237482263Y-82701745D01*
X237604186Y-82775237D01*
X237716203Y-82861306D01*
X237834777Y-82973881D01*
X237976369Y-83126888D01*
X238123107Y-83294500D01*
X238956046Y-84297439D01*
X239791424Y-85382727D01*
X240627929Y-86548131D01*
X241464245Y-87791416D01*
X242299057Y-89110347D01*
X243131052Y-90502692D01*
X243958915Y-91966215D01*
X244781330Y-93498682D01*
X245596985Y-95097859D01*
X246404564Y-96761513D01*
X247202752Y-98487409D01*
X247641889Y-99472859D01*
X248158752Y-100666506D01*
X248679817Y-101905331D01*
X249199496Y-103174904D01*
X249712203Y-104460797D01*
X250212353Y-105748581D01*
X250694358Y-107023827D01*
X251152632Y-108272107D01*
X251581589Y-109478992D01*
X251975643Y-110630053D01*
X252062249Y-110889903D01*
X252144807Y-111141577D01*
X252203439Y-111330963D01*
X252241713Y-111475853D01*
X252263197Y-111594037D01*
X252271457Y-111703308D01*
X252270060Y-111821455D01*
X252265968Y-111905903D01*
X252213136Y-112256973D01*
X252092742Y-112561749D01*
X251900022Y-112830725D01*
X251800208Y-112931960D01*
X251574585Y-113111274D01*
X251329177Y-113239678D01*
X251050695Y-113320663D01*
X250725855Y-113357718D01*
X250341369Y-113354332D01*
X250221500Y-113346634D01*
X250102355Y-113337915D01*
X249920573Y-113324762D01*
X249697972Y-113308747D01*
X249456366Y-113291443D01*
X249374833Y-113285621D01*
X248136122Y-113171793D01*
X246869654Y-113006747D01*
X245600930Y-112794809D01*
X244355451Y-112540304D01*
X243158717Y-112247560D01*
X242995376Y-112203459D01*
X241491116Y-111751594D01*
X240037229Y-111231835D01*
X238633042Y-110643721D01*
X237277878Y-109986793D01*
X235971060Y-109260589D01*
X234711913Y-108464650D01*
X233499762Y-107598516D01*
X232333929Y-106661725D01*
X231213740Y-105653818D01*
X230138518Y-104574335D01*
X229107588Y-103422815D01*
X228120273Y-102198799D01*
X227925015Y-101941299D01*
X227100340Y-100786241D01*
X226303963Y-99558286D01*
X225540152Y-98265720D01*
X224813174Y-96916830D01*
X224127296Y-95519904D01*
X223486785Y-94083228D01*
X222895909Y-92615089D01*
X222366928Y-91147333D01*
X222109712Y-90319762D01*
X221889331Y-89465054D01*
X221706750Y-88593831D01*
X221562937Y-87716715D01*
X221458857Y-86844329D01*
X221395475Y-85987295D01*
X221373758Y-85156235D01*
X221394672Y-84361773D01*
X221459181Y-83614530D01*
X221568253Y-82925128D01*
X221603995Y-82756829D01*
X221709854Y-82353330D01*
X221844883Y-81944223D01*
X222000982Y-81548989D01*
X222170051Y-81187112D01*
X222343990Y-80878071D01*
X222449596Y-80723057D01*
X222685482Y-80471528D01*
X222959067Y-80287798D01*
X223258863Y-80170749D01*
X223573388Y-80119261D01*
X223891157Y-80132218D01*
G37*
X187441167Y-30407361D02*
X187644323Y-30420311D01*
X187793357Y-30443161D01*
X187918766Y-30482937D01*
X188051045Y-30546665D01*
X188055000Y-30548784D01*
X188103486Y-30580373D01*
X188173935Y-30635681D01*
X188269179Y-30717464D01*
X188392047Y-30828475D01*
X188545372Y-30971470D01*
X188731985Y-31149204D01*
X188954718Y-31364431D01*
X189216401Y-31619905D01*
X189519867Y-31918382D01*
X189867946Y-32262617D01*
X190263469Y-32655363D01*
X190709269Y-33099376D01*
X191208176Y-33597411D01*
X191763022Y-34152221D01*
X191914759Y-34304074D01*
X192376171Y-34765449D01*
X192821500Y-35209839D01*
X193247040Y-35633593D01*
X193649086Y-36033059D01*
X194023933Y-36404588D01*
X194367875Y-36744527D01*
X194677207Y-37049225D01*
X194948224Y-37315031D01*
X195177220Y-37538294D01*
X195360492Y-37715363D01*
X195494332Y-37842586D01*
X195575036Y-37916313D01*
X195598724Y-37934333D01*
X195662465Y-37919775D01*
X195782565Y-37880999D01*
X195936819Y-37825349D01*
X195993465Y-37803749D01*
X197003330Y-37437512D01*
X198085737Y-37090244D01*
X199230333Y-36763688D01*
X200426765Y-36459590D01*
X201664679Y-36179693D01*
X202933722Y-35925743D01*
X204223539Y-35699485D01*
X205523778Y-35502662D01*
X206824085Y-35337019D01*
X208114107Y-35204301D01*
X209383490Y-35106252D01*
X210621879Y-35044618D01*
X211818923Y-35021141D01*
X212481333Y-35025546D01*
X213913695Y-35073607D01*
X215373925Y-35168642D01*
X216850862Y-35308692D01*
X218333344Y-35491801D01*
X219810211Y-35716011D01*
X221270301Y-35979364D01*
X222702452Y-36279904D01*
X224095503Y-36615673D01*
X225438292Y-36984714D01*
X226719660Y-37385069D01*
X227518227Y-37662579D01*
X227755182Y-37747908D01*
X227964805Y-37822257D01*
X228134119Y-37881116D01*
X228250147Y-37919976D01*
X228299912Y-37934327D01*
X228300146Y-37934333D01*
X228333671Y-37905015D01*
X228423406Y-37819487D01*
X228565673Y-37681384D01*
X228756794Y-37494342D01*
X228993089Y-37261999D01*
X229270881Y-36987989D01*
X229586490Y-36675950D01*
X229936238Y-36329519D01*
X230316446Y-35952330D01*
X230723436Y-35548021D01*
X231153528Y-35120227D01*
X231603045Y-34672586D01*
X231974586Y-34302212D01*
X232543873Y-33734797D01*
X233056421Y-33224705D01*
X233515115Y-32769140D01*
X233922837Y-32365310D01*
X234282470Y-32010420D01*
X234596896Y-31701676D01*
X234868998Y-31436284D01*
X235101658Y-31211452D01*
X235297760Y-31024384D01*
X235460186Y-30872288D01*
X235591819Y-30752369D01*
X235695542Y-30661833D01*
X235774236Y-30597887D01*
X235830786Y-30557737D01*
X235849333Y-30546922D01*
X235983782Y-30482983D01*
X236111764Y-30443006D01*
X236263971Y-30420012D01*
X236463167Y-30407361D01*
X236795054Y-30416936D01*
X237084625Y-30480188D01*
X237340383Y-30602970D01*
X237570834Y-30791136D01*
X237784483Y-31050542D01*
X237989835Y-31387041D01*
X238048349Y-31498509D01*
X238430621Y-32332634D01*
X238739201Y-33187295D01*
X238973540Y-34056069D01*
X239133089Y-34932536D01*
X239217301Y-35810272D01*
X239225627Y-36682857D01*
X239157520Y-37543867D01*
X239012430Y-38386881D01*
X238789810Y-39205477D01*
X238723072Y-39402454D01*
X238438077Y-40099999D01*
X238077234Y-40797518D01*
X237648421Y-41482382D01*
X237159514Y-42141962D01*
X236643389Y-42737031D01*
X236288549Y-43115897D01*
X236629858Y-43524731D01*
X237269500Y-44355703D01*
X237835817Y-45227246D01*
X238327360Y-46135896D01*
X238742683Y-47078189D01*
X239080338Y-48050660D01*
X239338877Y-49049845D01*
X239516855Y-50072279D01*
X239573295Y-50570833D01*
X239578580Y-50671223D01*
X239583534Y-50855704D01*
X239588156Y-51123697D01*
X239592444Y-51474628D01*
X239596394Y-51907920D01*
X239600005Y-52422997D01*
X239603275Y-53019283D01*
X239606201Y-53696201D01*
X239608780Y-54453174D01*
X239611011Y-55289628D01*
X239612892Y-56204985D01*
X239614419Y-57198670D01*
X239615591Y-58270105D01*
X239616406Y-59418716D01*
X239616861Y-60643925D01*
X239616964Y-61603658D01*
X239617000Y-72170816D01*
X240077148Y-72512781D01*
X241132970Y-73341930D01*
X242182183Y-74254978D01*
X243224456Y-75251392D01*
X244259456Y-76330637D01*
X245286854Y-77492178D01*
X246306318Y-78735482D01*
X247317517Y-80060014D01*
X248320120Y-81465240D01*
X249313795Y-82950625D01*
X250298212Y-84515637D01*
X251273040Y-86159740D01*
X252237946Y-87882400D01*
X253192601Y-89683083D01*
X254136673Y-91561254D01*
X255069831Y-93516380D01*
X255991743Y-95547927D01*
X256902079Y-97655360D01*
X257800508Y-99838144D01*
X258686698Y-102095746D01*
X259116241Y-103228795D01*
X259546239Y-104392993D01*
X259980426Y-105601315D01*
X260415536Y-106843528D01*
X260848308Y-108109401D01*
X261275477Y-109388702D01*
X261693779Y-110671199D01*
X262099952Y-111946662D01*
X262490731Y-113204857D01*
X262862853Y-114435554D01*
X263213054Y-115628521D01*
X263538072Y-116773525D01*
X263834642Y-117860336D01*
X264066314Y-118747959D01*
X264147771Y-119098816D01*
X264194992Y-119388256D01*
X264207995Y-119632289D01*
X264186796Y-119846927D01*
X264131412Y-120048181D01*
X264067799Y-120199233D01*
X263937939Y-120425065D01*
X263770676Y-120627287D01*
X263559118Y-120809771D01*
X263296374Y-120976389D01*
X262975551Y-121131015D01*
X262589759Y-121277520D01*
X262132105Y-121419777D01*
X261681048Y-121540350D01*
X260962188Y-121711865D01*
X260230167Y-121866629D01*
X259474751Y-122006158D01*
X258685705Y-122131966D01*
X257852795Y-122245568D01*
X256965785Y-122348479D01*
X256014442Y-122442214D01*
X255026333Y-122525346D01*
X254754215Y-122541951D01*
X254409294Y-122555633D01*
X254003384Y-122566435D01*
X253548297Y-122574398D01*
X253055845Y-122579563D01*
X252537842Y-122581973D01*
X252006100Y-122581669D01*
X251472432Y-122578693D01*
X250948649Y-122573087D01*
X250446565Y-122564893D01*
X249977993Y-122554151D01*
X249554744Y-122540905D01*
X249188632Y-122525195D01*
X248891470Y-122507064D01*
X248845667Y-122503502D01*
X247276577Y-122355307D01*
X245773467Y-122169551D01*
X244325412Y-121944088D01*
X242921486Y-121676768D01*
X241550764Y-121365445D01*
X240202320Y-121007970D01*
X238865230Y-120602194D01*
X238405758Y-120450999D01*
X237554349Y-120165320D01*
X237137970Y-120561899D01*
X236584043Y-121033355D01*
X235968090Y-121454342D01*
X235299303Y-121820176D01*
X234586874Y-122126174D01*
X233839998Y-122367651D01*
X233370516Y-122481460D01*
X232907167Y-122579833D01*
X211507667Y-122588589D01*
X209900453Y-122589242D01*
X208375712Y-122589845D01*
X206931250Y-122590392D01*
X205564873Y-122590874D01*
X204274386Y-122591286D01*
X203057597Y-122591618D01*
X201912311Y-122591866D01*
X200836334Y-122592020D01*
X199827472Y-122592074D01*
X198883532Y-122592020D01*
X198002319Y-122591852D01*
X197181640Y-122591562D01*
X196419300Y-122591142D01*
X195713105Y-122590586D01*
X195060863Y-122589887D01*
X194460378Y-122589036D01*
X193909457Y-122588027D01*
X193405907Y-122586852D01*
X192947532Y-122585504D01*
X192532139Y-122583977D01*
X192157534Y-122582262D01*
X191821524Y-122580352D01*
X191521914Y-122578241D01*
X191256510Y-122575920D01*
X191023119Y-122573383D01*
X190819546Y-122570623D01*
X190643598Y-122567631D01*
X190493081Y-122564402D01*
X190365801Y-122560927D01*
X190259563Y-122557199D01*
X190172174Y-122553211D01*
X190101441Y-122548957D01*
X190045168Y-122544427D01*
X190001163Y-122539616D01*
X189967230Y-122534516D01*
X189941177Y-122529120D01*
X189920810Y-122523421D01*
X189903934Y-122517410D01*
X189903149Y-122517104D01*
X189607440Y-122360194D01*
X189345416Y-122141169D01*
X189132569Y-121876664D01*
X188984390Y-121583310D01*
X188957651Y-121501913D01*
X188928953Y-121381474D01*
X188911704Y-121246555D01*
X188904886Y-121078023D01*
X188907485Y-120856744D01*
X188913738Y-120675622D01*
X188986061Y-119902810D01*
X189065019Y-119510666D01*
X192250320Y-119510666D01*
X196731720Y-119510666D01*
X199944961Y-119510666D01*
X208880147Y-119510666D01*
X209743483Y-119510550D01*
X210584103Y-119510208D01*
X211398106Y-119509653D01*
X212181591Y-119508893D01*
X212930657Y-119507941D01*
X213641402Y-119506808D01*
X214309925Y-119505503D01*
X214932326Y-119504039D01*
X215504703Y-119502425D01*
X216023155Y-119500673D01*
X216483781Y-119498794D01*
X216882680Y-119496799D01*
X217215950Y-119494698D01*
X217479691Y-119492502D01*
X217670001Y-119490222D01*
X217782979Y-119487870D01*
X217815333Y-119485748D01*
X217798102Y-119439443D01*
X217751608Y-119334298D01*
X217683649Y-119187596D01*
X217627779Y-119070053D01*
X217325565Y-118535870D01*
X216958902Y-118053171D01*
X216533531Y-117626092D01*
X216055191Y-117258767D01*
X215529623Y-116955330D01*
X214962567Y-116719917D01*
X214359762Y-116556661D01*
X214068833Y-116506474D01*
X213978610Y-116499818D01*
X213806959Y-116493637D01*
X213557120Y-116487959D01*
X213232331Y-116482809D01*
X212835831Y-116478216D01*
X212370858Y-116474205D01*
X211840650Y-116470803D01*
X211248446Y-116468037D01*
X210597485Y-116465934D01*
X209891005Y-116464520D01*
X209132245Y-116463822D01*
X208883000Y-116463754D01*
X208102155Y-116463701D01*
X207401038Y-116463865D01*
X206774708Y-116464435D01*
X206218227Y-116465598D01*
X205726653Y-116467542D01*
X205295049Y-116470456D01*
X204918474Y-116474528D01*
X204591988Y-116479946D01*
X204310653Y-116486897D01*
X204069529Y-116495571D01*
X203863676Y-116506155D01*
X203688154Y-116518837D01*
X203538024Y-116533805D01*
X203408347Y-116551248D01*
X203294183Y-116571353D01*
X203190591Y-116594309D01*
X203092634Y-116620304D01*
X202995371Y-116649525D01*
X202893863Y-116682162D01*
X202860489Y-116693091D01*
X202289584Y-116923929D01*
X201756292Y-117227095D01*
X201267954Y-117596272D01*
X200831907Y-118025143D01*
X200455491Y-118507393D01*
X200152462Y-119023833D01*
X200077021Y-119179057D01*
X200014558Y-119315809D01*
X199977119Y-119407574D01*
X199974531Y-119415416D01*
X199944961Y-119510666D01*
X196731720Y-119510666D01*
X196757719Y-119394250D01*
X196947408Y-118709852D01*
X197206686Y-118028653D01*
X197524851Y-117375807D01*
X197837750Y-116855705D01*
X198084559Y-116483833D01*
X197229029Y-116471518D01*
X196940305Y-116469986D01*
X196654616Y-116473168D01*
X196392461Y-116480496D01*
X196174335Y-116491399D01*
X196022946Y-116505018D01*
X195405022Y-116626960D01*
X194820692Y-116824741D01*
X194274984Y-117094501D01*
X193772926Y-117432377D01*
X193319544Y-117834509D01*
X192919868Y-118297033D01*
X192578925Y-118816088D01*
X192316557Y-119351916D01*
X192250320Y-119510666D01*
X189065019Y-119510666D01*
X189137764Y-119149381D01*
X189364796Y-118420318D01*
X189663104Y-117720606D01*
X190028634Y-117055228D01*
X190457336Y-116429170D01*
X190945156Y-115847415D01*
X191488041Y-115314947D01*
X192081940Y-114836751D01*
X192722799Y-114417811D01*
X193406567Y-114063112D01*
X194129189Y-113777636D01*
X194647331Y-113623884D01*
X194947533Y-113554397D01*
X195277807Y-113491225D01*
X195613757Y-113438006D01*
X195930986Y-113398381D01*
X196205099Y-113375990D01*
X196333335Y-113372333D01*
X196460200Y-113369066D01*
X196543981Y-113360645D01*
X196564000Y-113352646D01*
X196540515Y-113313020D01*
X196476197Y-113218328D01*
X196380250Y-113081802D01*
X196261881Y-112916677D01*
X196232708Y-112876396D01*
X195359431Y-111612533D01*
X194516785Y-110270321D01*
X193705062Y-108850458D01*
X192924558Y-107353641D01*
X192175569Y-105780568D01*
X191458390Y-104131935D01*
X190773314Y-102408441D01*
X190120638Y-100610782D01*
X189500657Y-98739656D01*
X188913664Y-96795761D01*
X188359957Y-94779793D01*
X188034199Y-93496833D01*
X187531475Y-91349913D01*
X187062045Y-89127891D01*
X186626298Y-86833678D01*
X186224627Y-84470184D01*
X185857422Y-82040318D01*
X185525073Y-79546992D01*
X185227971Y-76993114D01*
X184966506Y-74381595D01*
X184741070Y-71715346D01*
X184552052Y-68997276D01*
X184414453Y-66530500D01*
X184383460Y-65893940D01*
X184356121Y-65308792D01*
X184332161Y-64764284D01*
X184311307Y-64249645D01*
X184293286Y-63754105D01*
X184277824Y-63266893D01*
X184264649Y-62777238D01*
X184253485Y-62274368D01*
X184244061Y-61747512D01*
X184236103Y-61185901D01*
X184232647Y-60875786D01*
X187335333Y-60875786D01*
X187335659Y-61205476D01*
X187337996Y-61432941D01*
X187344382Y-61735446D01*
X187354431Y-62103481D01*
X187367758Y-62527536D01*
X187383977Y-62998100D01*
X187402703Y-63505665D01*
X187423551Y-64040718D01*
X187446135Y-64593750D01*
X187470070Y-65155252D01*
X187494970Y-65715712D01*
X187520450Y-66265620D01*
X187546126Y-66795467D01*
X187571610Y-67295742D01*
X187596519Y-67756934D01*
X187612340Y-68033333D01*
X187787192Y-70692272D01*
X187995629Y-73292515D01*
X188237390Y-75832861D01*
X188512215Y-78312112D01*
X188819845Y-80729068D01*
X189160018Y-83082528D01*
X189532475Y-85371293D01*
X189936955Y-87594164D01*
X190373197Y-89749940D01*
X190840943Y-91837422D01*
X191339931Y-93855409D01*
X191869901Y-95802703D01*
X192430592Y-97678104D01*
X193021746Y-99480411D01*
X193643100Y-101208425D01*
X194294396Y-102860947D01*
X194975372Y-104436776D01*
X195685769Y-105934712D01*
X195946690Y-106450833D01*
X196509213Y-107505395D01*
X197096362Y-108530668D01*
X197702893Y-109518980D01*
X198323563Y-110462663D01*
X198953129Y-111354047D01*
X199586345Y-112185461D01*
X200217970Y-112949235D01*
X200842759Y-113637701D01*
X200903010Y-113700403D01*
X201199500Y-114007306D01*
X201581446Y-113861941D01*
X202011746Y-113714124D01*
X202488166Y-113582000D01*
X202980504Y-113470296D01*
X203037397Y-113459884D01*
X203105625Y-113450493D01*
X203189781Y-113442053D01*
X203294456Y-113434493D01*
X203424243Y-113427742D01*
X203583733Y-113421731D01*
X203777517Y-113416388D01*
X204010189Y-113411644D01*
X204286339Y-113407428D01*
X204610560Y-113403670D01*
X204987444Y-113400298D01*
X205421582Y-113397244D01*
X205917566Y-113394436D01*
X206479989Y-113391804D01*
X207113441Y-113389277D01*
X207822516Y-113386786D01*
X208586667Y-113384337D01*
X209524797Y-113381831D01*
X210379304Y-113380381D01*
X211150080Y-113379987D01*
X211837020Y-113380647D01*
X212440016Y-113382362D01*
X212958962Y-113385130D01*
X213393752Y-113388951D01*
X213744279Y-113393825D01*
X214010438Y-113399751D01*
X214192121Y-113406728D01*
X214271840Y-113412538D01*
X215079187Y-113540392D01*
X215855975Y-113747159D01*
X216601483Y-114032520D01*
X217314990Y-114396154D01*
X217995777Y-114837741D01*
X218641334Y-115355379D01*
X219163119Y-115871373D01*
X219638529Y-116452295D01*
X220062143Y-117088969D01*
X220428539Y-117772219D01*
X220732294Y-118492870D01*
X220967987Y-119241746D01*
X220991145Y-119331901D01*
X221036550Y-119512968D01*
X226844858Y-119500982D01*
X232653167Y-119488996D01*
X233068864Y-119374522D01*
X233295281Y-119303198D01*
X233554862Y-119207667D01*
X233806114Y-119103663D01*
X233915531Y-119053458D01*
X234346500Y-118846869D01*
X233570151Y-118456993D01*
X232011004Y-117627951D01*
X230504295Y-116733045D01*
X229049669Y-115771951D01*
X227646770Y-114744346D01*
X226295242Y-113649905D01*
X224994730Y-112488304D01*
X223744877Y-111259221D01*
X222545329Y-109962330D01*
X221395728Y-108597308D01*
X220295720Y-107163832D01*
X219244949Y-105661577D01*
X218846387Y-105053833D01*
X218001538Y-103683391D01*
X217185405Y-102242209D01*
X216403025Y-100740835D01*
X215659437Y-99189817D01*
X214959678Y-97599705D01*
X214308786Y-95981045D01*
X213711799Y-94344387D01*
X213660464Y-94195333D01*
X213278362Y-92986490D01*
X212950623Y-91752724D01*
X212678008Y-90502583D01*
X212461281Y-89244614D01*
X212301205Y-87987365D01*
X212198542Y-86739383D01*
X212154056Y-85509217D01*
X212154324Y-85486819D01*
X215250304Y-85486819D01*
X215300320Y-86713495D01*
X215419558Y-87974619D01*
X215608018Y-89267332D01*
X215743861Y-90004333D01*
X215874308Y-90633033D01*
X216008703Y-91214334D01*
X216153709Y-91772288D01*
X216315988Y-92330951D01*
X216502202Y-92914375D01*
X216719012Y-93546614D01*
X216746312Y-93623833D01*
X217436910Y-95465984D01*
X218179457Y-97243227D01*
X218973712Y-98955245D01*
X219819435Y-100601722D01*
X220716385Y-102182341D01*
X221664322Y-103696785D01*
X222663004Y-105144737D01*
X223712192Y-106525880D01*
X224811645Y-107839897D01*
X225961122Y-109086472D01*
X227160382Y-110265288D01*
X228409185Y-111376028D01*
X229707290Y-112418374D01*
X231054457Y-113392011D01*
X232441500Y-114291140D01*
X233429038Y-114869340D01*
X234479252Y-115433526D01*
X235570218Y-115973006D01*
X236680010Y-116477092D01*
X237786704Y-116935092D01*
X238156500Y-117077703D01*
X239679867Y-117612548D01*
X241254347Y-118084904D01*
X242872287Y-118493232D01*
X244526032Y-118835995D01*
X246207930Y-119111654D01*
X247910328Y-119318671D01*
X249625570Y-119455508D01*
X250115667Y-119481439D01*
X250332228Y-119488880D01*
X250618848Y-119494630D01*
X250961637Y-119498734D01*
X251346701Y-119501237D01*
X251760150Y-119502185D01*
X252188091Y-119501622D01*
X252616634Y-119499595D01*
X253031885Y-119496148D01*
X253419955Y-119491326D01*
X253766950Y-119485176D01*
X254058979Y-119477741D01*
X254282151Y-119469068D01*
X254306667Y-119467782D01*
X255341083Y-119399137D01*
X256363710Y-119307676D01*
X257360299Y-119195186D01*
X258316606Y-119063456D01*
X259218384Y-118914274D01*
X260051386Y-118749426D01*
X260079757Y-118743256D01*
X260297339Y-118694932D01*
X260489399Y-118650704D01*
X260638654Y-118614667D01*
X260727823Y-118590916D01*
X260740692Y-118586638D01*
X260762261Y-118571415D01*
X260773157Y-118539542D01*
X260771463Y-118481267D01*
X260755263Y-118386834D01*
X260722641Y-118246490D01*
X260671680Y-118050479D01*
X260600464Y-117789049D01*
X260543817Y-117584500D01*
X259996746Y-115668931D01*
X259411665Y-113720846D01*
X258792989Y-111752851D01*
X258145132Y-109777555D01*
X257472510Y-107807566D01*
X256779537Y-105855493D01*
X256070628Y-103933943D01*
X255350198Y-102055524D01*
X254622661Y-100232844D01*
X253892433Y-98478513D01*
X253680718Y-97984166D01*
X252943618Y-96310152D01*
X252190532Y-94669651D01*
X251425938Y-93071719D01*
X250654316Y-91525410D01*
X249880148Y-90039780D01*
X249107912Y-88623884D01*
X248651097Y-87818074D01*
X247717014Y-86239838D01*
X246777888Y-84742282D01*
X245833987Y-83325679D01*
X244885580Y-81990304D01*
X243932934Y-80736432D01*
X242976318Y-79564336D01*
X242015999Y-78474291D01*
X241052247Y-77466572D01*
X240085329Y-76541452D01*
X239115513Y-75699206D01*
X238143068Y-74940109D01*
X237168261Y-74264434D01*
X236191360Y-73672455D01*
X235212635Y-73164449D01*
X234232352Y-72740687D01*
X233735329Y-72558280D01*
X233028219Y-72334176D01*
X232333951Y-72156364D01*
X231640966Y-72023991D01*
X230937704Y-71936199D01*
X230212607Y-71892132D01*
X229454114Y-71890935D01*
X228650667Y-71931752D01*
X227790705Y-72013727D01*
X227265840Y-72079207D01*
X226060647Y-72272424D01*
X224916500Y-72520027D01*
X223834082Y-72821694D01*
X222814072Y-73177101D01*
X221857152Y-73585923D01*
X220964002Y-74047837D01*
X220135303Y-74562518D01*
X219371736Y-75129643D01*
X218673983Y-75748888D01*
X218042723Y-76419929D01*
X217974762Y-76500000D01*
X217489475Y-77133945D01*
X217039781Y-77833888D01*
X216632463Y-78586214D01*
X216274302Y-79377306D01*
X215972079Y-80193548D01*
X215742471Y-80981800D01*
X215515594Y-82042082D01*
X215357940Y-83148253D01*
X215269511Y-84297452D01*
X215250304Y-85486819D01*
X212154324Y-85486819D01*
X212168509Y-84305414D01*
X212242665Y-83136523D01*
X212377285Y-82011090D01*
X212506188Y-81262500D01*
X212768289Y-80118406D01*
X213097213Y-79026245D01*
X213492583Y-77986441D01*
X213954026Y-76999419D01*
X214481167Y-76065605D01*
X215073630Y-75185424D01*
X215731040Y-74359301D01*
X216453022Y-73587662D01*
X217239202Y-72870930D01*
X218089204Y-72209533D01*
X219002654Y-71603894D01*
X219979176Y-71054439D01*
X221018395Y-70561593D01*
X222119937Y-70125782D01*
X222421426Y-70020184D01*
X223268443Y-69753853D01*
X224159357Y-69515986D01*
X225080965Y-69308375D01*
X226020065Y-69132812D01*
X226963457Y-68991089D01*
X227897937Y-68884999D01*
X228810304Y-68816332D01*
X229687356Y-68786881D01*
X230515891Y-68798439D01*
X231130349Y-68838004D01*
X232249281Y-68980482D01*
X233354039Y-69204406D01*
X234437413Y-69507880D01*
X235492193Y-69889006D01*
X236074499Y-70138739D01*
X236244999Y-70213885D01*
X236385211Y-70271294D01*
X236478616Y-70304481D01*
X236508602Y-70309175D01*
X236510960Y-70265252D01*
X236513039Y-70142088D01*
X236514830Y-69945107D01*
X236516325Y-69679734D01*
X236517515Y-69351395D01*
X236518391Y-68965514D01*
X236518943Y-68527515D01*
X236519164Y-68042825D01*
X236519044Y-67516868D01*
X236518574Y-66955068D01*
X236517746Y-66362850D01*
X236516550Y-65745640D01*
X236516270Y-65621289D01*
X236505500Y-60951840D01*
X236232535Y-61281841D01*
X235716811Y-61857475D01*
X235135037Y-62421710D01*
X234505716Y-62958848D01*
X233847357Y-63453190D01*
X233178464Y-63889039D01*
X233113183Y-63927932D01*
X232224906Y-64406647D01*
X231295584Y-64817431D01*
X230324501Y-65160294D01*
X229310940Y-65435250D01*
X228254183Y-65642310D01*
X227153516Y-65781484D01*
X226008219Y-65852786D01*
X224817578Y-65856226D01*
X223580875Y-65791816D01*
X222297394Y-65659568D01*
X220966418Y-65459493D01*
X219587231Y-65191603D01*
X218159115Y-64855911D01*
X216681354Y-64452426D01*
X215867938Y-64208055D01*
X215677377Y-64149049D01*
X214449772Y-66164531D01*
X214147571Y-66658349D01*
X213876923Y-67095788D01*
X213639518Y-67474217D01*
X213437047Y-67791003D01*
X213271200Y-68043514D01*
X213143668Y-68229118D01*
X213056141Y-68345181D01*
X213031667Y-68372608D01*
X212757543Y-68590099D01*
X212432087Y-68740540D01*
X212159267Y-68808320D01*
X211848362Y-68821266D01*
X211530583Y-68761880D01*
X211226226Y-68638017D01*
X210955587Y-68457535D01*
X210771837Y-68271278D01*
X210731955Y-68213179D01*
X210652941Y-68090788D01*
X210539734Y-67912107D01*
X210397273Y-67685139D01*
X210230495Y-67417885D01*
X210044340Y-67118347D01*
X209843746Y-66794527D01*
X209633651Y-66454427D01*
X209418993Y-66106048D01*
X209204712Y-65757392D01*
X208995745Y-65416462D01*
X208797031Y-65091258D01*
X208613509Y-64789783D01*
X208450117Y-64520039D01*
X208311793Y-64290026D01*
X208230535Y-64153581D01*
X208191838Y-64162112D01*
X208094518Y-64190547D01*
X207972833Y-64228552D01*
X206597050Y-64641476D01*
X205240353Y-64994823D01*
X203906809Y-65288138D01*
X202600481Y-65520968D01*
X201325433Y-65692861D01*
X200085731Y-65803362D01*
X198885439Y-65852018D01*
X197728620Y-65838377D01*
X196619340Y-65761984D01*
X195561663Y-65622387D01*
X195526833Y-65616554D01*
X194463749Y-65398436D01*
X193441755Y-65110260D01*
X192463261Y-64753357D01*
X191530676Y-64329059D01*
X190646410Y-63838700D01*
X189812873Y-63283610D01*
X189032474Y-62665122D01*
X188307624Y-61984569D01*
X187662020Y-61268976D01*
X187335333Y-60875786D01*
X184232647Y-60875786D01*
X184229336Y-60578763D01*
X184223488Y-59915326D01*
X184218285Y-59184821D01*
X184215197Y-58682215D01*
X184210981Y-57743663D01*
X184209446Y-56838742D01*
X184210526Y-55971987D01*
X184214155Y-55147933D01*
X184220268Y-54371117D01*
X184228800Y-53646074D01*
X184239683Y-52977339D01*
X184252853Y-52369449D01*
X184268245Y-51826940D01*
X184285791Y-51354346D01*
X184287522Y-51319234D01*
X187393018Y-51319234D01*
X187394768Y-52199291D01*
X187443880Y-52793333D01*
X187599028Y-53815464D01*
X187823569Y-54808109D01*
X188115310Y-55765466D01*
X188472060Y-56681733D01*
X188891626Y-57551106D01*
X189371817Y-58367782D01*
X189762584Y-58931666D01*
X189955410Y-59173017D01*
X190197120Y-59447293D01*
X190470963Y-59737702D01*
X190760190Y-60027451D01*
X191048048Y-60299747D01*
X191317788Y-60537800D01*
X191547500Y-60721010D01*
X192269057Y-61203403D01*
X193042319Y-61623717D01*
X193855564Y-61975956D01*
X194325411Y-62141675D01*
X194839090Y-62297363D01*
X195345516Y-62426986D01*
X195862016Y-62533590D01*
X196405921Y-62620225D01*
X196994559Y-62689939D01*
X197645259Y-62745781D01*
X197834000Y-62758886D01*
X198015656Y-62765554D01*
X198264939Y-62767025D01*
X198565002Y-62763827D01*
X198898999Y-62756488D01*
X199250082Y-62745535D01*
X199601406Y-62731495D01*
X199936124Y-62714897D01*
X200237389Y-62696268D01*
X200488355Y-62676135D01*
X200494373Y-62675567D01*
X201521226Y-62555049D01*
X202592876Y-62385421D01*
X203687992Y-62170442D01*
X204713167Y-61932016D01*
X204994979Y-61860243D01*
X205285674Y-61784105D01*
X205572396Y-61707180D01*
X205842287Y-61633049D01*
X206082489Y-61565291D01*
X206280147Y-61507487D01*
X206422402Y-61463215D01*
X206496397Y-61436056D01*
X206498730Y-61434866D01*
X206488316Y-61392832D01*
X206433105Y-61280619D01*
X206333807Y-61099449D01*
X206191132Y-60850543D01*
X206005788Y-60535120D01*
X205778485Y-60154401D01*
X205509931Y-59709607D01*
X205461566Y-59630166D01*
X209091638Y-59630166D01*
X210519718Y-61967739D01*
X210766427Y-62371184D01*
X210999934Y-62752291D01*
X211216542Y-63105077D01*
X211412553Y-63423555D01*
X211584272Y-63701742D01*
X211728002Y-63933650D01*
X211840045Y-64113297D01*
X211916706Y-64234695D01*
X211954287Y-64291861D01*
X211957519Y-64295591D01*
X211980698Y-64258758D01*
X212044314Y-64155746D01*
X212144647Y-63992616D01*
X212277983Y-63775432D01*
X212440603Y-63510254D01*
X212628790Y-63203147D01*
X212838827Y-62860171D01*
X213066997Y-62487390D01*
X213309582Y-62090866D01*
X213388590Y-61961682D01*
X213634505Y-61558983D01*
X213710075Y-61434866D01*
X217405603Y-61434866D01*
X217474473Y-61460778D01*
X217612469Y-61504009D01*
X217806676Y-61560967D01*
X218044176Y-61628060D01*
X218312054Y-61701695D01*
X218597392Y-61778279D01*
X218887274Y-61854219D01*
X219168783Y-61925922D01*
X219191167Y-61931520D01*
X220444499Y-62219341D01*
X221658233Y-62447247D01*
X222828889Y-62614836D01*
X223952990Y-62721711D01*
X225027058Y-62767471D01*
X226047614Y-62751716D01*
X226239667Y-62741468D01*
X227134427Y-62665263D01*
X227968925Y-62545771D01*
X228757426Y-62379876D01*
X229514196Y-62164462D01*
X230253502Y-61896414D01*
X230417587Y-61829080D01*
X231205543Y-61454153D01*
X231944890Y-61010751D01*
X232634515Y-60500491D01*
X233273303Y-59924991D01*
X233860138Y-59285868D01*
X234393906Y-58584738D01*
X234873493Y-57823219D01*
X235297782Y-57002927D01*
X235665660Y-56125481D01*
X235976011Y-55192497D01*
X236227721Y-54205592D01*
X236419675Y-53166383D01*
X236428018Y-53110833D01*
X236467270Y-52761583D01*
X236492477Y-52353711D01*
X236503672Y-51912086D01*
X236500885Y-51461574D01*
X236484145Y-51027042D01*
X236453485Y-50633357D01*
X236424674Y-50401500D01*
X236251121Y-49504594D01*
X236004036Y-48646285D01*
X235682136Y-47824069D01*
X235284136Y-47035448D01*
X234808754Y-46277919D01*
X234254706Y-45548981D01*
X233620709Y-44846135D01*
X233522886Y-44747060D01*
X233101434Y-44338571D01*
X232692243Y-43972558D01*
X232272515Y-43630420D01*
X231819446Y-43293557D01*
X231319667Y-42949653D01*
X231138304Y-42831609D01*
X230924774Y-42697343D01*
X230689949Y-42553199D01*
X230444702Y-42405522D01*
X230199908Y-42260658D01*
X229966439Y-42124952D01*
X229755168Y-42004749D01*
X229576970Y-41906395D01*
X229442717Y-41836233D01*
X229363282Y-41800611D01*
X229346618Y-41798270D01*
X229320110Y-41838412D01*
X229256015Y-41940817D01*
X229160382Y-42095548D01*
X229039256Y-42292668D01*
X228898686Y-42522242D01*
X228744720Y-42774331D01*
X228583404Y-43039000D01*
X228420787Y-43306313D01*
X228262915Y-43566332D01*
X228115837Y-43809121D01*
X227985600Y-44024744D01*
X227878251Y-44203263D01*
X227799838Y-44334743D01*
X227756408Y-44409246D01*
X227749641Y-44422240D01*
X227784262Y-44447725D01*
X227883613Y-44492384D01*
X228031783Y-44549600D01*
X228187000Y-44604098D01*
X228946131Y-44903135D01*
X229658730Y-45271156D01*
X230321545Y-45704376D01*
X230931323Y-46199010D01*
X231484812Y-46751274D01*
X231978757Y-47357382D01*
X232409907Y-48013549D01*
X232775009Y-48715990D01*
X233070809Y-49460920D01*
X233294056Y-50244554D01*
X233376123Y-50642331D01*
X233417926Y-50941250D01*
X233448009Y-51296632D01*
X233465521Y-51680976D01*
X233469614Y-52066779D01*
X233459435Y-52426539D01*
X233439342Y-52687500D01*
X233312445Y-53482918D01*
X233108483Y-54250275D01*
X232831108Y-54985006D01*
X232483975Y-55682549D01*
X232070736Y-56338340D01*
X231595044Y-56947816D01*
X231060552Y-57506413D01*
X230470914Y-58009568D01*
X229829782Y-58452718D01*
X229140810Y-58831299D01*
X228407650Y-59140749D01*
X228221446Y-59205586D01*
X227445739Y-59421050D01*
X226661839Y-59553647D01*
X225875098Y-59604089D01*
X225090869Y-59573083D01*
X224314504Y-59461341D01*
X223551356Y-59269572D01*
X222806777Y-58998485D01*
X222086121Y-58648790D01*
X221540667Y-58319682D01*
X221299318Y-58158088D01*
X221105025Y-58020201D01*
X220935729Y-57888083D01*
X220769370Y-57743797D01*
X220583890Y-57569406D01*
X220416197Y-57405336D01*
X220032560Y-57026400D01*
X218694133Y-59217283D01*
X218386181Y-59723147D01*
X218118791Y-60166126D01*
X217892671Y-60544997D01*
X217708533Y-60858541D01*
X217567083Y-61105537D01*
X217469034Y-61284763D01*
X217415092Y-61394999D01*
X217405603Y-61434866D01*
X213710075Y-61434866D01*
X213866497Y-61177959D01*
X214080916Y-60824676D01*
X214274112Y-60505205D01*
X214442434Y-60225612D01*
X214582232Y-59991968D01*
X214689856Y-59810340D01*
X214761655Y-59686798D01*
X214793979Y-59627409D01*
X214795392Y-59622947D01*
X214751697Y-59620637D01*
X214630299Y-59618757D01*
X214438157Y-59617315D01*
X214182232Y-59616321D01*
X213869487Y-59615782D01*
X213506881Y-59615710D01*
X213101377Y-59616111D01*
X212659935Y-59616995D01*
X212189516Y-59618372D01*
X211936241Y-59619283D01*
X209091638Y-59630166D01*
X205461566Y-59630166D01*
X205208533Y-59214555D01*
X203868439Y-57020943D01*
X203731071Y-57175315D01*
X203538112Y-57374656D01*
X203294702Y-57599640D01*
X203022615Y-57831723D01*
X202743621Y-58052362D01*
X202479494Y-58243013D01*
X202469500Y-58249784D01*
X202139639Y-58466139D01*
X201846599Y-58642183D01*
X201562971Y-58792771D01*
X201261350Y-58932759D01*
X201027945Y-59031126D01*
X200266473Y-59297260D01*
X199489456Y-59480644D01*
X198700649Y-59580966D01*
X197903806Y-59597912D01*
X197102681Y-59531172D01*
X196440328Y-59412698D01*
X195672178Y-59199731D01*
X194940705Y-58912835D01*
X194249718Y-58556107D01*
X193603026Y-58133644D01*
X193004436Y-57649543D01*
X192457758Y-57107901D01*
X191966800Y-56512816D01*
X191535371Y-55868384D01*
X191167280Y-55178703D01*
X190866335Y-54447870D01*
X190636345Y-53679982D01*
X190503473Y-53026166D01*
X190475850Y-52786003D01*
X190457902Y-52483688D01*
X190449404Y-52141155D01*
X190450131Y-51780340D01*
X190459859Y-51423175D01*
X190478362Y-51091595D01*
X190505415Y-50807534D01*
X190527760Y-50657206D01*
X190715450Y-49844338D01*
X190976501Y-49073721D01*
X191310959Y-48345281D01*
X191718866Y-47658944D01*
X192200266Y-47014635D01*
X192755204Y-46412280D01*
X193367833Y-45864722D01*
X193749200Y-45583312D01*
X194191642Y-45306377D01*
X194671943Y-45046378D01*
X195166891Y-44815776D01*
X195653269Y-44627033D01*
X195708284Y-44608348D01*
X195885136Y-44546164D01*
X196027881Y-44490125D01*
X196119949Y-44447114D01*
X196146005Y-44426489D01*
X196125202Y-44383199D01*
X196065007Y-44276114D01*
X195970358Y-44113574D01*
X195846194Y-43903920D01*
X195697452Y-43655490D01*
X195529070Y-43376626D01*
X195353878Y-43088598D01*
X194559481Y-41787029D01*
X194072413Y-42045061D01*
X193105907Y-42594246D01*
X192212043Y-43178967D01*
X191391682Y-43798301D01*
X190645688Y-44451323D01*
X189974922Y-45137111D01*
X189380248Y-45854740D01*
X188862527Y-46603288D01*
X188422621Y-47381830D01*
X188061394Y-48189443D01*
X187889911Y-48665833D01*
X187640850Y-49550096D01*
X187475132Y-50435366D01*
X187393018Y-51319234D01*
X184287522Y-51319234D01*
X184305426Y-50956203D01*
X184327086Y-50637048D01*
X184332746Y-50570833D01*
X184461364Y-49593955D01*
X184669178Y-48623146D01*
X184952605Y-47666775D01*
X185308057Y-46733215D01*
X185731951Y-45830835D01*
X186220700Y-44968005D01*
X186770719Y-44153097D01*
X187378422Y-43394481D01*
X187433391Y-43331995D01*
X187620855Y-43120491D01*
X187301835Y-42781662D01*
X186690586Y-42077031D01*
X186160169Y-41347298D01*
X185710476Y-40592196D01*
X185341398Y-39811458D01*
X185052826Y-39004818D01*
X184844649Y-38172007D01*
X184716758Y-37312758D01*
X184673158Y-36503159D01*
X187769689Y-36503159D01*
X187827998Y-37227953D01*
X187967000Y-37928752D01*
X188074547Y-38294166D01*
X188165656Y-38530797D01*
X188294895Y-38812278D01*
X188449907Y-39115492D01*
X188618336Y-39417324D01*
X188787826Y-39694657D01*
X188945740Y-39924000D01*
X189110103Y-40132561D01*
X189303282Y-40361080D01*
X189495097Y-40574439D01*
X189589220Y-40672742D01*
X189931643Y-41019317D01*
X190168071Y-40848290D01*
X190309811Y-40747523D01*
X190492090Y-40620397D01*
X190555459Y-40576805D01*
X197463433Y-40576805D01*
X197484416Y-40612946D01*
X197547108Y-40717353D01*
X197649076Y-40886041D01*
X197787890Y-41115025D01*
X197961119Y-41400319D01*
X198166332Y-41737939D01*
X198401097Y-42123900D01*
X198662983Y-42554216D01*
X198949560Y-43024904D01*
X199258395Y-43531977D01*
X199587059Y-44071450D01*
X199933119Y-44639340D01*
X200294146Y-45231660D01*
X200667706Y-45844426D01*
X201051371Y-46473652D01*
X201442708Y-47115354D01*
X201839286Y-47765547D01*
X202238674Y-48420246D01*
X202638441Y-49075465D01*
X203036156Y-49727220D01*
X203429388Y-50371525D01*
X203815705Y-51004396D01*
X204192678Y-51621848D01*
X204557873Y-52219895D01*
X204908861Y-52794553D01*
X205243210Y-53341837D01*
X205558489Y-53857761D01*
X205852267Y-54338341D01*
X206122113Y-54779591D01*
X206365595Y-55177527D01*
X206580283Y-55528164D01*
X206763746Y-55827516D01*
X206913551Y-56071598D01*
X207027269Y-56256426D01*
X207102469Y-56378015D01*
X207131035Y-56423598D01*
X207191856Y-56519029D01*
X211960543Y-56508264D01*
X216729229Y-56497500D01*
X218617744Y-53407166D01*
X218888931Y-52963428D01*
X219199035Y-52456063D01*
X219542797Y-51893672D01*
X219914957Y-51284859D01*
X220310257Y-50638223D01*
X220723438Y-49962367D01*
X221149241Y-49265894D01*
X221582407Y-48557403D01*
X222017679Y-47845499D01*
X222449796Y-47138781D01*
X222873500Y-46445852D01*
X223283532Y-45775314D01*
X223468212Y-45473312D01*
X223826410Y-44887497D01*
X224172397Y-44321505D01*
X224503605Y-43779547D01*
X224817465Y-43265831D01*
X225111407Y-42784569D01*
X225382864Y-42339969D01*
X225629265Y-41936241D01*
X225848041Y-41577595D01*
X226036625Y-41268241D01*
X226192446Y-41012389D01*
X226312936Y-40814248D01*
X226395525Y-40678028D01*
X226437645Y-40607939D01*
X226442707Y-40599107D01*
X226410990Y-40569191D01*
X226305149Y-40519659D01*
X226132797Y-40452976D01*
X225901547Y-40371607D01*
X225619013Y-40278017D01*
X225292806Y-40174670D01*
X224930540Y-40064033D01*
X224539828Y-39948570D01*
X224128282Y-39830747D01*
X223720833Y-39717750D01*
X222764401Y-39472319D01*
X222156858Y-39333975D01*
X231362000Y-39333975D01*
X231395763Y-39366463D01*
X231481712Y-39422186D01*
X231541917Y-39456526D01*
X231814729Y-39611280D01*
X232133352Y-39800844D01*
X232474715Y-40010792D01*
X232815748Y-40226699D01*
X233133382Y-40434139D01*
X233404547Y-40618689D01*
X233436333Y-40641061D01*
X233965500Y-41015325D01*
X234232752Y-40755412D01*
X234394451Y-40590721D01*
X234567815Y-40402569D01*
X234716933Y-40230001D01*
X234724866Y-40220333D01*
X235145355Y-39652769D01*
X235487280Y-39071934D01*
X235756737Y-38465264D01*
X235959824Y-37820193D01*
X236025655Y-37540142D01*
X236079204Y-37205690D01*
X236112561Y-36813743D01*
X236125532Y-36389075D01*
X236117922Y-35956463D01*
X236089538Y-35540682D01*
X236044051Y-35189177D01*
X235963602Y-34708854D01*
X233662801Y-37009364D01*
X233297312Y-37375113D01*
X232949723Y-37723544D01*
X232624614Y-38050030D01*
X232326564Y-38349944D01*
X232060153Y-38618659D01*
X231829961Y-38851548D01*
X231640566Y-39043984D01*
X231496550Y-39191340D01*
X231402491Y-39288990D01*
X231362969Y-39332305D01*
X231362000Y-39333975D01*
X222156858Y-39333975D01*
X221756792Y-39242876D01*
X220708980Y-39030736D01*
X219631936Y-38837213D01*
X218536633Y-38663625D01*
X217434044Y-38511284D01*
X216335142Y-38381507D01*
X215250898Y-38275609D01*
X214192287Y-38194905D01*
X213170279Y-38140710D01*
X212195848Y-38114339D01*
X211279967Y-38117107D01*
X210576333Y-38142254D01*
X208869369Y-38257885D01*
X207184863Y-38422927D01*
X205530906Y-38636024D01*
X203915588Y-38895823D01*
X202346999Y-39200969D01*
X200833231Y-39550110D01*
X199382374Y-39941889D01*
X198825072Y-40109120D01*
X198475713Y-40218554D01*
X198164797Y-40318831D01*
X197900524Y-40407135D01*
X197691095Y-40480649D01*
X197544709Y-40536557D01*
X197469566Y-40572042D01*
X197463433Y-40576805D01*
X190555459Y-40576805D01*
X190685080Y-40487639D01*
X190775891Y-40425884D01*
X190993231Y-40282314D01*
X191244108Y-40122292D01*
X191510391Y-39956850D01*
X191773948Y-39797018D01*
X192016651Y-39653827D01*
X192220367Y-39538307D01*
X192335250Y-39477177D01*
X192449488Y-39414079D01*
X192524699Y-39362550D01*
X192542333Y-39341057D01*
X192513116Y-39306888D01*
X192428520Y-39217589D01*
X192293128Y-39077807D01*
X192111523Y-38892185D01*
X191888290Y-38665369D01*
X191628012Y-38402003D01*
X191335272Y-38106734D01*
X191014653Y-37784205D01*
X190670739Y-37439062D01*
X190308113Y-37075949D01*
X190242970Y-37010802D01*
X187943606Y-34711728D01*
X187895001Y-34978947D01*
X187792035Y-35753710D01*
X187769689Y-36503159D01*
X184673158Y-36503159D01*
X184669045Y-36426805D01*
X184668681Y-36346573D01*
X184707181Y-35486160D01*
X184821324Y-34611712D01*
X185007581Y-33739203D01*
X185262425Y-32884608D01*
X185582327Y-32063901D01*
X185645631Y-31923000D01*
X185797498Y-31601039D01*
X185928563Y-31345709D01*
X186046927Y-31144059D01*
X186160691Y-30983139D01*
X186277958Y-30849999D01*
X186372463Y-30761122D01*
X186608011Y-30584245D01*
X186847160Y-30471388D01*
X187113212Y-30414837D01*
X187429470Y-30406878D01*
X187441167Y-30407361D01*
G36*
X187441167Y-30407361D02*
G01*
X187644323Y-30420311D01*
X187793357Y-30443161D01*
X187918766Y-30482937D01*
X188051045Y-30546665D01*
X188055000Y-30548784D01*
X188103486Y-30580373D01*
X188173935Y-30635681D01*
X188269179Y-30717464D01*
X188392047Y-30828475D01*
X188545372Y-30971470D01*
X188731985Y-31149204D01*
X188954718Y-31364431D01*
X189216401Y-31619905D01*
X189519867Y-31918382D01*
X189867946Y-32262617D01*
X190263469Y-32655363D01*
X190709269Y-33099376D01*
X191208176Y-33597411D01*
X191763022Y-34152221D01*
X191914759Y-34304074D01*
X192376171Y-34765449D01*
X192821500Y-35209839D01*
X193247040Y-35633593D01*
X193649086Y-36033059D01*
X194023933Y-36404588D01*
X194367875Y-36744527D01*
X194677207Y-37049225D01*
X194948224Y-37315031D01*
X195177220Y-37538294D01*
X195360492Y-37715363D01*
X195494332Y-37842586D01*
X195575036Y-37916313D01*
X195598724Y-37934333D01*
X195662465Y-37919775D01*
X195782565Y-37880999D01*
X195936819Y-37825349D01*
X195993465Y-37803749D01*
X197003330Y-37437512D01*
X198085737Y-37090244D01*
X199230333Y-36763688D01*
X200426765Y-36459590D01*
X201664679Y-36179693D01*
X202933722Y-35925743D01*
X204223539Y-35699485D01*
X205523778Y-35502662D01*
X206824085Y-35337019D01*
X208114107Y-35204301D01*
X209383490Y-35106252D01*
X210621879Y-35044618D01*
X211818923Y-35021141D01*
X212481333Y-35025546D01*
X213913695Y-35073607D01*
X215373925Y-35168642D01*
X216850862Y-35308692D01*
X218333344Y-35491801D01*
X219810211Y-35716011D01*
X221270301Y-35979364D01*
X222702452Y-36279904D01*
X224095503Y-36615673D01*
X225438292Y-36984714D01*
X226719660Y-37385069D01*
X227518227Y-37662579D01*
X227755182Y-37747908D01*
X227964805Y-37822257D01*
X228134119Y-37881116D01*
X228250147Y-37919976D01*
X228299912Y-37934327D01*
X228300146Y-37934333D01*
X228333671Y-37905015D01*
X228423406Y-37819487D01*
X228565673Y-37681384D01*
X228756794Y-37494342D01*
X228993089Y-37261999D01*
X229270881Y-36987989D01*
X229586490Y-36675950D01*
X229936238Y-36329519D01*
X230316446Y-35952330D01*
X230723436Y-35548021D01*
X231153528Y-35120227D01*
X231603045Y-34672586D01*
X231974586Y-34302212D01*
X232543873Y-33734797D01*
X233056421Y-33224705D01*
X233515115Y-32769140D01*
X233922837Y-32365310D01*
X234282470Y-32010420D01*
X234596896Y-31701676D01*
X234868998Y-31436284D01*
X235101658Y-31211452D01*
X235297760Y-31024384D01*
X235460186Y-30872288D01*
X235591819Y-30752369D01*
X235695542Y-30661833D01*
X235774236Y-30597887D01*
X235830786Y-30557737D01*
X235849333Y-30546922D01*
X235983782Y-30482983D01*
X236111764Y-30443006D01*
X236263971Y-30420012D01*
X236463167Y-30407361D01*
X236795054Y-30416936D01*
X237084625Y-30480188D01*
X237340383Y-30602970D01*
X237570834Y-30791136D01*
X237784483Y-31050542D01*
X237989835Y-31387041D01*
X238048349Y-31498509D01*
X238430621Y-32332634D01*
X238739201Y-33187295D01*
X238973540Y-34056069D01*
X239133089Y-34932536D01*
X239217301Y-35810272D01*
X239225627Y-36682857D01*
X239157520Y-37543867D01*
X239012430Y-38386881D01*
X238789810Y-39205477D01*
X238723072Y-39402454D01*
X238438077Y-40099999D01*
X238077234Y-40797518D01*
X237648421Y-41482382D01*
X237159514Y-42141962D01*
X236643389Y-42737031D01*
X236288549Y-43115897D01*
X236629858Y-43524731D01*
X237269500Y-44355703D01*
X237835817Y-45227246D01*
X238327360Y-46135896D01*
X238742683Y-47078189D01*
X239080338Y-48050660D01*
X239338877Y-49049845D01*
X239516855Y-50072279D01*
X239573295Y-50570833D01*
X239578580Y-50671223D01*
X239583534Y-50855704D01*
X239588156Y-51123697D01*
X239592444Y-51474628D01*
X239596394Y-51907920D01*
X239600005Y-52422997D01*
X239603275Y-53019283D01*
X239606201Y-53696201D01*
X239608780Y-54453174D01*
X239611011Y-55289628D01*
X239612892Y-56204985D01*
X239614419Y-57198670D01*
X239615591Y-58270105D01*
X239616406Y-59418716D01*
X239616861Y-60643925D01*
X239616964Y-61603658D01*
X239617000Y-72170816D01*
X240077148Y-72512781D01*
X241132970Y-73341930D01*
X242182183Y-74254978D01*
X243224456Y-75251392D01*
X244259456Y-76330637D01*
X245286854Y-77492178D01*
X246306318Y-78735482D01*
X247317517Y-80060014D01*
X248320120Y-81465240D01*
X249313795Y-82950625D01*
X250298212Y-84515637D01*
X251273040Y-86159740D01*
X252237946Y-87882400D01*
X253192601Y-89683083D01*
X254136673Y-91561254D01*
X255069831Y-93516380D01*
X255991743Y-95547927D01*
X256902079Y-97655360D01*
X257800508Y-99838144D01*
X258686698Y-102095746D01*
X259116241Y-103228795D01*
X259546239Y-104392993D01*
X259980426Y-105601315D01*
X260415536Y-106843528D01*
X260848308Y-108109401D01*
X261275477Y-109388702D01*
X261693779Y-110671199D01*
X262099952Y-111946662D01*
X262490731Y-113204857D01*
X262862853Y-114435554D01*
X263213054Y-115628521D01*
X263538072Y-116773525D01*
X263834642Y-117860336D01*
X264066314Y-118747959D01*
X264147771Y-119098816D01*
X264194992Y-119388256D01*
X264207995Y-119632289D01*
X264186796Y-119846927D01*
X264131412Y-120048181D01*
X264067799Y-120199233D01*
X263937939Y-120425065D01*
X263770676Y-120627287D01*
X263559118Y-120809771D01*
X263296374Y-120976389D01*
X262975551Y-121131015D01*
X262589759Y-121277520D01*
X262132105Y-121419777D01*
X261681048Y-121540350D01*
X260962188Y-121711865D01*
X260230167Y-121866629D01*
X259474751Y-122006158D01*
X258685705Y-122131966D01*
X257852795Y-122245568D01*
X256965785Y-122348479D01*
X256014442Y-122442214D01*
X255026333Y-122525346D01*
X254754215Y-122541951D01*
X254409294Y-122555633D01*
X254003384Y-122566435D01*
X253548297Y-122574398D01*
X253055845Y-122579563D01*
X252537842Y-122581973D01*
X252006100Y-122581669D01*
X251472432Y-122578693D01*
X250948649Y-122573087D01*
X250446565Y-122564893D01*
X249977993Y-122554151D01*
X249554744Y-122540905D01*
X249188632Y-122525195D01*
X248891470Y-122507064D01*
X248845667Y-122503502D01*
X247276577Y-122355307D01*
X245773467Y-122169551D01*
X244325412Y-121944088D01*
X242921486Y-121676768D01*
X241550764Y-121365445D01*
X240202320Y-121007970D01*
X238865230Y-120602194D01*
X238405758Y-120450999D01*
X237554349Y-120165320D01*
X237137970Y-120561899D01*
X236584043Y-121033355D01*
X235968090Y-121454342D01*
X235299303Y-121820176D01*
X234586874Y-122126174D01*
X233839998Y-122367651D01*
X233370516Y-122481460D01*
X232907167Y-122579833D01*
X211507667Y-122588589D01*
X209900453Y-122589242D01*
X208375712Y-122589845D01*
X206931250Y-122590392D01*
X205564873Y-122590874D01*
X204274386Y-122591286D01*
X203057597Y-122591618D01*
X201912311Y-122591866D01*
X200836334Y-122592020D01*
X199827472Y-122592074D01*
X198883532Y-122592020D01*
X198002319Y-122591852D01*
X197181640Y-122591562D01*
X196419300Y-122591142D01*
X195713105Y-122590586D01*
X195060863Y-122589887D01*
X194460378Y-122589036D01*
X193909457Y-122588027D01*
X193405907Y-122586852D01*
X192947532Y-122585504D01*
X192532139Y-122583977D01*
X192157534Y-122582262D01*
X191821524Y-122580352D01*
X191521914Y-122578241D01*
X191256510Y-122575920D01*
X191023119Y-122573383D01*
X190819546Y-122570623D01*
X190643598Y-122567631D01*
X190493081Y-122564402D01*
X190365801Y-122560927D01*
X190259563Y-122557199D01*
X190172174Y-122553211D01*
X190101441Y-122548957D01*
X190045168Y-122544427D01*
X190001163Y-122539616D01*
X189967230Y-122534516D01*
X189941177Y-122529120D01*
X189920810Y-122523421D01*
X189903934Y-122517410D01*
X189903149Y-122517104D01*
X189607440Y-122360194D01*
X189345416Y-122141169D01*
X189132569Y-121876664D01*
X188984390Y-121583310D01*
X188957651Y-121501913D01*
X188928953Y-121381474D01*
X188911704Y-121246555D01*
X188904886Y-121078023D01*
X188907485Y-120856744D01*
X188913738Y-120675622D01*
X188986061Y-119902810D01*
X189065019Y-119510666D01*
X192250320Y-119510666D01*
X196731720Y-119510666D01*
X199944961Y-119510666D01*
X208880147Y-119510666D01*
X209743483Y-119510550D01*
X210584103Y-119510208D01*
X211398106Y-119509653D01*
X212181591Y-119508893D01*
X212930657Y-119507941D01*
X213641402Y-119506808D01*
X214309925Y-119505503D01*
X214932326Y-119504039D01*
X215504703Y-119502425D01*
X216023155Y-119500673D01*
X216483781Y-119498794D01*
X216882680Y-119496799D01*
X217215950Y-119494698D01*
X217479691Y-119492502D01*
X217670001Y-119490222D01*
X217782979Y-119487870D01*
X217815333Y-119485748D01*
X217798102Y-119439443D01*
X217751608Y-119334298D01*
X217683649Y-119187596D01*
X217627779Y-119070053D01*
X217325565Y-118535870D01*
X216958902Y-118053171D01*
X216533531Y-117626092D01*
X216055191Y-117258767D01*
X215529623Y-116955330D01*
X214962567Y-116719917D01*
X214359762Y-116556661D01*
X214068833Y-116506474D01*
X213978610Y-116499818D01*
X213806959Y-116493637D01*
X213557120Y-116487959D01*
X213232331Y-116482809D01*
X212835831Y-116478216D01*
X212370858Y-116474205D01*
X211840650Y-116470803D01*
X211248446Y-116468037D01*
X210597485Y-116465934D01*
X209891005Y-116464520D01*
X209132245Y-116463822D01*
X208883000Y-116463754D01*
X208102155Y-116463701D01*
X207401038Y-116463865D01*
X206774708Y-116464435D01*
X206218227Y-116465598D01*
X205726653Y-116467542D01*
X205295049Y-116470456D01*
X204918474Y-116474528D01*
X204591988Y-116479946D01*
X204310653Y-116486897D01*
X204069529Y-116495571D01*
X203863676Y-116506155D01*
X203688154Y-116518837D01*
X203538024Y-116533805D01*
X203408347Y-116551248D01*
X203294183Y-116571353D01*
X203190591Y-116594309D01*
X203092634Y-116620304D01*
X202995371Y-116649525D01*
X202893863Y-116682162D01*
X202860489Y-116693091D01*
X202289584Y-116923929D01*
X201756292Y-117227095D01*
X201267954Y-117596272D01*
X200831907Y-118025143D01*
X200455491Y-118507393D01*
X200152462Y-119023833D01*
X200077021Y-119179057D01*
X200014558Y-119315809D01*
X199977119Y-119407574D01*
X199974531Y-119415416D01*
X199944961Y-119510666D01*
X196731720Y-119510666D01*
X196757719Y-119394250D01*
X196947408Y-118709852D01*
X197206686Y-118028653D01*
X197524851Y-117375807D01*
X197837750Y-116855705D01*
X198084559Y-116483833D01*
X197229029Y-116471518D01*
X196940305Y-116469986D01*
X196654616Y-116473168D01*
X196392461Y-116480496D01*
X196174335Y-116491399D01*
X196022946Y-116505018D01*
X195405022Y-116626960D01*
X194820692Y-116824741D01*
X194274984Y-117094501D01*
X193772926Y-117432377D01*
X193319544Y-117834509D01*
X192919868Y-118297033D01*
X192578925Y-118816088D01*
X192316557Y-119351916D01*
X192250320Y-119510666D01*
X189065019Y-119510666D01*
X189137764Y-119149381D01*
X189364796Y-118420318D01*
X189663104Y-117720606D01*
X190028634Y-117055228D01*
X190457336Y-116429170D01*
X190945156Y-115847415D01*
X191488041Y-115314947D01*
X192081940Y-114836751D01*
X192722799Y-114417811D01*
X193406567Y-114063112D01*
X194129189Y-113777636D01*
X194647331Y-113623884D01*
X194947533Y-113554397D01*
X195277807Y-113491225D01*
X195613757Y-113438006D01*
X195930986Y-113398381D01*
X196205099Y-113375990D01*
X196333335Y-113372333D01*
X196460200Y-113369066D01*
X196543981Y-113360645D01*
X196564000Y-113352646D01*
X196540515Y-113313020D01*
X196476197Y-113218328D01*
X196380250Y-113081802D01*
X196261881Y-112916677D01*
X196232708Y-112876396D01*
X195359431Y-111612533D01*
X194516785Y-110270321D01*
X193705062Y-108850458D01*
X192924558Y-107353641D01*
X192175569Y-105780568D01*
X191458390Y-104131935D01*
X190773314Y-102408441D01*
X190120638Y-100610782D01*
X189500657Y-98739656D01*
X188913664Y-96795761D01*
X188359957Y-94779793D01*
X188034199Y-93496833D01*
X187531475Y-91349913D01*
X187062045Y-89127891D01*
X186626298Y-86833678D01*
X186224627Y-84470184D01*
X185857422Y-82040318D01*
X185525073Y-79546992D01*
X185227971Y-76993114D01*
X184966506Y-74381595D01*
X184741070Y-71715346D01*
X184552052Y-68997276D01*
X184414453Y-66530500D01*
X184383460Y-65893940D01*
X184356121Y-65308792D01*
X184332161Y-64764284D01*
X184311307Y-64249645D01*
X184293286Y-63754105D01*
X184277824Y-63266893D01*
X184264649Y-62777238D01*
X184253485Y-62274368D01*
X184244061Y-61747512D01*
X184236103Y-61185901D01*
X184232647Y-60875786D01*
X187335333Y-60875786D01*
X187335659Y-61205476D01*
X187337996Y-61432941D01*
X187344382Y-61735446D01*
X187354431Y-62103481D01*
X187367758Y-62527536D01*
X187383977Y-62998100D01*
X187402703Y-63505665D01*
X187423551Y-64040718D01*
X187446135Y-64593750D01*
X187470070Y-65155252D01*
X187494970Y-65715712D01*
X187520450Y-66265620D01*
X187546126Y-66795467D01*
X187571610Y-67295742D01*
X187596519Y-67756934D01*
X187612340Y-68033333D01*
X187787192Y-70692272D01*
X187995629Y-73292515D01*
X188237390Y-75832861D01*
X188512215Y-78312112D01*
X188819845Y-80729068D01*
X189160018Y-83082528D01*
X189532475Y-85371293D01*
X189936955Y-87594164D01*
X190373197Y-89749940D01*
X190840943Y-91837422D01*
X191339931Y-93855409D01*
X191869901Y-95802703D01*
X192430592Y-97678104D01*
X193021746Y-99480411D01*
X193643100Y-101208425D01*
X194294396Y-102860947D01*
X194975372Y-104436776D01*
X195685769Y-105934712D01*
X195946690Y-106450833D01*
X196509213Y-107505395D01*
X197096362Y-108530668D01*
X197702893Y-109518980D01*
X198323563Y-110462663D01*
X198953129Y-111354047D01*
X199586345Y-112185461D01*
X200217970Y-112949235D01*
X200842759Y-113637701D01*
X200903010Y-113700403D01*
X201199500Y-114007306D01*
X201581446Y-113861941D01*
X202011746Y-113714124D01*
X202488166Y-113582000D01*
X202980504Y-113470296D01*
X203037397Y-113459884D01*
X203105625Y-113450493D01*
X203189781Y-113442053D01*
X203294456Y-113434493D01*
X203424243Y-113427742D01*
X203583733Y-113421731D01*
X203777517Y-113416388D01*
X204010189Y-113411644D01*
X204286339Y-113407428D01*
X204610560Y-113403670D01*
X204987444Y-113400298D01*
X205421582Y-113397244D01*
X205917566Y-113394436D01*
X206479989Y-113391804D01*
X207113441Y-113389277D01*
X207822516Y-113386786D01*
X208586667Y-113384337D01*
X209524797Y-113381831D01*
X210379304Y-113380381D01*
X211150080Y-113379987D01*
X211837020Y-113380647D01*
X212440016Y-113382362D01*
X212958962Y-113385130D01*
X213393752Y-113388951D01*
X213744279Y-113393825D01*
X214010438Y-113399751D01*
X214192121Y-113406728D01*
X214271840Y-113412538D01*
X215079187Y-113540392D01*
X215855975Y-113747159D01*
X216601483Y-114032520D01*
X217314990Y-114396154D01*
X217995777Y-114837741D01*
X218641334Y-115355379D01*
X219163119Y-115871373D01*
X219638529Y-116452295D01*
X220062143Y-117088969D01*
X220428539Y-117772219D01*
X220732294Y-118492870D01*
X220967987Y-119241746D01*
X220991145Y-119331901D01*
X221036550Y-119512968D01*
X226844858Y-119500982D01*
X232653167Y-119488996D01*
X233068864Y-119374522D01*
X233295281Y-119303198D01*
X233554862Y-119207667D01*
X233806114Y-119103663D01*
X233915531Y-119053458D01*
X234346500Y-118846869D01*
X233570151Y-118456993D01*
X232011004Y-117627951D01*
X230504295Y-116733045D01*
X229049669Y-115771951D01*
X227646770Y-114744346D01*
X226295242Y-113649905D01*
X224994730Y-112488304D01*
X223744877Y-111259221D01*
X222545329Y-109962330D01*
X221395728Y-108597308D01*
X220295720Y-107163832D01*
X219244949Y-105661577D01*
X218846387Y-105053833D01*
X218001538Y-103683391D01*
X217185405Y-102242209D01*
X216403025Y-100740835D01*
X215659437Y-99189817D01*
X214959678Y-97599705D01*
X214308786Y-95981045D01*
X213711799Y-94344387D01*
X213660464Y-94195333D01*
X213278362Y-92986490D01*
X212950623Y-91752724D01*
X212678008Y-90502583D01*
X212461281Y-89244614D01*
X212301205Y-87987365D01*
X212198542Y-86739383D01*
X212154056Y-85509217D01*
X212154324Y-85486819D01*
X215250304Y-85486819D01*
X215300320Y-86713495D01*
X215419558Y-87974619D01*
X215608018Y-89267332D01*
X215743861Y-90004333D01*
X215874308Y-90633033D01*
X216008703Y-91214334D01*
X216153709Y-91772288D01*
X216315988Y-92330951D01*
X216502202Y-92914375D01*
X216719012Y-93546614D01*
X216746312Y-93623833D01*
X217436910Y-95465984D01*
X218179457Y-97243227D01*
X218973712Y-98955245D01*
X219819435Y-100601722D01*
X220716385Y-102182341D01*
X221664322Y-103696785D01*
X222663004Y-105144737D01*
X223712192Y-106525880D01*
X224811645Y-107839897D01*
X225961122Y-109086472D01*
X227160382Y-110265288D01*
X228409185Y-111376028D01*
X229707290Y-112418374D01*
X231054457Y-113392011D01*
X232441500Y-114291140D01*
X233429038Y-114869340D01*
X234479252Y-115433526D01*
X235570218Y-115973006D01*
X236680010Y-116477092D01*
X237786704Y-116935092D01*
X238156500Y-117077703D01*
X239679867Y-117612548D01*
X241254347Y-118084904D01*
X242872287Y-118493232D01*
X244526032Y-118835995D01*
X246207930Y-119111654D01*
X247910328Y-119318671D01*
X249625570Y-119455508D01*
X250115667Y-119481439D01*
X250332228Y-119488880D01*
X250618848Y-119494630D01*
X250961637Y-119498734D01*
X251346701Y-119501237D01*
X251760150Y-119502185D01*
X252188091Y-119501622D01*
X252616634Y-119499595D01*
X253031885Y-119496148D01*
X253419955Y-119491326D01*
X253766950Y-119485176D01*
X254058979Y-119477741D01*
X254282151Y-119469068D01*
X254306667Y-119467782D01*
X255341083Y-119399137D01*
X256363710Y-119307676D01*
X257360299Y-119195186D01*
X258316606Y-119063456D01*
X259218384Y-118914274D01*
X260051386Y-118749426D01*
X260079757Y-118743256D01*
X260297339Y-118694932D01*
X260489399Y-118650704D01*
X260638654Y-118614667D01*
X260727823Y-118590916D01*
X260740692Y-118586638D01*
X260762261Y-118571415D01*
X260773157Y-118539542D01*
X260771463Y-118481267D01*
X260755263Y-118386834D01*
X260722641Y-118246490D01*
X260671680Y-118050479D01*
X260600464Y-117789049D01*
X260543817Y-117584500D01*
X259996746Y-115668931D01*
X259411665Y-113720846D01*
X258792989Y-111752851D01*
X258145132Y-109777555D01*
X257472510Y-107807566D01*
X256779537Y-105855493D01*
X256070628Y-103933943D01*
X255350198Y-102055524D01*
X254622661Y-100232844D01*
X253892433Y-98478513D01*
X253680718Y-97984166D01*
X252943618Y-96310152D01*
X252190532Y-94669651D01*
X251425938Y-93071719D01*
X250654316Y-91525410D01*
X249880148Y-90039780D01*
X249107912Y-88623884D01*
X248651097Y-87818074D01*
X247717014Y-86239838D01*
X246777888Y-84742282D01*
X245833987Y-83325679D01*
X244885580Y-81990304D01*
X243932934Y-80736432D01*
X242976318Y-79564336D01*
X242015999Y-78474291D01*
X241052247Y-77466572D01*
X240085329Y-76541452D01*
X239115513Y-75699206D01*
X238143068Y-74940109D01*
X237168261Y-74264434D01*
X236191360Y-73672455D01*
X235212635Y-73164449D01*
X234232352Y-72740687D01*
X233735329Y-72558280D01*
X233028219Y-72334176D01*
X232333951Y-72156364D01*
X231640966Y-72023991D01*
X230937704Y-71936199D01*
X230212607Y-71892132D01*
X229454114Y-71890935D01*
X228650667Y-71931752D01*
X227790705Y-72013727D01*
X227265840Y-72079207D01*
X226060647Y-72272424D01*
X224916500Y-72520027D01*
X223834082Y-72821694D01*
X222814072Y-73177101D01*
X221857152Y-73585923D01*
X220964002Y-74047837D01*
X220135303Y-74562518D01*
X219371736Y-75129643D01*
X218673983Y-75748888D01*
X218042723Y-76419929D01*
X217974762Y-76500000D01*
X217489475Y-77133945D01*
X217039781Y-77833888D01*
X216632463Y-78586214D01*
X216274302Y-79377306D01*
X215972079Y-80193548D01*
X215742471Y-80981800D01*
X215515594Y-82042082D01*
X215357940Y-83148253D01*
X215269511Y-84297452D01*
X215250304Y-85486819D01*
X212154324Y-85486819D01*
X212168509Y-84305414D01*
X212242665Y-83136523D01*
X212377285Y-82011090D01*
X212506188Y-81262500D01*
X212768289Y-80118406D01*
X213097213Y-79026245D01*
X213492583Y-77986441D01*
X213954026Y-76999419D01*
X214481167Y-76065605D01*
X215073630Y-75185424D01*
X215731040Y-74359301D01*
X216453022Y-73587662D01*
X217239202Y-72870930D01*
X218089204Y-72209533D01*
X219002654Y-71603894D01*
X219979176Y-71054439D01*
X221018395Y-70561593D01*
X222119937Y-70125782D01*
X222421426Y-70020184D01*
X223268443Y-69753853D01*
X224159357Y-69515986D01*
X225080965Y-69308375D01*
X226020065Y-69132812D01*
X226963457Y-68991089D01*
X227897937Y-68884999D01*
X228810304Y-68816332D01*
X229687356Y-68786881D01*
X230515891Y-68798439D01*
X231130349Y-68838004D01*
X232249281Y-68980482D01*
X233354039Y-69204406D01*
X234437413Y-69507880D01*
X235492193Y-69889006D01*
X236074499Y-70138739D01*
X236244999Y-70213885D01*
X236385211Y-70271294D01*
X236478616Y-70304481D01*
X236508602Y-70309175D01*
X236510960Y-70265252D01*
X236513039Y-70142088D01*
X236514830Y-69945107D01*
X236516325Y-69679734D01*
X236517515Y-69351395D01*
X236518391Y-68965514D01*
X236518943Y-68527515D01*
X236519164Y-68042825D01*
X236519044Y-67516868D01*
X236518574Y-66955068D01*
X236517746Y-66362850D01*
X236516550Y-65745640D01*
X236516270Y-65621289D01*
X236505500Y-60951840D01*
X236232535Y-61281841D01*
X235716811Y-61857475D01*
X235135037Y-62421710D01*
X234505716Y-62958848D01*
X233847357Y-63453190D01*
X233178464Y-63889039D01*
X233113183Y-63927932D01*
X232224906Y-64406647D01*
X231295584Y-64817431D01*
X230324501Y-65160294D01*
X229310940Y-65435250D01*
X228254183Y-65642310D01*
X227153516Y-65781484D01*
X226008219Y-65852786D01*
X224817578Y-65856226D01*
X223580875Y-65791816D01*
X222297394Y-65659568D01*
X220966418Y-65459493D01*
X219587231Y-65191603D01*
X218159115Y-64855911D01*
X216681354Y-64452426D01*
X215867938Y-64208055D01*
X215677377Y-64149049D01*
X214449772Y-66164531D01*
X214147571Y-66658349D01*
X213876923Y-67095788D01*
X213639518Y-67474217D01*
X213437047Y-67791003D01*
X213271200Y-68043514D01*
X213143668Y-68229118D01*
X213056141Y-68345181D01*
X213031667Y-68372608D01*
X212757543Y-68590099D01*
X212432087Y-68740540D01*
X212159267Y-68808320D01*
X211848362Y-68821266D01*
X211530583Y-68761880D01*
X211226226Y-68638017D01*
X210955587Y-68457535D01*
X210771837Y-68271278D01*
X210731955Y-68213179D01*
X210652941Y-68090788D01*
X210539734Y-67912107D01*
X210397273Y-67685139D01*
X210230495Y-67417885D01*
X210044340Y-67118347D01*
X209843746Y-66794527D01*
X209633651Y-66454427D01*
X209418993Y-66106048D01*
X209204712Y-65757392D01*
X208995745Y-65416462D01*
X208797031Y-65091258D01*
X208613509Y-64789783D01*
X208450117Y-64520039D01*
X208311793Y-64290026D01*
X208230535Y-64153581D01*
X208191838Y-64162112D01*
X208094518Y-64190547D01*
X207972833Y-64228552D01*
X206597050Y-64641476D01*
X205240353Y-64994823D01*
X203906809Y-65288138D01*
X202600481Y-65520968D01*
X201325433Y-65692861D01*
X200085731Y-65803362D01*
X198885439Y-65852018D01*
X197728620Y-65838377D01*
X196619340Y-65761984D01*
X195561663Y-65622387D01*
X195526833Y-65616554D01*
X194463749Y-65398436D01*
X193441755Y-65110260D01*
X192463261Y-64753357D01*
X191530676Y-64329059D01*
X190646410Y-63838700D01*
X189812873Y-63283610D01*
X189032474Y-62665122D01*
X188307624Y-61984569D01*
X187662020Y-61268976D01*
X187335333Y-60875786D01*
X184232647Y-60875786D01*
X184229336Y-60578763D01*
X184223488Y-59915326D01*
X184218285Y-59184821D01*
X184215197Y-58682215D01*
X184210981Y-57743663D01*
X184209446Y-56838742D01*
X184210526Y-55971987D01*
X184214155Y-55147933D01*
X184220268Y-54371117D01*
X184228800Y-53646074D01*
X184239683Y-52977339D01*
X184252853Y-52369449D01*
X184268245Y-51826940D01*
X184285791Y-51354346D01*
X184287522Y-51319234D01*
X187393018Y-51319234D01*
X187394768Y-52199291D01*
X187443880Y-52793333D01*
X187599028Y-53815464D01*
X187823569Y-54808109D01*
X188115310Y-55765466D01*
X188472060Y-56681733D01*
X188891626Y-57551106D01*
X189371817Y-58367782D01*
X189762584Y-58931666D01*
X189955410Y-59173017D01*
X190197120Y-59447293D01*
X190470963Y-59737702D01*
X190760190Y-60027451D01*
X191048048Y-60299747D01*
X191317788Y-60537800D01*
X191547500Y-60721010D01*
X192269057Y-61203403D01*
X193042319Y-61623717D01*
X193855564Y-61975956D01*
X194325411Y-62141675D01*
X194839090Y-62297363D01*
X195345516Y-62426986D01*
X195862016Y-62533590D01*
X196405921Y-62620225D01*
X196994559Y-62689939D01*
X197645259Y-62745781D01*
X197834000Y-62758886D01*
X198015656Y-62765554D01*
X198264939Y-62767025D01*
X198565002Y-62763827D01*
X198898999Y-62756488D01*
X199250082Y-62745535D01*
X199601406Y-62731495D01*
X199936124Y-62714897D01*
X200237389Y-62696268D01*
X200488355Y-62676135D01*
X200494373Y-62675567D01*
X201521226Y-62555049D01*
X202592876Y-62385421D01*
X203687992Y-62170442D01*
X204713167Y-61932016D01*
X204994979Y-61860243D01*
X205285674Y-61784105D01*
X205572396Y-61707180D01*
X205842287Y-61633049D01*
X206082489Y-61565291D01*
X206280147Y-61507487D01*
X206422402Y-61463215D01*
X206496397Y-61436056D01*
X206498730Y-61434866D01*
X206488316Y-61392832D01*
X206433105Y-61280619D01*
X206333807Y-61099449D01*
X206191132Y-60850543D01*
X206005788Y-60535120D01*
X205778485Y-60154401D01*
X205509931Y-59709607D01*
X205461566Y-59630166D01*
X209091638Y-59630166D01*
X210519718Y-61967739D01*
X210766427Y-62371184D01*
X210999934Y-62752291D01*
X211216542Y-63105077D01*
X211412553Y-63423555D01*
X211584272Y-63701742D01*
X211728002Y-63933650D01*
X211840045Y-64113297D01*
X211916706Y-64234695D01*
X211954287Y-64291861D01*
X211957519Y-64295591D01*
X211980698Y-64258758D01*
X212044314Y-64155746D01*
X212144647Y-63992616D01*
X212277983Y-63775432D01*
X212440603Y-63510254D01*
X212628790Y-63203147D01*
X212838827Y-62860171D01*
X213066997Y-62487390D01*
X213309582Y-62090866D01*
X213388590Y-61961682D01*
X213634505Y-61558983D01*
X213710075Y-61434866D01*
X217405603Y-61434866D01*
X217474473Y-61460778D01*
X217612469Y-61504009D01*
X217806676Y-61560967D01*
X218044176Y-61628060D01*
X218312054Y-61701695D01*
X218597392Y-61778279D01*
X218887274Y-61854219D01*
X219168783Y-61925922D01*
X219191167Y-61931520D01*
X220444499Y-62219341D01*
X221658233Y-62447247D01*
X222828889Y-62614836D01*
X223952990Y-62721711D01*
X225027058Y-62767471D01*
X226047614Y-62751716D01*
X226239667Y-62741468D01*
X227134427Y-62665263D01*
X227968925Y-62545771D01*
X228757426Y-62379876D01*
X229514196Y-62164462D01*
X230253502Y-61896414D01*
X230417587Y-61829080D01*
X231205543Y-61454153D01*
X231944890Y-61010751D01*
X232634515Y-60500491D01*
X233273303Y-59924991D01*
X233860138Y-59285868D01*
X234393906Y-58584738D01*
X234873493Y-57823219D01*
X235297782Y-57002927D01*
X235665660Y-56125481D01*
X235976011Y-55192497D01*
X236227721Y-54205592D01*
X236419675Y-53166383D01*
X236428018Y-53110833D01*
X236467270Y-52761583D01*
X236492477Y-52353711D01*
X236503672Y-51912086D01*
X236500885Y-51461574D01*
X236484145Y-51027042D01*
X236453485Y-50633357D01*
X236424674Y-50401500D01*
X236251121Y-49504594D01*
X236004036Y-48646285D01*
X235682136Y-47824069D01*
X235284136Y-47035448D01*
X234808754Y-46277919D01*
X234254706Y-45548981D01*
X233620709Y-44846135D01*
X233522886Y-44747060D01*
X233101434Y-44338571D01*
X232692243Y-43972558D01*
X232272515Y-43630420D01*
X231819446Y-43293557D01*
X231319667Y-42949653D01*
X231138304Y-42831609D01*
X230924774Y-42697343D01*
X230689949Y-42553199D01*
X230444702Y-42405522D01*
X230199908Y-42260658D01*
X229966439Y-42124952D01*
X229755168Y-42004749D01*
X229576970Y-41906395D01*
X229442717Y-41836233D01*
X229363282Y-41800611D01*
X229346618Y-41798270D01*
X229320110Y-41838412D01*
X229256015Y-41940817D01*
X229160382Y-42095548D01*
X229039256Y-42292668D01*
X228898686Y-42522242D01*
X228744720Y-42774331D01*
X228583404Y-43039000D01*
X228420787Y-43306313D01*
X228262915Y-43566332D01*
X228115837Y-43809121D01*
X227985600Y-44024744D01*
X227878251Y-44203263D01*
X227799838Y-44334743D01*
X227756408Y-44409246D01*
X227749641Y-44422240D01*
X227784262Y-44447725D01*
X227883613Y-44492384D01*
X228031783Y-44549600D01*
X228187000Y-44604098D01*
X228946131Y-44903135D01*
X229658730Y-45271156D01*
X230321545Y-45704376D01*
X230931323Y-46199010D01*
X231484812Y-46751274D01*
X231978757Y-47357382D01*
X232409907Y-48013549D01*
X232775009Y-48715990D01*
X233070809Y-49460920D01*
X233294056Y-50244554D01*
X233376123Y-50642331D01*
X233417926Y-50941250D01*
X233448009Y-51296632D01*
X233465521Y-51680976D01*
X233469614Y-52066779D01*
X233459435Y-52426539D01*
X233439342Y-52687500D01*
X233312445Y-53482918D01*
X233108483Y-54250275D01*
X232831108Y-54985006D01*
X232483975Y-55682549D01*
X232070736Y-56338340D01*
X231595044Y-56947816D01*
X231060552Y-57506413D01*
X230470914Y-58009568D01*
X229829782Y-58452718D01*
X229140810Y-58831299D01*
X228407650Y-59140749D01*
X228221446Y-59205586D01*
X227445739Y-59421050D01*
X226661839Y-59553647D01*
X225875098Y-59604089D01*
X225090869Y-59573083D01*
X224314504Y-59461341D01*
X223551356Y-59269572D01*
X222806777Y-58998485D01*
X222086121Y-58648790D01*
X221540667Y-58319682D01*
X221299318Y-58158088D01*
X221105025Y-58020201D01*
X220935729Y-57888083D01*
X220769370Y-57743797D01*
X220583890Y-57569406D01*
X220416197Y-57405336D01*
X220032560Y-57026400D01*
X218694133Y-59217283D01*
X218386181Y-59723147D01*
X218118791Y-60166126D01*
X217892671Y-60544997D01*
X217708533Y-60858541D01*
X217567083Y-61105537D01*
X217469034Y-61284763D01*
X217415092Y-61394999D01*
X217405603Y-61434866D01*
X213710075Y-61434866D01*
X213866497Y-61177959D01*
X214080916Y-60824676D01*
X214274112Y-60505205D01*
X214442434Y-60225612D01*
X214582232Y-59991968D01*
X214689856Y-59810340D01*
X214761655Y-59686798D01*
X214793979Y-59627409D01*
X214795392Y-59622947D01*
X214751697Y-59620637D01*
X214630299Y-59618757D01*
X214438157Y-59617315D01*
X214182232Y-59616321D01*
X213869487Y-59615782D01*
X213506881Y-59615710D01*
X213101377Y-59616111D01*
X212659935Y-59616995D01*
X212189516Y-59618372D01*
X211936241Y-59619283D01*
X209091638Y-59630166D01*
X205461566Y-59630166D01*
X205208533Y-59214555D01*
X203868439Y-57020943D01*
X203731071Y-57175315D01*
X203538112Y-57374656D01*
X203294702Y-57599640D01*
X203022615Y-57831723D01*
X202743621Y-58052362D01*
X202479494Y-58243013D01*
X202469500Y-58249784D01*
X202139639Y-58466139D01*
X201846599Y-58642183D01*
X201562971Y-58792771D01*
X201261350Y-58932759D01*
X201027945Y-59031126D01*
X200266473Y-59297260D01*
X199489456Y-59480644D01*
X198700649Y-59580966D01*
X197903806Y-59597912D01*
X197102681Y-59531172D01*
X196440328Y-59412698D01*
X195672178Y-59199731D01*
X194940705Y-58912835D01*
X194249718Y-58556107D01*
X193603026Y-58133644D01*
X193004436Y-57649543D01*
X192457758Y-57107901D01*
X191966800Y-56512816D01*
X191535371Y-55868384D01*
X191167280Y-55178703D01*
X190866335Y-54447870D01*
X190636345Y-53679982D01*
X190503473Y-53026166D01*
X190475850Y-52786003D01*
X190457902Y-52483688D01*
X190449404Y-52141155D01*
X190450131Y-51780340D01*
X190459859Y-51423175D01*
X190478362Y-51091595D01*
X190505415Y-50807534D01*
X190527760Y-50657206D01*
X190715450Y-49844338D01*
X190976501Y-49073721D01*
X191310959Y-48345281D01*
X191718866Y-47658944D01*
X192200266Y-47014635D01*
X192755204Y-46412280D01*
X193367833Y-45864722D01*
X193749200Y-45583312D01*
X194191642Y-45306377D01*
X194671943Y-45046378D01*
X195166891Y-44815776D01*
X195653269Y-44627033D01*
X195708284Y-44608348D01*
X195885136Y-44546164D01*
X196027881Y-44490125D01*
X196119949Y-44447114D01*
X196146005Y-44426489D01*
X196125202Y-44383199D01*
X196065007Y-44276114D01*
X195970358Y-44113574D01*
X195846194Y-43903920D01*
X195697452Y-43655490D01*
X195529070Y-43376626D01*
X195353878Y-43088598D01*
X194559481Y-41787029D01*
X194072413Y-42045061D01*
X193105907Y-42594246D01*
X192212043Y-43178967D01*
X191391682Y-43798301D01*
X190645688Y-44451323D01*
X189974922Y-45137111D01*
X189380248Y-45854740D01*
X188862527Y-46603288D01*
X188422621Y-47381830D01*
X188061394Y-48189443D01*
X187889911Y-48665833D01*
X187640850Y-49550096D01*
X187475132Y-50435366D01*
X187393018Y-51319234D01*
X184287522Y-51319234D01*
X184305426Y-50956203D01*
X184327086Y-50637048D01*
X184332746Y-50570833D01*
X184461364Y-49593955D01*
X184669178Y-48623146D01*
X184952605Y-47666775D01*
X185308057Y-46733215D01*
X185731951Y-45830835D01*
X186220700Y-44968005D01*
X186770719Y-44153097D01*
X187378422Y-43394481D01*
X187433391Y-43331995D01*
X187620855Y-43120491D01*
X187301835Y-42781662D01*
X186690586Y-42077031D01*
X186160169Y-41347298D01*
X185710476Y-40592196D01*
X185341398Y-39811458D01*
X185052826Y-39004818D01*
X184844649Y-38172007D01*
X184716758Y-37312758D01*
X184673158Y-36503159D01*
X187769689Y-36503159D01*
X187827998Y-37227953D01*
X187967000Y-37928752D01*
X188074547Y-38294166D01*
X188165656Y-38530797D01*
X188294895Y-38812278D01*
X188449907Y-39115492D01*
X188618336Y-39417324D01*
X188787826Y-39694657D01*
X188945740Y-39924000D01*
X189110103Y-40132561D01*
X189303282Y-40361080D01*
X189495097Y-40574439D01*
X189589220Y-40672742D01*
X189931643Y-41019317D01*
X190168071Y-40848290D01*
X190309811Y-40747523D01*
X190492090Y-40620397D01*
X190555459Y-40576805D01*
X197463433Y-40576805D01*
X197484416Y-40612946D01*
X197547108Y-40717353D01*
X197649076Y-40886041D01*
X197787890Y-41115025D01*
X197961119Y-41400319D01*
X198166332Y-41737939D01*
X198401097Y-42123900D01*
X198662983Y-42554216D01*
X198949560Y-43024904D01*
X199258395Y-43531977D01*
X199587059Y-44071450D01*
X199933119Y-44639340D01*
X200294146Y-45231660D01*
X200667706Y-45844426D01*
X201051371Y-46473652D01*
X201442708Y-47115354D01*
X201839286Y-47765547D01*
X202238674Y-48420246D01*
X202638441Y-49075465D01*
X203036156Y-49727220D01*
X203429388Y-50371525D01*
X203815705Y-51004396D01*
X204192678Y-51621848D01*
X204557873Y-52219895D01*
X204908861Y-52794553D01*
X205243210Y-53341837D01*
X205558489Y-53857761D01*
X205852267Y-54338341D01*
X206122113Y-54779591D01*
X206365595Y-55177527D01*
X206580283Y-55528164D01*
X206763746Y-55827516D01*
X206913551Y-56071598D01*
X207027269Y-56256426D01*
X207102469Y-56378015D01*
X207131035Y-56423598D01*
X207191856Y-56519029D01*
X211960543Y-56508264D01*
X216729229Y-56497500D01*
X218617744Y-53407166D01*
X218888931Y-52963428D01*
X219199035Y-52456063D01*
X219542797Y-51893672D01*
X219914957Y-51284859D01*
X220310257Y-50638223D01*
X220723438Y-49962367D01*
X221149241Y-49265894D01*
X221582407Y-48557403D01*
X222017679Y-47845499D01*
X222449796Y-47138781D01*
X222873500Y-46445852D01*
X223283532Y-45775314D01*
X223468212Y-45473312D01*
X223826410Y-44887497D01*
X224172397Y-44321505D01*
X224503605Y-43779547D01*
X224817465Y-43265831D01*
X225111407Y-42784569D01*
X225382864Y-42339969D01*
X225629265Y-41936241D01*
X225848041Y-41577595D01*
X226036625Y-41268241D01*
X226192446Y-41012389D01*
X226312936Y-40814248D01*
X226395525Y-40678028D01*
X226437645Y-40607939D01*
X226442707Y-40599107D01*
X226410990Y-40569191D01*
X226305149Y-40519659D01*
X226132797Y-40452976D01*
X225901547Y-40371607D01*
X225619013Y-40278017D01*
X225292806Y-40174670D01*
X224930540Y-40064033D01*
X224539828Y-39948570D01*
X224128282Y-39830747D01*
X223720833Y-39717750D01*
X222764401Y-39472319D01*
X222156858Y-39333975D01*
X231362000Y-39333975D01*
X231395763Y-39366463D01*
X231481712Y-39422186D01*
X231541917Y-39456526D01*
X231814729Y-39611280D01*
X232133352Y-39800844D01*
X232474715Y-40010792D01*
X232815748Y-40226699D01*
X233133382Y-40434139D01*
X233404547Y-40618689D01*
X233436333Y-40641061D01*
X233965500Y-41015325D01*
X234232752Y-40755412D01*
X234394451Y-40590721D01*
X234567815Y-40402569D01*
X234716933Y-40230001D01*
X234724866Y-40220333D01*
X235145355Y-39652769D01*
X235487280Y-39071934D01*
X235756737Y-38465264D01*
X235959824Y-37820193D01*
X236025655Y-37540142D01*
X236079204Y-37205690D01*
X236112561Y-36813743D01*
X236125532Y-36389075D01*
X236117922Y-35956463D01*
X236089538Y-35540682D01*
X236044051Y-35189177D01*
X235963602Y-34708854D01*
X233662801Y-37009364D01*
X233297312Y-37375113D01*
X232949723Y-37723544D01*
X232624614Y-38050030D01*
X232326564Y-38349944D01*
X232060153Y-38618659D01*
X231829961Y-38851548D01*
X231640566Y-39043984D01*
X231496550Y-39191340D01*
X231402491Y-39288990D01*
X231362969Y-39332305D01*
X231362000Y-39333975D01*
X222156858Y-39333975D01*
X221756792Y-39242876D01*
X220708980Y-39030736D01*
X219631936Y-38837213D01*
X218536633Y-38663625D01*
X217434044Y-38511284D01*
X216335142Y-38381507D01*
X215250898Y-38275609D01*
X214192287Y-38194905D01*
X213170279Y-38140710D01*
X212195848Y-38114339D01*
X211279967Y-38117107D01*
X210576333Y-38142254D01*
X208869369Y-38257885D01*
X207184863Y-38422927D01*
X205530906Y-38636024D01*
X203915588Y-38895823D01*
X202346999Y-39200969D01*
X200833231Y-39550110D01*
X199382374Y-39941889D01*
X198825072Y-40109120D01*
X198475713Y-40218554D01*
X198164797Y-40318831D01*
X197900524Y-40407135D01*
X197691095Y-40480649D01*
X197544709Y-40536557D01*
X197469566Y-40572042D01*
X197463433Y-40576805D01*
X190555459Y-40576805D01*
X190685080Y-40487639D01*
X190775891Y-40425884D01*
X190993231Y-40282314D01*
X191244108Y-40122292D01*
X191510391Y-39956850D01*
X191773948Y-39797018D01*
X192016651Y-39653827D01*
X192220367Y-39538307D01*
X192335250Y-39477177D01*
X192449488Y-39414079D01*
X192524699Y-39362550D01*
X192542333Y-39341057D01*
X192513116Y-39306888D01*
X192428520Y-39217589D01*
X192293128Y-39077807D01*
X192111523Y-38892185D01*
X191888290Y-38665369D01*
X191628012Y-38402003D01*
X191335272Y-38106734D01*
X191014653Y-37784205D01*
X190670739Y-37439062D01*
X190308113Y-37075949D01*
X190242970Y-37010802D01*
X187943606Y-34711728D01*
X187895001Y-34978947D01*
X187792035Y-35753710D01*
X187769689Y-36503159D01*
X184673158Y-36503159D01*
X184669045Y-36426805D01*
X184668681Y-36346573D01*
X184707181Y-35486160D01*
X184821324Y-34611712D01*
X185007581Y-33739203D01*
X185262425Y-32884608D01*
X185582327Y-32063901D01*
X185645631Y-31923000D01*
X185797498Y-31601039D01*
X185928563Y-31345709D01*
X186046927Y-31144059D01*
X186160691Y-30983139D01*
X186277958Y-30849999D01*
X186372463Y-30761122D01*
X186608011Y-30584245D01*
X186847160Y-30471388D01*
X187113212Y-30414837D01*
X187429470Y-30406878D01*
X187441167Y-30407361D01*
G37*
%TD*%
M02*
