%TF.GenerationSoftware,KiCad,Pcbnew,8.0.7-1.fc40*%
%TF.CreationDate,2025-01-06T11:16:26+01:00*%
%TF.ProjectId,owlThief,6f776c54-6869-4656-962e-6b696361645f,rev?*%
%TF.SameCoordinates,Original*%
%TF.FileFunction,Copper,L1,Top*%
%TF.FilePolarity,Positive*%
%FSLAX46Y46*%
G04 Gerber Fmt 4.6, Leading zero omitted, Abs format (unit mm)*
G04 Created by KiCad (PCBNEW 8.0.7-1.fc40) date 2025-01-06 11:16:26*
%MOMM*%
%LPD*%
G01*
G04 APERTURE LIST*
%TA.AperFunction,EtchedComponent*%
%ADD10C,0.010000*%
%TD*%
G04 APERTURE END LIST*
D10*
%TO.C,Ref\u002A\u002A*%
X226154039Y-50415798D02*
X226463052Y-50528153D01*
X226737134Y-50702310D01*
X226968633Y-50928146D01*
X227149899Y-51195541D01*
X227273282Y-51494372D01*
X227331130Y-51814520D01*
X227315794Y-52145861D01*
X227279323Y-52308966D01*
X227144406Y-52639848D01*
X226947578Y-52923973D01*
X226699437Y-53154966D01*
X226410579Y-53326453D01*
X226091602Y-53432058D01*
X225753102Y-53465407D01*
X225424577Y-53424706D01*
X225131824Y-53316108D01*
X224854647Y-53140030D01*
X224611854Y-52912985D01*
X224422251Y-52651485D01*
X224335615Y-52468650D01*
X224276668Y-52242845D01*
X224246554Y-51979819D01*
X224247989Y-51720173D01*
X224273633Y-51542368D01*
X224338146Y-51360533D01*
X224443666Y-51154504D01*
X224570533Y-50957683D01*
X224699087Y-50803473D01*
X224720459Y-50783206D01*
X224900738Y-50646384D01*
X225115271Y-50521872D01*
X225326799Y-50430067D01*
X225412035Y-50404628D01*
X225520667Y-50388835D01*
X225676795Y-50378259D01*
X225817744Y-50375365D01*
X226154039Y-50415798D01*
%TA.AperFunction,EtchedComponent*%
G36*
X226154039Y-50415798D02*
G01*
X226463052Y-50528153D01*
X226737134Y-50702310D01*
X226968633Y-50928146D01*
X227149899Y-51195541D01*
X227273282Y-51494372D01*
X227331130Y-51814520D01*
X227315794Y-52145861D01*
X227279323Y-52308966D01*
X227144406Y-52639848D01*
X226947578Y-52923973D01*
X226699437Y-53154966D01*
X226410579Y-53326453D01*
X226091602Y-53432058D01*
X225753102Y-53465407D01*
X225424577Y-53424706D01*
X225131824Y-53316108D01*
X224854647Y-53140030D01*
X224611854Y-52912985D01*
X224422251Y-52651485D01*
X224335615Y-52468650D01*
X224276668Y-52242845D01*
X224246554Y-51979819D01*
X224247989Y-51720173D01*
X224273633Y-51542368D01*
X224338146Y-51360533D01*
X224443666Y-51154504D01*
X224570533Y-50957683D01*
X224699087Y-50803473D01*
X224720459Y-50783206D01*
X224900738Y-50646384D01*
X225115271Y-50521872D01*
X225326799Y-50430067D01*
X225412035Y-50404628D01*
X225520667Y-50388835D01*
X225676795Y-50378259D01*
X225817744Y-50375365D01*
X226154039Y-50415798D01*
G37*
%TD.AperFunction*%
X198352916Y-50389338D02*
X198688386Y-50475096D01*
X198992029Y-50635629D01*
X199253997Y-50863948D01*
X199464442Y-51153064D01*
X199487354Y-51194473D01*
X199559164Y-51338782D01*
X199603869Y-51464154D01*
X199629300Y-51602529D01*
X199643290Y-51785847D01*
X199645848Y-51840833D01*
X199640180Y-52158415D01*
X199587166Y-52424383D01*
X199478462Y-52662267D01*
X199305728Y-52895599D01*
X199249933Y-52957740D01*
X198984064Y-53187637D01*
X198680882Y-53350793D01*
X198354346Y-53443382D01*
X198018419Y-53461580D01*
X197687061Y-53401561D01*
X197660812Y-53393148D01*
X197321065Y-53238314D01*
X197034536Y-53018301D01*
X196805209Y-52736701D01*
X196684586Y-52513232D01*
X196633639Y-52375682D01*
X196603807Y-52224460D01*
X196590357Y-52030643D01*
X196588419Y-51925500D01*
X196589886Y-51730533D01*
X196602364Y-51588511D01*
X196632031Y-51467851D01*
X196685065Y-51336969D01*
X196716758Y-51269333D01*
X196910593Y-50954734D01*
X197156999Y-50703792D01*
X197448387Y-50520589D01*
X197777167Y-50409206D01*
X198135751Y-50373726D01*
X198352916Y-50389338D01*
%TA.AperFunction,EtchedComponent*%
G36*
X198352916Y-50389338D02*
G01*
X198688386Y-50475096D01*
X198992029Y-50635629D01*
X199253997Y-50863948D01*
X199464442Y-51153064D01*
X199487354Y-51194473D01*
X199559164Y-51338782D01*
X199603869Y-51464154D01*
X199629300Y-51602529D01*
X199643290Y-51785847D01*
X199645848Y-51840833D01*
X199640180Y-52158415D01*
X199587166Y-52424383D01*
X199478462Y-52662267D01*
X199305728Y-52895599D01*
X199249933Y-52957740D01*
X198984064Y-53187637D01*
X198680882Y-53350793D01*
X198354346Y-53443382D01*
X198018419Y-53461580D01*
X197687061Y-53401561D01*
X197660812Y-53393148D01*
X197321065Y-53238314D01*
X197034536Y-53018301D01*
X196805209Y-52736701D01*
X196684586Y-52513232D01*
X196633639Y-52375682D01*
X196603807Y-52224460D01*
X196590357Y-52030643D01*
X196588419Y-51925500D01*
X196589886Y-51730533D01*
X196602364Y-51588511D01*
X196632031Y-51467851D01*
X196685065Y-51336969D01*
X196716758Y-51269333D01*
X196910593Y-50954734D01*
X197156999Y-50703792D01*
X197448387Y-50520589D01*
X197777167Y-50409206D01*
X198135751Y-50373726D01*
X198352916Y-50389338D01*
G37*
%TD.AperFunction*%
X200009477Y-99580194D02*
X200323445Y-99689068D01*
X200607671Y-99863730D01*
X200851108Y-100099769D01*
X201042713Y-100392776D01*
X201105691Y-100533334D01*
X201144711Y-100665921D01*
X201182179Y-100849825D01*
X201211672Y-101051838D01*
X201218534Y-101116552D01*
X201248393Y-101353199D01*
X201292031Y-101539076D01*
X201358100Y-101707923D01*
X201383698Y-101760515D01*
X201573095Y-102048893D01*
X201815056Y-102281157D01*
X202097204Y-102452882D01*
X202407162Y-102559642D01*
X202732554Y-102597012D01*
X203061004Y-102560565D01*
X203346182Y-102462311D01*
X203631220Y-102300193D01*
X203855520Y-102104232D01*
X204025882Y-101864048D01*
X204149107Y-101569258D01*
X204231996Y-101209480D01*
X204250786Y-101081442D01*
X204304329Y-100759353D01*
X204376349Y-100502240D01*
X204475228Y-100291019D01*
X204609349Y-100106603D01*
X204736200Y-99976183D01*
X204996954Y-99768097D01*
X205262993Y-99634427D01*
X205555956Y-99566513D01*
X205792667Y-99553464D01*
X206123244Y-99576938D01*
X206402085Y-99651794D01*
X206650293Y-99786250D01*
X206875348Y-99975120D01*
X207060422Y-100181973D01*
X207193884Y-100398933D01*
X207285134Y-100647433D01*
X207343571Y-100948906D01*
X207358660Y-101077210D01*
X207390524Y-101322955D01*
X207433530Y-101515385D01*
X207495536Y-101685785D01*
X207530315Y-101760726D01*
X207714946Y-102048187D01*
X207952218Y-102278249D01*
X208229940Y-102447972D01*
X208535926Y-102554415D01*
X208857988Y-102594637D01*
X209183935Y-102565699D01*
X209501581Y-102464659D01*
X209779087Y-102303241D01*
X210006355Y-102100448D01*
X210178776Y-101860914D01*
X210302113Y-101572999D01*
X210382131Y-101225063D01*
X210406560Y-101036080D01*
X210482360Y-100643714D01*
X210622924Y-100305872D01*
X210828247Y-100022566D01*
X211098318Y-99793809D01*
X211330919Y-99663789D01*
X211467470Y-99606599D01*
X211594580Y-99572596D01*
X211743201Y-99556200D01*
X211944284Y-99551834D01*
X211952167Y-99551831D01*
X212155507Y-99555895D01*
X212305364Y-99571805D01*
X212432690Y-99605139D01*
X212568437Y-99661475D01*
X212573414Y-99663789D01*
X212886944Y-99855288D01*
X213145402Y-100109504D01*
X213338586Y-100413042D01*
X213393916Y-100528634D01*
X213431832Y-100623636D01*
X213455443Y-100718069D01*
X213467863Y-100831956D01*
X213472203Y-100985316D01*
X213471575Y-101198171D01*
X213470990Y-101264898D01*
X213444539Y-101754605D01*
X213369897Y-102200446D01*
X213239963Y-102632448D01*
X213047631Y-103080633D01*
X213035515Y-103105505D01*
X212724501Y-103648021D01*
X212353306Y-104134680D01*
X211928118Y-104562194D01*
X211455126Y-104927273D01*
X210940519Y-105226629D01*
X210390487Y-105456973D01*
X209811217Y-105615016D01*
X209208900Y-105697469D01*
X208589723Y-105701044D01*
X208219313Y-105664865D01*
X207787556Y-105577495D01*
X207334550Y-105435126D01*
X206887236Y-105248839D01*
X206472551Y-105029714D01*
X206149125Y-104813300D01*
X206022614Y-104717215D01*
X205919184Y-104638863D01*
X205860621Y-104594747D01*
X205859709Y-104594068D01*
X205799608Y-104600342D01*
X205683824Y-104662686D01*
X205517501Y-104778278D01*
X205499043Y-104792088D01*
X205008175Y-105110019D01*
X204472075Y-105363780D01*
X203903830Y-105550258D01*
X203316527Y-105666338D01*
X202723251Y-105708906D01*
X202137090Y-105674847D01*
X201925740Y-105642402D01*
X201331416Y-105493535D01*
X200768418Y-105270436D01*
X200242860Y-104978839D01*
X199760856Y-104624479D01*
X199328520Y-104213090D01*
X198951966Y-103750407D01*
X198637307Y-103242163D01*
X198390658Y-102694093D01*
X198233849Y-102179774D01*
X198183528Y-101927247D01*
X198145182Y-101649946D01*
X198120675Y-101371980D01*
X198111867Y-101117458D01*
X198120621Y-100910490D01*
X198130451Y-100841047D01*
X198237548Y-100483848D01*
X198412239Y-100173819D01*
X198650172Y-99916709D01*
X198946998Y-99718268D01*
X198999557Y-99692397D01*
X199336488Y-99577449D01*
X199676809Y-99541518D01*
X200009477Y-99580194D01*
%TA.AperFunction,EtchedComponent*%
G36*
X200009477Y-99580194D02*
G01*
X200323445Y-99689068D01*
X200607671Y-99863730D01*
X200851108Y-100099769D01*
X201042713Y-100392776D01*
X201105691Y-100533334D01*
X201144711Y-100665921D01*
X201182179Y-100849825D01*
X201211672Y-101051838D01*
X201218534Y-101116552D01*
X201248393Y-101353199D01*
X201292031Y-101539076D01*
X201358100Y-101707923D01*
X201383698Y-101760515D01*
X201573095Y-102048893D01*
X201815056Y-102281157D01*
X202097204Y-102452882D01*
X202407162Y-102559642D01*
X202732554Y-102597012D01*
X203061004Y-102560565D01*
X203346182Y-102462311D01*
X203631220Y-102300193D01*
X203855520Y-102104232D01*
X204025882Y-101864048D01*
X204149107Y-101569258D01*
X204231996Y-101209480D01*
X204250786Y-101081442D01*
X204304329Y-100759353D01*
X204376349Y-100502240D01*
X204475228Y-100291019D01*
X204609349Y-100106603D01*
X204736200Y-99976183D01*
X204996954Y-99768097D01*
X205262993Y-99634427D01*
X205555956Y-99566513D01*
X205792667Y-99553464D01*
X206123244Y-99576938D01*
X206402085Y-99651794D01*
X206650293Y-99786250D01*
X206875348Y-99975120D01*
X207060422Y-100181973D01*
X207193884Y-100398933D01*
X207285134Y-100647433D01*
X207343571Y-100948906D01*
X207358660Y-101077210D01*
X207390524Y-101322955D01*
X207433530Y-101515385D01*
X207495536Y-101685785D01*
X207530315Y-101760726D01*
X207714946Y-102048187D01*
X207952218Y-102278249D01*
X208229940Y-102447972D01*
X208535926Y-102554415D01*
X208857988Y-102594637D01*
X209183935Y-102565699D01*
X209501581Y-102464659D01*
X209779087Y-102303241D01*
X210006355Y-102100448D01*
X210178776Y-101860914D01*
X210302113Y-101572999D01*
X210382131Y-101225063D01*
X210406560Y-101036080D01*
X210482360Y-100643714D01*
X210622924Y-100305872D01*
X210828247Y-100022566D01*
X211098318Y-99793809D01*
X211330919Y-99663789D01*
X211467470Y-99606599D01*
X211594580Y-99572596D01*
X211743201Y-99556200D01*
X211944284Y-99551834D01*
X211952167Y-99551831D01*
X212155507Y-99555895D01*
X212305364Y-99571805D01*
X212432690Y-99605139D01*
X212568437Y-99661475D01*
X212573414Y-99663789D01*
X212886944Y-99855288D01*
X213145402Y-100109504D01*
X213338586Y-100413042D01*
X213393916Y-100528634D01*
X213431832Y-100623636D01*
X213455443Y-100718069D01*
X213467863Y-100831956D01*
X213472203Y-100985316D01*
X213471575Y-101198171D01*
X213470990Y-101264898D01*
X213444539Y-101754605D01*
X213369897Y-102200446D01*
X213239963Y-102632448D01*
X213047631Y-103080633D01*
X213035515Y-103105505D01*
X212724501Y-103648021D01*
X212353306Y-104134680D01*
X211928118Y-104562194D01*
X211455126Y-104927273D01*
X210940519Y-105226629D01*
X210390487Y-105456973D01*
X209811217Y-105615016D01*
X209208900Y-105697469D01*
X208589723Y-105701044D01*
X208219313Y-105664865D01*
X207787556Y-105577495D01*
X207334550Y-105435126D01*
X206887236Y-105248839D01*
X206472551Y-105029714D01*
X206149125Y-104813300D01*
X206022614Y-104717215D01*
X205919184Y-104638863D01*
X205860621Y-104594747D01*
X205859709Y-104594068D01*
X205799608Y-104600342D01*
X205683824Y-104662686D01*
X205517501Y-104778278D01*
X205499043Y-104792088D01*
X205008175Y-105110019D01*
X204472075Y-105363780D01*
X203903830Y-105550258D01*
X203316527Y-105666338D01*
X202723251Y-105708906D01*
X202137090Y-105674847D01*
X201925740Y-105642402D01*
X201331416Y-105493535D01*
X200768418Y-105270436D01*
X200242860Y-104978839D01*
X199760856Y-104624479D01*
X199328520Y-104213090D01*
X198951966Y-103750407D01*
X198637307Y-103242163D01*
X198390658Y-102694093D01*
X198233849Y-102179774D01*
X198183528Y-101927247D01*
X198145182Y-101649946D01*
X198120675Y-101371980D01*
X198111867Y-101117458D01*
X198120621Y-100910490D01*
X198130451Y-100841047D01*
X198237548Y-100483848D01*
X198412239Y-100173819D01*
X198650172Y-99916709D01*
X198946998Y-99718268D01*
X198999557Y-99692397D01*
X199336488Y-99577449D01*
X199676809Y-99541518D01*
X200009477Y-99580194D01*
G37*
%TD.AperFunction*%
X200070946Y-75006522D02*
X200385794Y-75133122D01*
X200674519Y-75333197D01*
X200752929Y-75406245D01*
X200954376Y-75654510D01*
X201097953Y-75945320D01*
X201188374Y-76289878D01*
X201217495Y-76509903D01*
X201258183Y-76809051D01*
X201323230Y-77048958D01*
X201422712Y-77253840D01*
X201566704Y-77447911D01*
X201642803Y-77531942D01*
X201908473Y-77756813D01*
X202209392Y-77913905D01*
X202531756Y-77999158D01*
X202861759Y-78008509D01*
X203107425Y-77962856D01*
X203441200Y-77827182D01*
X203731566Y-77627196D01*
X203967213Y-77372537D01*
X204128398Y-77092666D01*
X204160667Y-76988552D01*
X204196517Y-76825521D01*
X204230833Y-76628873D01*
X204250988Y-76486446D01*
X204315696Y-76129206D01*
X204414740Y-75835517D01*
X204555957Y-75588515D01*
X204747188Y-75371337D01*
X204786024Y-75335459D01*
X205049193Y-75143349D01*
X205338601Y-75021935D01*
X205669018Y-74965868D01*
X205821012Y-74960523D01*
X206004497Y-74963840D01*
X206142208Y-74980416D01*
X206270143Y-75018741D01*
X206424301Y-75087304D01*
X206485475Y-75117228D01*
X206759812Y-75280646D01*
X206974865Y-75477505D01*
X207151122Y-75728545D01*
X207222602Y-75863422D01*
X207271123Y-75967969D01*
X207303568Y-76061253D01*
X207322988Y-76164101D01*
X207332431Y-76297339D01*
X207334946Y-76481795D01*
X207334390Y-76627000D01*
X207288694Y-77228384D01*
X207161140Y-77815837D01*
X206954198Y-78383024D01*
X206670335Y-78923611D01*
X206312019Y-79431262D01*
X206181339Y-79586515D01*
X205817243Y-79946831D01*
X205389312Y-80277233D01*
X204916347Y-80566238D01*
X204417147Y-80802363D01*
X203910514Y-80974124D01*
X203908833Y-80974576D01*
X203743340Y-81017035D01*
X203598848Y-81047519D01*
X203455342Y-81068001D01*
X203292809Y-81080454D01*
X203091233Y-81086852D01*
X202830601Y-81089167D01*
X202744667Y-81089352D01*
X202419539Y-81087113D01*
X202156322Y-81076969D01*
X201932363Y-81055216D01*
X201725008Y-81018150D01*
X201511606Y-80962067D01*
X201269504Y-80883265D01*
X201086264Y-80818194D01*
X200599425Y-80602508D01*
X200116459Y-80311173D01*
X199900756Y-80154864D01*
X199660345Y-79971010D01*
X199350422Y-80204772D01*
X199075336Y-80390407D01*
X198749571Y-80575634D01*
X198405510Y-80743631D01*
X198075536Y-80877578D01*
X198014839Y-80898548D01*
X197589275Y-81010068D01*
X197116809Y-81081381D01*
X196625890Y-81110886D01*
X196144969Y-81096980D01*
X195702497Y-81038062D01*
X195666857Y-81030776D01*
X195410674Y-80973770D01*
X195205695Y-80919140D01*
X195019449Y-80856356D01*
X194819465Y-80774882D01*
X194662452Y-80704972D01*
X194123574Y-80414746D01*
X193633572Y-80058594D01*
X193196942Y-79642691D01*
X192818176Y-79173212D01*
X192501766Y-78656331D01*
X192252207Y-78098222D01*
X192073991Y-77505060D01*
X191988460Y-77030270D01*
X191960201Y-76593698D01*
X191996467Y-76209119D01*
X192098331Y-75872468D01*
X192266866Y-75579682D01*
X192417404Y-75406245D01*
X192696181Y-75184452D01*
X193004552Y-75036224D01*
X193330744Y-74961253D01*
X193662988Y-74959232D01*
X193989510Y-75029850D01*
X194298539Y-75172800D01*
X194578305Y-75387774D01*
X194653475Y-75464847D01*
X194837016Y-75706001D01*
X194963276Y-75972553D01*
X195040268Y-76284388D01*
X195064772Y-76485286D01*
X195127253Y-76869981D01*
X195244372Y-77194411D01*
X195420129Y-77466166D01*
X195658525Y-77692835D01*
X195727655Y-77742849D01*
X196037925Y-77907501D01*
X196367174Y-77994742D01*
X196702841Y-78005735D01*
X197032365Y-77941642D01*
X197343186Y-77803625D01*
X197622743Y-77592847D01*
X197651483Y-77564832D01*
X197843418Y-77332491D01*
X197978413Y-77069689D01*
X198063941Y-76759073D01*
X198095541Y-76533486D01*
X198146188Y-76194805D01*
X198228030Y-75917253D01*
X198349071Y-75680534D01*
X198516858Y-75464847D01*
X198785751Y-75228700D01*
X199087377Y-75064486D01*
X199409966Y-74972513D01*
X199741746Y-74953089D01*
X200070946Y-75006522D01*
%TA.AperFunction,EtchedComponent*%
G36*
X200070946Y-75006522D02*
G01*
X200385794Y-75133122D01*
X200674519Y-75333197D01*
X200752929Y-75406245D01*
X200954376Y-75654510D01*
X201097953Y-75945320D01*
X201188374Y-76289878D01*
X201217495Y-76509903D01*
X201258183Y-76809051D01*
X201323230Y-77048958D01*
X201422712Y-77253840D01*
X201566704Y-77447911D01*
X201642803Y-77531942D01*
X201908473Y-77756813D01*
X202209392Y-77913905D01*
X202531756Y-77999158D01*
X202861759Y-78008509D01*
X203107425Y-77962856D01*
X203441200Y-77827182D01*
X203731566Y-77627196D01*
X203967213Y-77372537D01*
X204128398Y-77092666D01*
X204160667Y-76988552D01*
X204196517Y-76825521D01*
X204230833Y-76628873D01*
X204250988Y-76486446D01*
X204315696Y-76129206D01*
X204414740Y-75835517D01*
X204555957Y-75588515D01*
X204747188Y-75371337D01*
X204786024Y-75335459D01*
X205049193Y-75143349D01*
X205338601Y-75021935D01*
X205669018Y-74965868D01*
X205821012Y-74960523D01*
X206004497Y-74963840D01*
X206142208Y-74980416D01*
X206270143Y-75018741D01*
X206424301Y-75087304D01*
X206485475Y-75117228D01*
X206759812Y-75280646D01*
X206974865Y-75477505D01*
X207151122Y-75728545D01*
X207222602Y-75863422D01*
X207271123Y-75967969D01*
X207303568Y-76061253D01*
X207322988Y-76164101D01*
X207332431Y-76297339D01*
X207334946Y-76481795D01*
X207334390Y-76627000D01*
X207288694Y-77228384D01*
X207161140Y-77815837D01*
X206954198Y-78383024D01*
X206670335Y-78923611D01*
X206312019Y-79431262D01*
X206181339Y-79586515D01*
X205817243Y-79946831D01*
X205389312Y-80277233D01*
X204916347Y-80566238D01*
X204417147Y-80802363D01*
X203910514Y-80974124D01*
X203908833Y-80974576D01*
X203743340Y-81017035D01*
X203598848Y-81047519D01*
X203455342Y-81068001D01*
X203292809Y-81080454D01*
X203091233Y-81086852D01*
X202830601Y-81089167D01*
X202744667Y-81089352D01*
X202419539Y-81087113D01*
X202156322Y-81076969D01*
X201932363Y-81055216D01*
X201725008Y-81018150D01*
X201511606Y-80962067D01*
X201269504Y-80883265D01*
X201086264Y-80818194D01*
X200599425Y-80602508D01*
X200116459Y-80311173D01*
X199900756Y-80154864D01*
X199660345Y-79971010D01*
X199350422Y-80204772D01*
X199075336Y-80390407D01*
X198749571Y-80575634D01*
X198405510Y-80743631D01*
X198075536Y-80877578D01*
X198014839Y-80898548D01*
X197589275Y-81010068D01*
X197116809Y-81081381D01*
X196625890Y-81110886D01*
X196144969Y-81096980D01*
X195702497Y-81038062D01*
X195666857Y-81030776D01*
X195410674Y-80973770D01*
X195205695Y-80919140D01*
X195019449Y-80856356D01*
X194819465Y-80774882D01*
X194662452Y-80704972D01*
X194123574Y-80414746D01*
X193633572Y-80058594D01*
X193196942Y-79642691D01*
X192818176Y-79173212D01*
X192501766Y-78656331D01*
X192252207Y-78098222D01*
X192073991Y-77505060D01*
X191988460Y-77030270D01*
X191960201Y-76593698D01*
X191996467Y-76209119D01*
X192098331Y-75872468D01*
X192266866Y-75579682D01*
X192417404Y-75406245D01*
X192696181Y-75184452D01*
X193004552Y-75036224D01*
X193330744Y-74961253D01*
X193662988Y-74959232D01*
X193989510Y-75029850D01*
X194298539Y-75172800D01*
X194578305Y-75387774D01*
X194653475Y-75464847D01*
X194837016Y-75706001D01*
X194963276Y-75972553D01*
X195040268Y-76284388D01*
X195064772Y-76485286D01*
X195127253Y-76869981D01*
X195244372Y-77194411D01*
X195420129Y-77466166D01*
X195658525Y-77692835D01*
X195727655Y-77742849D01*
X196037925Y-77907501D01*
X196367174Y-77994742D01*
X196702841Y-78005735D01*
X197032365Y-77941642D01*
X197343186Y-77803625D01*
X197622743Y-77592847D01*
X197651483Y-77564832D01*
X197843418Y-77332491D01*
X197978413Y-77069689D01*
X198063941Y-76759073D01*
X198095541Y-76533486D01*
X198146188Y-76194805D01*
X198228030Y-75917253D01*
X198349071Y-75680534D01*
X198516858Y-75464847D01*
X198785751Y-75228700D01*
X199087377Y-75064486D01*
X199409966Y-74972513D01*
X199741746Y-74953089D01*
X200070946Y-75006522D01*
G37*
%TD.AperFunction*%
X202931876Y-87276685D02*
X203082761Y-87288312D01*
X203203226Y-87313319D01*
X203320344Y-87356312D01*
X203387985Y-87386871D01*
X203692813Y-87573236D01*
X203935767Y-87817071D01*
X204116159Y-88117326D01*
X204233300Y-88472947D01*
X204276208Y-88743179D01*
X204304339Y-88948673D01*
X204344880Y-89154177D01*
X204390083Y-89321722D01*
X204400171Y-89350487D01*
X204525040Y-89589196D01*
X204709636Y-89821734D01*
X204931080Y-90023352D01*
X205149619Y-90161210D01*
X205276980Y-90218755D01*
X205391290Y-90254094D01*
X205520882Y-90272439D01*
X205694088Y-90279002D01*
X205792667Y-90279500D01*
X205997902Y-90276150D01*
X206147446Y-90262725D01*
X206270122Y-90234160D01*
X206394757Y-90185390D01*
X206435985Y-90166462D01*
X206740809Y-89980242D01*
X206983228Y-89737147D01*
X207162461Y-89438360D01*
X207277729Y-89085066D01*
X207317754Y-88829051D01*
X207339690Y-88641268D01*
X207365548Y-88468898D01*
X207390651Y-88342052D01*
X207397142Y-88318016D01*
X207528953Y-88023246D01*
X207733877Y-87754185D01*
X208001517Y-87522609D01*
X208214730Y-87392188D01*
X208328525Y-87336965D01*
X208431578Y-87302234D01*
X208549511Y-87283329D01*
X208707945Y-87275580D01*
X208861833Y-87274288D01*
X209070363Y-87276929D01*
X209221260Y-87288397D01*
X209341450Y-87313217D01*
X209457856Y-87355912D01*
X209523080Y-87385388D01*
X209829425Y-87574164D01*
X210080798Y-87823096D01*
X210269357Y-88122006D01*
X210387263Y-88460715D01*
X210400173Y-88524005D01*
X210417536Y-88704579D01*
X210418095Y-88941295D01*
X210403451Y-89207655D01*
X210375208Y-89477159D01*
X210334969Y-89723308D01*
X210324710Y-89771500D01*
X210160118Y-90332278D01*
X209925207Y-90874013D01*
X209628241Y-91382835D01*
X209277484Y-91844873D01*
X208881200Y-92246259D01*
X208817592Y-92301008D01*
X208318957Y-92668407D01*
X207787917Y-92962782D01*
X207231966Y-93183919D01*
X206658595Y-93331601D01*
X206075298Y-93405613D01*
X205489566Y-93405740D01*
X204908893Y-93331765D01*
X204340769Y-93183474D01*
X203792689Y-92960650D01*
X203272143Y-92663077D01*
X203001494Y-92468405D01*
X202733794Y-92260378D01*
X202432314Y-92489089D01*
X201974972Y-92788616D01*
X201464441Y-93038692D01*
X200921446Y-93231160D01*
X200366710Y-93357862D01*
X200148178Y-93388079D01*
X199875439Y-93414669D01*
X199650742Y-93425588D01*
X199438912Y-93420754D01*
X199204772Y-93400087D01*
X199082833Y-93385608D01*
X198726021Y-93321278D01*
X198337144Y-93217563D01*
X197952379Y-93085195D01*
X197678567Y-92969044D01*
X197159960Y-92680724D01*
X196676180Y-92321664D01*
X196238598Y-91902476D01*
X195858583Y-91433770D01*
X195606202Y-91034837D01*
X195425892Y-90666985D01*
X195277861Y-90272823D01*
X195164135Y-89866210D01*
X195086740Y-89461003D01*
X195047701Y-89071061D01*
X195049045Y-88710241D01*
X195092796Y-88392401D01*
X195180981Y-88131399D01*
X195181606Y-88130119D01*
X195368161Y-87839399D01*
X195616786Y-87588931D01*
X195907301Y-87398888D01*
X195918864Y-87393144D01*
X196042584Y-87336794D01*
X196152698Y-87301487D01*
X196275924Y-87282440D01*
X196438980Y-87274868D01*
X196585167Y-87273833D01*
X196791222Y-87276461D01*
X196939132Y-87287430D01*
X197055337Y-87311364D01*
X197166278Y-87352890D01*
X197242744Y-87388876D01*
X197405211Y-87485683D01*
X197576446Y-87613624D01*
X197677828Y-87704757D01*
X197857334Y-87913906D01*
X197986033Y-88139507D01*
X198072886Y-88402483D01*
X198126855Y-88723758D01*
X198131120Y-88763084D01*
X198205710Y-89160878D01*
X198339216Y-89506039D01*
X198527728Y-89794282D01*
X198767338Y-90021320D01*
X199054136Y-90182867D01*
X199384213Y-90274637D01*
X199524265Y-90290621D01*
X199868291Y-90284517D01*
X200175956Y-90210068D01*
X200467121Y-90062230D01*
X200494384Y-90044360D01*
X200740828Y-89846617D01*
X200926942Y-89617499D01*
X201059378Y-89344595D01*
X201144786Y-89015492D01*
X201177931Y-88768683D01*
X201238707Y-88407018D01*
X201348947Y-88103157D01*
X201515588Y-87841690D01*
X201670391Y-87674803D01*
X201871660Y-87501562D01*
X202059762Y-87384524D01*
X202259991Y-87314058D01*
X202497641Y-87280533D01*
X202723500Y-87273833D01*
X202931876Y-87276685D01*
%TA.AperFunction,EtchedComponent*%
G36*
X202931876Y-87276685D02*
G01*
X203082761Y-87288312D01*
X203203226Y-87313319D01*
X203320344Y-87356312D01*
X203387985Y-87386871D01*
X203692813Y-87573236D01*
X203935767Y-87817071D01*
X204116159Y-88117326D01*
X204233300Y-88472947D01*
X204276208Y-88743179D01*
X204304339Y-88948673D01*
X204344880Y-89154177D01*
X204390083Y-89321722D01*
X204400171Y-89350487D01*
X204525040Y-89589196D01*
X204709636Y-89821734D01*
X204931080Y-90023352D01*
X205149619Y-90161210D01*
X205276980Y-90218755D01*
X205391290Y-90254094D01*
X205520882Y-90272439D01*
X205694088Y-90279002D01*
X205792667Y-90279500D01*
X205997902Y-90276150D01*
X206147446Y-90262725D01*
X206270122Y-90234160D01*
X206394757Y-90185390D01*
X206435985Y-90166462D01*
X206740809Y-89980242D01*
X206983228Y-89737147D01*
X207162461Y-89438360D01*
X207277729Y-89085066D01*
X207317754Y-88829051D01*
X207339690Y-88641268D01*
X207365548Y-88468898D01*
X207390651Y-88342052D01*
X207397142Y-88318016D01*
X207528953Y-88023246D01*
X207733877Y-87754185D01*
X208001517Y-87522609D01*
X208214730Y-87392188D01*
X208328525Y-87336965D01*
X208431578Y-87302234D01*
X208549511Y-87283329D01*
X208707945Y-87275580D01*
X208861833Y-87274288D01*
X209070363Y-87276929D01*
X209221260Y-87288397D01*
X209341450Y-87313217D01*
X209457856Y-87355912D01*
X209523080Y-87385388D01*
X209829425Y-87574164D01*
X210080798Y-87823096D01*
X210269357Y-88122006D01*
X210387263Y-88460715D01*
X210400173Y-88524005D01*
X210417536Y-88704579D01*
X210418095Y-88941295D01*
X210403451Y-89207655D01*
X210375208Y-89477159D01*
X210334969Y-89723308D01*
X210324710Y-89771500D01*
X210160118Y-90332278D01*
X209925207Y-90874013D01*
X209628241Y-91382835D01*
X209277484Y-91844873D01*
X208881200Y-92246259D01*
X208817592Y-92301008D01*
X208318957Y-92668407D01*
X207787917Y-92962782D01*
X207231966Y-93183919D01*
X206658595Y-93331601D01*
X206075298Y-93405613D01*
X205489566Y-93405740D01*
X204908893Y-93331765D01*
X204340769Y-93183474D01*
X203792689Y-92960650D01*
X203272143Y-92663077D01*
X203001494Y-92468405D01*
X202733794Y-92260378D01*
X202432314Y-92489089D01*
X201974972Y-92788616D01*
X201464441Y-93038692D01*
X200921446Y-93231160D01*
X200366710Y-93357862D01*
X200148178Y-93388079D01*
X199875439Y-93414669D01*
X199650742Y-93425588D01*
X199438912Y-93420754D01*
X199204772Y-93400087D01*
X199082833Y-93385608D01*
X198726021Y-93321278D01*
X198337144Y-93217563D01*
X197952379Y-93085195D01*
X197678567Y-92969044D01*
X197159960Y-92680724D01*
X196676180Y-92321664D01*
X196238598Y-91902476D01*
X195858583Y-91433770D01*
X195606202Y-91034837D01*
X195425892Y-90666985D01*
X195277861Y-90272823D01*
X195164135Y-89866210D01*
X195086740Y-89461003D01*
X195047701Y-89071061D01*
X195049045Y-88710241D01*
X195092796Y-88392401D01*
X195180981Y-88131399D01*
X195181606Y-88130119D01*
X195368161Y-87839399D01*
X195616786Y-87588931D01*
X195907301Y-87398888D01*
X195918864Y-87393144D01*
X196042584Y-87336794D01*
X196152698Y-87301487D01*
X196275924Y-87282440D01*
X196438980Y-87274868D01*
X196585167Y-87273833D01*
X196791222Y-87276461D01*
X196939132Y-87287430D01*
X197055337Y-87311364D01*
X197166278Y-87352890D01*
X197242744Y-87388876D01*
X197405211Y-87485683D01*
X197576446Y-87613624D01*
X197677828Y-87704757D01*
X197857334Y-87913906D01*
X197986033Y-88139507D01*
X198072886Y-88402483D01*
X198126855Y-88723758D01*
X198131120Y-88763084D01*
X198205710Y-89160878D01*
X198339216Y-89506039D01*
X198527728Y-89794282D01*
X198767338Y-90021320D01*
X199054136Y-90182867D01*
X199384213Y-90274637D01*
X199524265Y-90290621D01*
X199868291Y-90284517D01*
X200175956Y-90210068D01*
X200467121Y-90062230D01*
X200494384Y-90044360D01*
X200740828Y-89846617D01*
X200926942Y-89617499D01*
X201059378Y-89344595D01*
X201144786Y-89015492D01*
X201177931Y-88768683D01*
X201238707Y-88407018D01*
X201348947Y-88103157D01*
X201515588Y-87841690D01*
X201670391Y-87674803D01*
X201871660Y-87501562D01*
X202059762Y-87384524D01*
X202259991Y-87314058D01*
X202497641Y-87280533D01*
X202723500Y-87273833D01*
X202931876Y-87276685D01*
G37*
%TD.AperFunction*%
X223881319Y-80124588D02*
X224031602Y-80140777D01*
X224159476Y-80174373D01*
X224295958Y-80231015D01*
X224301565Y-80233621D01*
X224585309Y-80405384D01*
X224837749Y-80634086D01*
X225035621Y-80897513D01*
X225078643Y-80975583D01*
X225136581Y-81097864D01*
X225173065Y-81204666D01*
X225192960Y-81322319D01*
X225201133Y-81477155D01*
X225202500Y-81645838D01*
X225201256Y-81837611D01*
X225192996Y-81976816D01*
X225170924Y-82091409D01*
X225128248Y-82209344D01*
X225058171Y-82358578D01*
X225001870Y-82471338D01*
X224873096Y-82746602D01*
X224768987Y-83015804D01*
X224685796Y-83295144D01*
X224619771Y-83600823D01*
X224567166Y-83949044D01*
X224524230Y-84356006D01*
X224501726Y-84632765D01*
X224474166Y-85446051D01*
X224507590Y-86301629D01*
X224599960Y-87185252D01*
X224749236Y-88082675D01*
X224953381Y-88979651D01*
X225210356Y-89861934D01*
X225279814Y-90070350D01*
X225880590Y-91720999D01*
X226532825Y-93307967D01*
X227236053Y-94830398D01*
X227989811Y-96287439D01*
X228793633Y-97678234D01*
X229647055Y-99001930D01*
X230549614Y-100257671D01*
X231389679Y-101312460D01*
X231680757Y-101650096D01*
X232017469Y-102022915D01*
X232384541Y-102415192D01*
X232766697Y-102811204D01*
X233148663Y-103195226D01*
X233515165Y-103551537D01*
X233850926Y-103864411D01*
X233986667Y-103985741D01*
X235055264Y-104873967D01*
X236163148Y-105692600D01*
X237312202Y-106442446D01*
X238504312Y-107124310D01*
X239741363Y-107738995D01*
X241025239Y-108287307D01*
X242357827Y-108770049D01*
X243741011Y-109188028D01*
X245176675Y-109542047D01*
X246666706Y-109832911D01*
X248212988Y-110061425D01*
X248223098Y-110062692D01*
X248374235Y-110079575D01*
X248457628Y-110081321D01*
X248489161Y-110066041D01*
X248484713Y-110031846D01*
X248484616Y-110031597D01*
X248464070Y-109976250D01*
X248418375Y-109851640D01*
X248351293Y-109668081D01*
X248266589Y-109435887D01*
X248168027Y-109165370D01*
X248059371Y-108866845D01*
X248013035Y-108739456D01*
X247288811Y-106792031D01*
X246550933Y-104894505D01*
X245800753Y-103049594D01*
X245039623Y-101260009D01*
X244268895Y-99528465D01*
X243489921Y-97857674D01*
X242704054Y-96250350D01*
X241912646Y-94709207D01*
X241117049Y-93236958D01*
X240318615Y-91836315D01*
X239518695Y-90509994D01*
X238718644Y-89260706D01*
X237919811Y-88091166D01*
X237295049Y-87231500D01*
X236910658Y-86724413D01*
X236548829Y-86262258D01*
X236187851Y-85817800D01*
X235810989Y-85369627D01*
X235600747Y-85116514D01*
X235443432Y-84906764D01*
X235331704Y-84724269D01*
X235258225Y-84552921D01*
X235215657Y-84376613D01*
X235196662Y-84179237D01*
X235193463Y-84014166D01*
X235195962Y-83810723D01*
X235206403Y-83665355D01*
X235229705Y-83551527D01*
X235270790Y-83442701D01*
X235317320Y-83346250D01*
X235494930Y-83077357D01*
X235733734Y-82836814D01*
X236010482Y-82646819D01*
X236094102Y-82604538D01*
X236236252Y-82545365D01*
X236367450Y-82511369D01*
X236521028Y-82496439D01*
X236696000Y-82494187D01*
X237012844Y-82514899D01*
X237276428Y-82579614D01*
X237511153Y-82698611D01*
X237741421Y-82882169D01*
X237836409Y-82974614D01*
X238028950Y-83180468D01*
X238261848Y-83446883D01*
X238527767Y-83764464D01*
X238819371Y-84123815D01*
X239129324Y-84515543D01*
X239450292Y-84930251D01*
X239774936Y-85358545D01*
X240095923Y-85791031D01*
X240405916Y-86218311D01*
X240697578Y-86630993D01*
X240747103Y-86702333D01*
X241573663Y-87936999D01*
X242401020Y-89253138D01*
X243227692Y-90647586D01*
X244052195Y-92117180D01*
X244873048Y-93658756D01*
X245688768Y-95269151D01*
X246497871Y-96945202D01*
X247298877Y-98683744D01*
X248090302Y-100481615D01*
X248870664Y-102335652D01*
X249638480Y-104242690D01*
X250392268Y-106199566D01*
X251130545Y-108203117D01*
X251851829Y-110250180D01*
X252039704Y-110798870D01*
X252130802Y-111071405D01*
X252196210Y-111281592D01*
X252239959Y-111446361D01*
X252266077Y-111582642D01*
X252278595Y-111707367D01*
X252281545Y-111814870D01*
X252245168Y-112179777D01*
X252134159Y-112505177D01*
X251949780Y-112789101D01*
X251693290Y-113029580D01*
X251385667Y-113215181D01*
X251247300Y-113278468D01*
X251129257Y-113318547D01*
X251003291Y-113341080D01*
X250841154Y-113351732D01*
X250687167Y-113355207D01*
X250477680Y-113356335D01*
X250273807Y-113354074D01*
X250107610Y-113348906D01*
X250052167Y-113345650D01*
X249113542Y-113269375D01*
X248245663Y-113185471D01*
X247434795Y-113091880D01*
X246667199Y-112986540D01*
X245929139Y-112867393D01*
X245206878Y-112732378D01*
X244486679Y-112579436D01*
X243754806Y-112406506D01*
X243702167Y-112393446D01*
X242204207Y-111983144D01*
X240762277Y-111511072D01*
X239372499Y-110975289D01*
X238030995Y-110373854D01*
X236733886Y-109704827D01*
X235477295Y-108966266D01*
X234257344Y-108156231D01*
X233070155Y-107272780D01*
X232420089Y-106746835D01*
X232145011Y-106509500D01*
X231826150Y-106220490D01*
X231475559Y-105891777D01*
X231105288Y-105535333D01*
X230727387Y-105163133D01*
X230353909Y-104787147D01*
X229996905Y-104419350D01*
X229668424Y-104071713D01*
X229380520Y-103756209D01*
X229189042Y-103536795D01*
X228255658Y-102386979D01*
X227372302Y-101192816D01*
X226536472Y-99949836D01*
X225745666Y-98653572D01*
X224997381Y-97299553D01*
X224289116Y-95883313D01*
X223618367Y-94400380D01*
X222982632Y-92846288D01*
X222535975Y-91655333D01*
X222357877Y-91149749D01*
X222208810Y-90695164D01*
X222081381Y-90266141D01*
X221968201Y-89837247D01*
X221861879Y-89383046D01*
X221820863Y-89194434D01*
X221597956Y-87992085D01*
X221450697Y-86826658D01*
X221378984Y-85697253D01*
X221371333Y-85200053D01*
X221390499Y-84404258D01*
X221448924Y-83677060D01*
X221548001Y-83011331D01*
X221689122Y-82399940D01*
X221873680Y-81835760D01*
X222103065Y-81311660D01*
X222147870Y-81223629D01*
X222326126Y-80908766D01*
X222500821Y-80663366D01*
X222684248Y-80473723D01*
X222888701Y-80326129D01*
X223013619Y-80258377D01*
X223160716Y-80190030D01*
X223281684Y-80148671D01*
X223408137Y-80127721D01*
X223571694Y-80120598D01*
X223677610Y-80120165D01*
X223881319Y-80124588D01*
%TA.AperFunction,EtchedComponent*%
G36*
X223881319Y-80124588D02*
G01*
X224031602Y-80140777D01*
X224159476Y-80174373D01*
X224295958Y-80231015D01*
X224301565Y-80233621D01*
X224585309Y-80405384D01*
X224837749Y-80634086D01*
X225035621Y-80897513D01*
X225078643Y-80975583D01*
X225136581Y-81097864D01*
X225173065Y-81204666D01*
X225192960Y-81322319D01*
X225201133Y-81477155D01*
X225202500Y-81645838D01*
X225201256Y-81837611D01*
X225192996Y-81976816D01*
X225170924Y-82091409D01*
X225128248Y-82209344D01*
X225058171Y-82358578D01*
X225001870Y-82471338D01*
X224873096Y-82746602D01*
X224768987Y-83015804D01*
X224685796Y-83295144D01*
X224619771Y-83600823D01*
X224567166Y-83949044D01*
X224524230Y-84356006D01*
X224501726Y-84632765D01*
X224474166Y-85446051D01*
X224507590Y-86301629D01*
X224599960Y-87185252D01*
X224749236Y-88082675D01*
X224953381Y-88979651D01*
X225210356Y-89861934D01*
X225279814Y-90070350D01*
X225880590Y-91720999D01*
X226532825Y-93307967D01*
X227236053Y-94830398D01*
X227989811Y-96287439D01*
X228793633Y-97678234D01*
X229647055Y-99001930D01*
X230549614Y-100257671D01*
X231389679Y-101312460D01*
X231680757Y-101650096D01*
X232017469Y-102022915D01*
X232384541Y-102415192D01*
X232766697Y-102811204D01*
X233148663Y-103195226D01*
X233515165Y-103551537D01*
X233850926Y-103864411D01*
X233986667Y-103985741D01*
X235055264Y-104873967D01*
X236163148Y-105692600D01*
X237312202Y-106442446D01*
X238504312Y-107124310D01*
X239741363Y-107738995D01*
X241025239Y-108287307D01*
X242357827Y-108770049D01*
X243741011Y-109188028D01*
X245176675Y-109542047D01*
X246666706Y-109832911D01*
X248212988Y-110061425D01*
X248223098Y-110062692D01*
X248374235Y-110079575D01*
X248457628Y-110081321D01*
X248489161Y-110066041D01*
X248484713Y-110031846D01*
X248484616Y-110031597D01*
X248464070Y-109976250D01*
X248418375Y-109851640D01*
X248351293Y-109668081D01*
X248266589Y-109435887D01*
X248168027Y-109165370D01*
X248059371Y-108866845D01*
X248013035Y-108739456D01*
X247288811Y-106792031D01*
X246550933Y-104894505D01*
X245800753Y-103049594D01*
X245039623Y-101260009D01*
X244268895Y-99528465D01*
X243489921Y-97857674D01*
X242704054Y-96250350D01*
X241912646Y-94709207D01*
X241117049Y-93236958D01*
X240318615Y-91836315D01*
X239518695Y-90509994D01*
X238718644Y-89260706D01*
X237919811Y-88091166D01*
X237295049Y-87231500D01*
X236910658Y-86724413D01*
X236548829Y-86262258D01*
X236187851Y-85817800D01*
X235810989Y-85369627D01*
X235600747Y-85116514D01*
X235443432Y-84906764D01*
X235331704Y-84724269D01*
X235258225Y-84552921D01*
X235215657Y-84376613D01*
X235196662Y-84179237D01*
X235193463Y-84014166D01*
X235195962Y-83810723D01*
X235206403Y-83665355D01*
X235229705Y-83551527D01*
X235270790Y-83442701D01*
X235317320Y-83346250D01*
X235494930Y-83077357D01*
X235733734Y-82836814D01*
X236010482Y-82646819D01*
X236094102Y-82604538D01*
X236236252Y-82545365D01*
X236367450Y-82511369D01*
X236521028Y-82496439D01*
X236696000Y-82494187D01*
X237012844Y-82514899D01*
X237276428Y-82579614D01*
X237511153Y-82698611D01*
X237741421Y-82882169D01*
X237836409Y-82974614D01*
X238028950Y-83180468D01*
X238261848Y-83446883D01*
X238527767Y-83764464D01*
X238819371Y-84123815D01*
X239129324Y-84515543D01*
X239450292Y-84930251D01*
X239774936Y-85358545D01*
X240095923Y-85791031D01*
X240405916Y-86218311D01*
X240697578Y-86630993D01*
X240747103Y-86702333D01*
X241573663Y-87936999D01*
X242401020Y-89253138D01*
X243227692Y-90647586D01*
X244052195Y-92117180D01*
X244873048Y-93658756D01*
X245688768Y-95269151D01*
X246497871Y-96945202D01*
X247298877Y-98683744D01*
X248090302Y-100481615D01*
X248870664Y-102335652D01*
X249638480Y-104242690D01*
X250392268Y-106199566D01*
X251130545Y-108203117D01*
X251851829Y-110250180D01*
X252039704Y-110798870D01*
X252130802Y-111071405D01*
X252196210Y-111281592D01*
X252239959Y-111446361D01*
X252266077Y-111582642D01*
X252278595Y-111707367D01*
X252281545Y-111814870D01*
X252245168Y-112179777D01*
X252134159Y-112505177D01*
X251949780Y-112789101D01*
X251693290Y-113029580D01*
X251385667Y-113215181D01*
X251247300Y-113278468D01*
X251129257Y-113318547D01*
X251003291Y-113341080D01*
X250841154Y-113351732D01*
X250687167Y-113355207D01*
X250477680Y-113356335D01*
X250273807Y-113354074D01*
X250107610Y-113348906D01*
X250052167Y-113345650D01*
X249113542Y-113269375D01*
X248245663Y-113185471D01*
X247434795Y-113091880D01*
X246667199Y-112986540D01*
X245929139Y-112867393D01*
X245206878Y-112732378D01*
X244486679Y-112579436D01*
X243754806Y-112406506D01*
X243702167Y-112393446D01*
X242204207Y-111983144D01*
X240762277Y-111511072D01*
X239372499Y-110975289D01*
X238030995Y-110373854D01*
X236733886Y-109704827D01*
X235477295Y-108966266D01*
X234257344Y-108156231D01*
X233070155Y-107272780D01*
X232420089Y-106746835D01*
X232145011Y-106509500D01*
X231826150Y-106220490D01*
X231475559Y-105891777D01*
X231105288Y-105535333D01*
X230727387Y-105163133D01*
X230353909Y-104787147D01*
X229996905Y-104419350D01*
X229668424Y-104071713D01*
X229380520Y-103756209D01*
X229189042Y-103536795D01*
X228255658Y-102386979D01*
X227372302Y-101192816D01*
X226536472Y-99949836D01*
X225745666Y-98653572D01*
X224997381Y-97299553D01*
X224289116Y-95883313D01*
X223618367Y-94400380D01*
X222982632Y-92846288D01*
X222535975Y-91655333D01*
X222357877Y-91149749D01*
X222208810Y-90695164D01*
X222081381Y-90266141D01*
X221968201Y-89837247D01*
X221861879Y-89383046D01*
X221820863Y-89194434D01*
X221597956Y-87992085D01*
X221450697Y-86826658D01*
X221378984Y-85697253D01*
X221371333Y-85200053D01*
X221390499Y-84404258D01*
X221448924Y-83677060D01*
X221548001Y-83011331D01*
X221689122Y-82399940D01*
X221873680Y-81835760D01*
X222103065Y-81311660D01*
X222147870Y-81223629D01*
X222326126Y-80908766D01*
X222500821Y-80663366D01*
X222684248Y-80473723D01*
X222888701Y-80326129D01*
X223013619Y-80258377D01*
X223160716Y-80190030D01*
X223281684Y-80148671D01*
X223408137Y-80127721D01*
X223571694Y-80120598D01*
X223677610Y-80120165D01*
X223881319Y-80124588D01*
G37*
%TD.AperFunction*%
X236736514Y-30422590D02*
X236886733Y-30432107D01*
X237002306Y-30453226D01*
X237108211Y-30490154D01*
X237204284Y-30534658D01*
X237397089Y-30644805D01*
X237568639Y-30779791D01*
X237726839Y-30950051D01*
X237879595Y-31166017D01*
X238034809Y-31438123D01*
X238200386Y-31776803D01*
X238281878Y-31957081D01*
X238622946Y-32818161D01*
X238893980Y-33708002D01*
X239099236Y-34640796D01*
X239117227Y-34742278D01*
X239148389Y-34933642D01*
X239172060Y-35112295D01*
X239189223Y-35294794D01*
X239200858Y-35497694D01*
X239207949Y-35737549D01*
X239211478Y-36030915D01*
X239212416Y-36346833D01*
X239211618Y-36697398D01*
X239208233Y-36979236D01*
X239201318Y-37208268D01*
X239189931Y-37400418D01*
X239173129Y-37571610D01*
X239149969Y-37737764D01*
X239119610Y-37914249D01*
X238919761Y-38784328D01*
X238645889Y-39614893D01*
X238296872Y-40408135D01*
X237871588Y-41166244D01*
X237368916Y-41891411D01*
X236787734Y-42585827D01*
X236654741Y-42728866D01*
X236283912Y-43120698D01*
X236493967Y-43353265D01*
X236667191Y-43555704D01*
X236869702Y-43809424D01*
X237086145Y-44093766D01*
X237301169Y-44388068D01*
X237499419Y-44671670D01*
X237665544Y-44923910D01*
X237689164Y-44961666D01*
X238190281Y-45848103D01*
X238622107Y-46775809D01*
X238981448Y-47735397D01*
X239265111Y-48717479D01*
X239469901Y-49712668D01*
X239573748Y-50501235D01*
X239578906Y-50597299D01*
X239583750Y-50777265D01*
X239588278Y-51040368D01*
X239592487Y-51385844D01*
X239596374Y-51812928D01*
X239599935Y-52320857D01*
X239603168Y-52908865D01*
X239606070Y-53576190D01*
X239608637Y-54322065D01*
X239610868Y-55145727D01*
X239612757Y-56046411D01*
X239614304Y-57023353D01*
X239615504Y-58075788D01*
X239616356Y-59202953D01*
X239616854Y-60404083D01*
X239617000Y-61550862D01*
X239617000Y-72162087D01*
X240135583Y-72548605D01*
X241182891Y-73372838D01*
X242222659Y-74278800D01*
X243255157Y-75266806D01*
X244280650Y-76337169D01*
X245299409Y-77490202D01*
X246311699Y-78726219D01*
X247317789Y-80045533D01*
X248317947Y-81448458D01*
X249312441Y-82935307D01*
X250169204Y-84290809D01*
X251144468Y-85921661D01*
X252110988Y-87634212D01*
X253067645Y-89425837D01*
X254013319Y-91293912D01*
X254946891Y-93235813D01*
X255867243Y-95248916D01*
X256773254Y-97330596D01*
X257663806Y-99478229D01*
X258537780Y-101689191D01*
X259394055Y-103960858D01*
X260231513Y-106290606D01*
X261049034Y-108675810D01*
X261845500Y-111113847D01*
X262491663Y-113181833D01*
X262658492Y-113732357D01*
X262834267Y-114322629D01*
X263015193Y-114939273D01*
X263197472Y-115568913D01*
X263377307Y-116198174D01*
X263550899Y-116813680D01*
X263714452Y-117402056D01*
X263864169Y-117949927D01*
X263996251Y-118443916D01*
X264106902Y-118870648D01*
X264108176Y-118875666D01*
X264187556Y-119313551D01*
X264192949Y-119710401D01*
X264124241Y-120066552D01*
X263981315Y-120382337D01*
X263764056Y-120658093D01*
X263472350Y-120894153D01*
X263397372Y-120941274D01*
X263130381Y-121078280D01*
X262785591Y-121217057D01*
X262369810Y-121356220D01*
X261889849Y-121494385D01*
X261352514Y-121630165D01*
X260764615Y-121762177D01*
X260132961Y-121889035D01*
X259464360Y-122009355D01*
X258765621Y-122121751D01*
X258043553Y-122224838D01*
X257304965Y-122317233D01*
X256556665Y-122397549D01*
X255978833Y-122450232D01*
X255303474Y-122499859D01*
X254576562Y-122540469D01*
X253815736Y-122571757D01*
X253038634Y-122593422D01*
X252262894Y-122605160D01*
X251506154Y-122606667D01*
X250786051Y-122597642D01*
X250120225Y-122577782D01*
X249707613Y-122557941D01*
X247910410Y-122424393D01*
X246166514Y-122230804D01*
X244468104Y-121975714D01*
X242807361Y-121657666D01*
X241176466Y-121275204D01*
X239567601Y-120826869D01*
X238358391Y-120442390D01*
X237586616Y-120183896D01*
X237130725Y-120590694D01*
X236490087Y-121111687D01*
X235824035Y-121553040D01*
X235128236Y-121917110D01*
X234398359Y-122206257D01*
X233877725Y-122361977D01*
X233812075Y-122379822D01*
X233753231Y-122396757D01*
X233698961Y-122412808D01*
X233647035Y-122427998D01*
X233595223Y-122442350D01*
X233541293Y-122455888D01*
X233483016Y-122468636D01*
X233418160Y-122480616D01*
X233344495Y-122491853D01*
X233259791Y-122502370D01*
X233161816Y-122512191D01*
X233048341Y-122521339D01*
X232917134Y-122529838D01*
X232765966Y-122537711D01*
X232592604Y-122544982D01*
X232394820Y-122551674D01*
X232170382Y-122557811D01*
X231917060Y-122563417D01*
X231632623Y-122568515D01*
X231314840Y-122573128D01*
X230961481Y-122577281D01*
X230570315Y-122580996D01*
X230139112Y-122584297D01*
X229665642Y-122587209D01*
X229147672Y-122589754D01*
X228582974Y-122591955D01*
X227969316Y-122593838D01*
X227304468Y-122595424D01*
X226586198Y-122596738D01*
X225812278Y-122597803D01*
X224980475Y-122598643D01*
X224088560Y-122599281D01*
X223134301Y-122599740D01*
X222115469Y-122600045D01*
X221029832Y-122600219D01*
X219875160Y-122600286D01*
X218649223Y-122600268D01*
X217349789Y-122600191D01*
X215974629Y-122600076D01*
X214521511Y-122599948D01*
X212988205Y-122599830D01*
X211372480Y-122599746D01*
X211359500Y-122599745D01*
X190108167Y-122598990D01*
X189859756Y-122496858D01*
X189539836Y-122321152D01*
X189273494Y-122080358D01*
X189073228Y-121793799D01*
X188922833Y-121521500D01*
X188923609Y-120801833D01*
X188926377Y-120494213D01*
X188935300Y-120246592D01*
X188952425Y-120034405D01*
X188979797Y-119833083D01*
X189019463Y-119618060D01*
X189024087Y-119595333D01*
X189056825Y-119467403D01*
X192288333Y-119467403D01*
X192330084Y-119478504D01*
X192455448Y-119487957D01*
X192664590Y-119495764D01*
X192957675Y-119501929D01*
X193334870Y-119506456D01*
X193796339Y-119509347D01*
X194342249Y-119510606D01*
X194505635Y-119510666D01*
X196722937Y-119510666D01*
X196730900Y-119478916D01*
X199951469Y-119478916D01*
X199993074Y-119481985D01*
X200115443Y-119484972D01*
X200314677Y-119487865D01*
X200586872Y-119490650D01*
X200928128Y-119493312D01*
X201334543Y-119495838D01*
X201802216Y-119498214D01*
X202327245Y-119500425D01*
X202905728Y-119502459D01*
X203533764Y-119504302D01*
X204207452Y-119505938D01*
X204922890Y-119507355D01*
X205676176Y-119508539D01*
X206463409Y-119509476D01*
X207280688Y-119510151D01*
X208124110Y-119510552D01*
X208881952Y-119510666D01*
X217813238Y-119510666D01*
X217774784Y-119409526D01*
X217676246Y-119185551D01*
X217540529Y-118924718D01*
X217383962Y-118655782D01*
X217222877Y-118407498D01*
X217141442Y-118294362D01*
X216740542Y-117831497D01*
X216283962Y-117429534D01*
X215778755Y-117092513D01*
X215231971Y-116824474D01*
X214650664Y-116629458D01*
X214041885Y-116511506D01*
X214026500Y-116509595D01*
X213921398Y-116502079D01*
X213738451Y-116495194D01*
X213484479Y-116488939D01*
X213166300Y-116483315D01*
X212790734Y-116478322D01*
X212364600Y-116473960D01*
X211894718Y-116470229D01*
X211387907Y-116467128D01*
X210850987Y-116464659D01*
X210290775Y-116462820D01*
X209714093Y-116461611D01*
X209127759Y-116461034D01*
X208538593Y-116461087D01*
X207953413Y-116461772D01*
X207379040Y-116463087D01*
X206822292Y-116465032D01*
X206289989Y-116467609D01*
X205788951Y-116470816D01*
X205325995Y-116474654D01*
X204907943Y-116479123D01*
X204541613Y-116484223D01*
X204233824Y-116489954D01*
X203991396Y-116496315D01*
X203821148Y-116503307D01*
X203739500Y-116509595D01*
X203148700Y-116622391D01*
X202577689Y-116810512D01*
X202035920Y-117068237D01*
X201532846Y-117389847D01*
X201077921Y-117769623D01*
X200680599Y-118201844D01*
X200472042Y-118486582D01*
X200396884Y-118607189D01*
X200306491Y-118764176D01*
X200210185Y-118939774D01*
X200117286Y-119116219D01*
X200037114Y-119275743D01*
X199978989Y-119400580D01*
X199952232Y-119472963D01*
X199951469Y-119478916D01*
X196730900Y-119478916D01*
X196815368Y-119142132D01*
X196999937Y-118535418D01*
X197248151Y-117918802D01*
X197547668Y-117319728D01*
X197880051Y-116774656D01*
X198097538Y-116452355D01*
X197023852Y-116474784D01*
X196622888Y-116485002D01*
X196292063Y-116498687D01*
X196016857Y-116518022D01*
X195782752Y-116545186D01*
X195575231Y-116582360D01*
X195379773Y-116631726D01*
X195181862Y-116695463D01*
X194966977Y-116775752D01*
X194934167Y-116788654D01*
X194357739Y-117058959D01*
X193837881Y-117392217D01*
X193374178Y-117788758D01*
X192966215Y-118248916D01*
X192771240Y-118520525D01*
X192661228Y-118695226D01*
X192550956Y-118886854D01*
X192449478Y-119077660D01*
X192365847Y-119249893D01*
X192309114Y-119385802D01*
X192288333Y-119467403D01*
X189056825Y-119467403D01*
X189228698Y-118795787D01*
X189506315Y-118039100D01*
X189857065Y-117325035D01*
X190281076Y-116653354D01*
X190778476Y-116023819D01*
X191172663Y-115605849D01*
X191784180Y-115058326D01*
X192434102Y-114586175D01*
X193121227Y-114189934D01*
X193844353Y-113870143D01*
X194602277Y-113627342D01*
X195393799Y-113462071D01*
X196130005Y-113380321D01*
X196563843Y-113351166D01*
X196241302Y-112906666D01*
X195358249Y-111628504D01*
X194507393Y-110272524D01*
X193688874Y-108839272D01*
X192902830Y-107329292D01*
X192149401Y-105743130D01*
X191428728Y-104081331D01*
X190740949Y-102344440D01*
X190086203Y-100533003D01*
X189464632Y-98647564D01*
X188876373Y-96688670D01*
X188321567Y-94656865D01*
X187800354Y-92552694D01*
X187312872Y-90376704D01*
X186859261Y-88129438D01*
X186439661Y-85811443D01*
X186054212Y-83423263D01*
X185703052Y-80965444D01*
X185386322Y-78438531D01*
X185104162Y-75843070D01*
X184856709Y-73179605D01*
X184644105Y-70448681D01*
X184466489Y-67650845D01*
X184414894Y-66699833D01*
X184382985Y-66067568D01*
X184354717Y-65465034D01*
X184329835Y-64881949D01*
X184308081Y-64308029D01*
X184289200Y-63732989D01*
X184272934Y-63146548D01*
X184259027Y-62538421D01*
X184247222Y-61898326D01*
X184237262Y-61215978D01*
X184235966Y-61102160D01*
X187344498Y-61102160D01*
X187346660Y-61287425D01*
X187351129Y-61528267D01*
X187357728Y-61815006D01*
X187366279Y-62137962D01*
X187375504Y-62451768D01*
X187478045Y-65207369D01*
X187614450Y-67906996D01*
X187784479Y-70549584D01*
X187987892Y-73134068D01*
X188224449Y-75659382D01*
X188493910Y-78124460D01*
X188796037Y-80528238D01*
X189130587Y-82869649D01*
X189497323Y-85147628D01*
X189896004Y-87361110D01*
X190326390Y-89509029D01*
X190788241Y-91590320D01*
X191281318Y-93603917D01*
X191805381Y-95548755D01*
X192360189Y-97423768D01*
X192945504Y-99227891D01*
X193561084Y-100960059D01*
X194206691Y-102619205D01*
X194882084Y-104204265D01*
X195587024Y-105714173D01*
X196321271Y-107147863D01*
X197084585Y-108504270D01*
X197876725Y-109782329D01*
X198108905Y-110133833D01*
X198687894Y-110971491D01*
X199265448Y-111751623D01*
X199860676Y-112498838D01*
X200492684Y-113237747D01*
X200694767Y-113464200D01*
X201179964Y-114002925D01*
X201464899Y-113892880D01*
X201771344Y-113784808D01*
X202128172Y-113675500D01*
X202501777Y-113574425D01*
X202858554Y-113491052D01*
X202974083Y-113467642D01*
X203034563Y-113456884D01*
X203101663Y-113447213D01*
X203179948Y-113438571D01*
X203273981Y-113430901D01*
X203388327Y-113424146D01*
X203527551Y-113418248D01*
X203696217Y-113413150D01*
X203898890Y-113408795D01*
X204140134Y-113405126D01*
X204424514Y-113402084D01*
X204756594Y-113399614D01*
X205140939Y-113397658D01*
X205582113Y-113396158D01*
X206084681Y-113395057D01*
X206653207Y-113394298D01*
X207292255Y-113393824D01*
X208006391Y-113393577D01*
X208800179Y-113393500D01*
X214407500Y-113393500D01*
X214894333Y-113491987D01*
X215690464Y-113694013D01*
X216448862Y-113968470D01*
X217165659Y-114311781D01*
X217836990Y-114720365D01*
X218458985Y-115190643D01*
X219027779Y-115719034D01*
X219539503Y-116301960D01*
X219990290Y-116935840D01*
X220376273Y-117617096D01*
X220693585Y-118342146D01*
X220930933Y-119079523D01*
X221046546Y-119510666D01*
X226624543Y-119510666D01*
X227577619Y-119510312D01*
X228446297Y-119509249D01*
X229230843Y-119507474D01*
X229931523Y-119504985D01*
X230548604Y-119501781D01*
X231082351Y-119497859D01*
X231533030Y-119493217D01*
X231900908Y-119487854D01*
X232186250Y-119481767D01*
X232389322Y-119474954D01*
X232510390Y-119467413D01*
X232528946Y-119465267D01*
X232733420Y-119429963D01*
X232971062Y-119378796D01*
X233194521Y-119322073D01*
X233219926Y-119314867D01*
X233387646Y-119260768D01*
X233576938Y-119190556D01*
X233771613Y-119111423D01*
X233955484Y-119030558D01*
X234112363Y-118955154D01*
X234226061Y-118892402D01*
X234280390Y-118849493D01*
X234282799Y-118842706D01*
X234246717Y-118814520D01*
X234147355Y-118756919D01*
X233997819Y-118677008D01*
X233811215Y-118581890D01*
X233700716Y-118527226D01*
X232268364Y-117784295D01*
X230871397Y-116974979D01*
X229504405Y-116095638D01*
X228161978Y-115142633D01*
X226838705Y-114112323D01*
X225668167Y-113123394D01*
X225433752Y-112911854D01*
X225153603Y-112648987D01*
X224838954Y-112346104D01*
X224501034Y-112014515D01*
X224151077Y-111665531D01*
X223800315Y-111310462D01*
X223459978Y-110960617D01*
X223141299Y-110627309D01*
X222855510Y-110321847D01*
X222613843Y-110055541D01*
X222552230Y-109985666D01*
X221407735Y-108619648D01*
X220320976Y-107204396D01*
X219290303Y-105737080D01*
X218314069Y-104214870D01*
X217390624Y-102634937D01*
X216518320Y-100994451D01*
X215695509Y-99290583D01*
X214920542Y-97520502D01*
X214191771Y-95681380D01*
X214141922Y-95548585D01*
X213716295Y-94358562D01*
X213348047Y-93213941D01*
X213034114Y-92100835D01*
X212771432Y-91005360D01*
X212556936Y-89913629D01*
X212387562Y-88811758D01*
X212260246Y-87685859D01*
X212180302Y-86660000D01*
X212162952Y-86286348D01*
X212153126Y-85855379D01*
X212150476Y-85386079D01*
X212152077Y-85198847D01*
X215257081Y-85198847D01*
X215287646Y-86297681D01*
X215370925Y-87421044D01*
X215505388Y-88556336D01*
X215689508Y-89690956D01*
X215921754Y-90812306D01*
X216200598Y-91907784D01*
X216524510Y-92964791D01*
X216571174Y-93102588D01*
X217222303Y-94896260D01*
X217931671Y-96647941D01*
X218696166Y-98350852D01*
X219512678Y-99998214D01*
X220378095Y-101583246D01*
X220770386Y-102253838D01*
X221716883Y-103761799D01*
X222715227Y-105204022D01*
X223764906Y-106580036D01*
X224865404Y-107889373D01*
X226016208Y-109131562D01*
X227216803Y-110306134D01*
X228466675Y-111412619D01*
X229765311Y-112450549D01*
X231112195Y-113419453D01*
X232506814Y-114318861D01*
X233948653Y-115148305D01*
X235437198Y-115907314D01*
X236018667Y-116178849D01*
X237573012Y-116841567D01*
X239166341Y-117431563D01*
X240800226Y-117949289D01*
X242476235Y-118395197D01*
X244195940Y-118769741D01*
X245960910Y-119073371D01*
X246178667Y-119105475D01*
X246854695Y-119196450D01*
X247553302Y-119276361D01*
X248288567Y-119346499D01*
X249074569Y-119408159D01*
X249925386Y-119462632D01*
X250285000Y-119482592D01*
X250480311Y-119489969D01*
X250746407Y-119495579D01*
X251069427Y-119499473D01*
X251435508Y-119501705D01*
X251830788Y-119502328D01*
X252241405Y-119501393D01*
X252653498Y-119498955D01*
X253053204Y-119495065D01*
X253426662Y-119489776D01*
X253760009Y-119483141D01*
X254039384Y-119475214D01*
X254222000Y-119467605D01*
X255317311Y-119396711D01*
X256417367Y-119297592D01*
X257493527Y-119173206D01*
X258517150Y-119026510D01*
X258561167Y-119019488D01*
X258799949Y-118979529D01*
X259070843Y-118931394D01*
X259360130Y-118877813D01*
X259654087Y-118821514D01*
X259938995Y-118765226D01*
X260201132Y-118711677D01*
X260426779Y-118663596D01*
X260602215Y-118623712D01*
X260713718Y-118594753D01*
X260738033Y-118586566D01*
X260757770Y-118570437D01*
X260766776Y-118535499D01*
X260763142Y-118472415D01*
X260744956Y-118371848D01*
X260710307Y-118224459D01*
X260657285Y-118020911D01*
X260583979Y-117751867D01*
X260519971Y-117521000D01*
X260061757Y-115914886D01*
X259566362Y-114253526D01*
X259039499Y-112554668D01*
X258486882Y-110836064D01*
X257914222Y-109115463D01*
X257327234Y-107410614D01*
X256731630Y-105739269D01*
X256697947Y-105646500D01*
X255860250Y-103395253D01*
X255008430Y-101211925D01*
X254143090Y-99097637D01*
X253264836Y-97053510D01*
X252374270Y-95080663D01*
X251471996Y-93180218D01*
X250558619Y-91353295D01*
X249634742Y-89601015D01*
X248700969Y-87924498D01*
X247757904Y-86324865D01*
X246806151Y-84803236D01*
X245846313Y-83360733D01*
X244878994Y-81998474D01*
X243904799Y-80717583D01*
X242924331Y-79519177D01*
X242132282Y-78616666D01*
X241868674Y-78332142D01*
X241565414Y-78015201D01*
X241235671Y-77678831D01*
X240892613Y-77336021D01*
X240549407Y-76999757D01*
X240219221Y-76683029D01*
X239915224Y-76398822D01*
X239650582Y-76160127D01*
X239574667Y-76094019D01*
X238599419Y-75295352D01*
X237626421Y-74581130D01*
X236655258Y-73951173D01*
X235685511Y-73405300D01*
X234716763Y-72943331D01*
X233748598Y-72565086D01*
X232780598Y-72270386D01*
X231812347Y-72059050D01*
X230843428Y-71930897D01*
X229873424Y-71885749D01*
X229829982Y-71885666D01*
X229391250Y-71891552D01*
X228955616Y-71910233D01*
X228503096Y-71943250D01*
X228013709Y-71992139D01*
X227467471Y-72058440D01*
X227301898Y-72080297D01*
X226082103Y-72275259D01*
X224926980Y-72524551D01*
X223836596Y-72828112D01*
X222811019Y-73185878D01*
X221850317Y-73597786D01*
X220954558Y-74063774D01*
X220123809Y-74583779D01*
X219358138Y-75157739D01*
X218657613Y-75785590D01*
X218022301Y-76467271D01*
X217452271Y-77202718D01*
X216947590Y-77991869D01*
X216508326Y-78834662D01*
X216134546Y-79731032D01*
X215826319Y-80680919D01*
X215583712Y-81684259D01*
X215406792Y-82740989D01*
X215360213Y-83125166D01*
X215280761Y-84137142D01*
X215257081Y-85198847D01*
X212152077Y-85198847D01*
X212154655Y-84897434D01*
X212165315Y-84408429D01*
X212182109Y-83938050D01*
X212204690Y-83505283D01*
X212232710Y-83129114D01*
X212247689Y-82977000D01*
X212415782Y-81759271D01*
X212649969Y-80593355D01*
X212950073Y-79479565D01*
X213315918Y-78418216D01*
X213747329Y-77409622D01*
X214244130Y-76454097D01*
X214806145Y-75551954D01*
X215433198Y-74703509D01*
X216125113Y-73909074D01*
X216881715Y-73168964D01*
X217702828Y-72483493D01*
X218408000Y-71973343D01*
X219290272Y-71418373D01*
X220223523Y-70916552D01*
X221210200Y-70467104D01*
X222252753Y-70069253D01*
X223353630Y-69722222D01*
X224515280Y-69425236D01*
X225740151Y-69177519D01*
X227030692Y-68978294D01*
X228314000Y-68833780D01*
X228634212Y-68810748D01*
X229013855Y-68794805D01*
X229430772Y-68785950D01*
X229862808Y-68784187D01*
X230287807Y-68789515D01*
X230683614Y-68801937D01*
X231028072Y-68821453D01*
X231171500Y-68833616D01*
X231957618Y-68928055D01*
X232716675Y-69057504D01*
X233463711Y-69226135D01*
X234213764Y-69438122D01*
X234981876Y-69697638D01*
X235783084Y-70008856D01*
X236473750Y-70304863D01*
X236482271Y-70293523D01*
X236489874Y-70248881D01*
X236496602Y-70167005D01*
X236502499Y-70043962D01*
X236507607Y-69875821D01*
X236511970Y-69658647D01*
X236515631Y-69388510D01*
X236518635Y-69061475D01*
X236521023Y-68673611D01*
X236522840Y-68220985D01*
X236524129Y-67699665D01*
X236524933Y-67105717D01*
X236525296Y-66435210D01*
X236525261Y-65684211D01*
X236525247Y-65635445D01*
X236523828Y-60942500D01*
X236387664Y-61111700D01*
X236189283Y-61347444D01*
X235951477Y-61613203D01*
X235695161Y-61886824D01*
X235441255Y-62146156D01*
X235210676Y-62369045D01*
X235135272Y-62438013D01*
X234375220Y-63072805D01*
X233587069Y-63637911D01*
X232765974Y-64135383D01*
X231907088Y-64567275D01*
X231005565Y-64935639D01*
X230056560Y-65242527D01*
X229055227Y-65489995D01*
X227996719Y-65680093D01*
X227255667Y-65776103D01*
X226918307Y-65805572D01*
X226514118Y-65827777D01*
X226060624Y-65842720D01*
X225575349Y-65850406D01*
X225075818Y-65850838D01*
X224579555Y-65844021D01*
X224104084Y-65829959D01*
X223666930Y-65808656D01*
X223285618Y-65780115D01*
X223234000Y-65775179D01*
X222067394Y-65638878D01*
X220905847Y-65460154D01*
X219734972Y-65236057D01*
X218540385Y-64963634D01*
X217307701Y-64639937D01*
X216361837Y-64365446D01*
X216143057Y-64301071D01*
X215952348Y-64247805D01*
X215804594Y-64209580D01*
X215714678Y-64190332D01*
X215695304Y-64189248D01*
X215666597Y-64226817D01*
X215598095Y-64330130D01*
X215493945Y-64492561D01*
X215358296Y-64707484D01*
X215195298Y-64968273D01*
X215009098Y-65268304D01*
X214803846Y-65600949D01*
X214583690Y-65959585D01*
X214454607Y-66170666D01*
X214222867Y-66548516D01*
X213999332Y-66909904D01*
X213788767Y-67247330D01*
X213595938Y-67553298D01*
X213425613Y-67820307D01*
X213282558Y-68040860D01*
X213171538Y-68207458D01*
X213097320Y-68312602D01*
X213076589Y-68338566D01*
X212879645Y-68516707D01*
X212634174Y-68669072D01*
X212617838Y-68677233D01*
X212470347Y-68745759D01*
X212348964Y-68787299D01*
X212222064Y-68808468D01*
X212058024Y-68815883D01*
X211952167Y-68816500D01*
X211757126Y-68813417D01*
X211615351Y-68799871D01*
X211495534Y-68769416D01*
X211366371Y-68715603D01*
X211295110Y-68681188D01*
X211124084Y-68582209D01*
X210956242Y-68461446D01*
X210846968Y-68363688D01*
X210792076Y-68293153D01*
X210698302Y-68157488D01*
X210570385Y-67964124D01*
X210413067Y-67720497D01*
X210231086Y-67434037D01*
X210029185Y-67112179D01*
X209812101Y-66762355D01*
X209584577Y-66391999D01*
X209475411Y-66213000D01*
X209249292Y-65841671D01*
X209035886Y-65491828D01*
X208839329Y-65170208D01*
X208663756Y-64883550D01*
X208513303Y-64638593D01*
X208392106Y-64442074D01*
X208304301Y-64300733D01*
X208254023Y-64221308D01*
X208243856Y-64206446D01*
X208194069Y-64206221D01*
X208074019Y-64228934D01*
X207894180Y-64272036D01*
X207665029Y-64332975D01*
X207397041Y-64409202D01*
X207329413Y-64429101D01*
X205833034Y-64843829D01*
X204383464Y-65188078D01*
X202980588Y-65461843D01*
X201624288Y-65665117D01*
X200314450Y-65797894D01*
X199050956Y-65860168D01*
X197833689Y-65851934D01*
X196662535Y-65773185D01*
X195537376Y-65623916D01*
X194458095Y-65404119D01*
X193424578Y-65113790D01*
X192436707Y-64752922D01*
X191494366Y-64321510D01*
X190597438Y-63819546D01*
X190166244Y-63542292D01*
X189738131Y-63235763D01*
X189293435Y-62883336D01*
X188849608Y-62500836D01*
X188424105Y-62104088D01*
X188034378Y-61708916D01*
X187697881Y-61331144D01*
X187612649Y-61226984D01*
X187504053Y-61095332D01*
X187415699Y-60995860D01*
X187360011Y-60942169D01*
X187347802Y-60937086D01*
X187344820Y-60982154D01*
X187344498Y-61102160D01*
X184235966Y-61102160D01*
X184228892Y-60481094D01*
X184221853Y-59683391D01*
X184215891Y-58812586D01*
X184215212Y-58698833D01*
X184211053Y-57784465D01*
X184209424Y-56899152D01*
X184210258Y-56047648D01*
X184213485Y-55234709D01*
X184219039Y-54465092D01*
X184226851Y-53743550D01*
X184236854Y-53074840D01*
X184248979Y-52463718D01*
X184262432Y-51943049D01*
X187386697Y-51943049D01*
X187417583Y-52497000D01*
X187550672Y-53514017D01*
X187749563Y-54498170D01*
X188012286Y-55444889D01*
X188336870Y-56349605D01*
X188721344Y-57207748D01*
X189163738Y-58014749D01*
X189662082Y-58766040D01*
X190214406Y-59457050D01*
X190595000Y-59865236D01*
X191223274Y-60443082D01*
X191898509Y-60955782D01*
X192621781Y-61403651D01*
X193394166Y-61787007D01*
X194216740Y-62106168D01*
X195090578Y-62361449D01*
X196016757Y-62553167D01*
X196996352Y-62681640D01*
X198030440Y-62747185D01*
X199120097Y-62750117D01*
X200204667Y-62695425D01*
X200873155Y-62631557D01*
X201602565Y-62536125D01*
X202376595Y-62412276D01*
X203178941Y-62263156D01*
X203993301Y-62091910D01*
X204803371Y-61901684D01*
X205592849Y-61695625D01*
X206032220Y-61570878D01*
X206546941Y-61420041D01*
X206167970Y-60800270D01*
X206061570Y-60626206D01*
X205918238Y-60391638D01*
X205745158Y-60108327D01*
X205549514Y-59788034D01*
X205453096Y-59630166D01*
X209100424Y-59630166D01*
X210526295Y-61964689D01*
X210774357Y-62369408D01*
X211009290Y-62749944D01*
X211227408Y-63100501D01*
X211425022Y-63415284D01*
X211598446Y-63688495D01*
X211743992Y-63914338D01*
X211857974Y-64087016D01*
X211936704Y-64200733D01*
X211976495Y-64249692D01*
X211980430Y-64250689D01*
X212006937Y-64206935D01*
X212073801Y-64097201D01*
X212177203Y-63927739D01*
X212313325Y-63704799D01*
X212478349Y-63434631D01*
X212668457Y-63123485D01*
X212879831Y-62777613D01*
X213108653Y-62403264D01*
X213351105Y-62006689D01*
X213406454Y-61916166D01*
X213709157Y-61421102D01*
X217372218Y-61421102D01*
X217372259Y-61421234D01*
X217417102Y-61438790D01*
X217530819Y-61474130D01*
X217700362Y-61523660D01*
X217912681Y-61583786D01*
X218154728Y-61650915D01*
X218413453Y-61721454D01*
X218675806Y-61791808D01*
X218928740Y-61858384D01*
X219159205Y-61917589D01*
X219318167Y-61957117D01*
X220529487Y-62230492D01*
X221685680Y-62446386D01*
X222793215Y-62605405D01*
X223858562Y-62708154D01*
X224888191Y-62755240D01*
X225888573Y-62747268D01*
X226866177Y-62684845D01*
X226977126Y-62674233D01*
X227959116Y-62540290D01*
X228894265Y-62337746D01*
X229781478Y-62067246D01*
X230619660Y-61729436D01*
X231407715Y-61324961D01*
X232144548Y-60854464D01*
X232829063Y-60318593D01*
X233460165Y-59717992D01*
X234036759Y-59053305D01*
X234557749Y-58325178D01*
X234674312Y-58141189D01*
X235088432Y-57407670D01*
X235454843Y-56627899D01*
X235770977Y-55813096D01*
X236034264Y-54974483D01*
X236242133Y-54123279D01*
X236392016Y-53270704D01*
X236481343Y-52427980D01*
X236507544Y-51606327D01*
X236468049Y-50816965D01*
X236428808Y-50479953D01*
X236262856Y-49583103D01*
X236017726Y-48715738D01*
X235693828Y-47878456D01*
X235291571Y-47071857D01*
X234811364Y-46296540D01*
X234253618Y-45553103D01*
X233618740Y-44842146D01*
X232907141Y-44164267D01*
X232119230Y-43520065D01*
X231256167Y-42910634D01*
X230965700Y-42723742D01*
X230672671Y-42542551D01*
X230386332Y-42372115D01*
X230115935Y-42217487D01*
X229870733Y-42083718D01*
X229659978Y-41975861D01*
X229492924Y-41898969D01*
X229378822Y-41858095D01*
X229327618Y-41857504D01*
X229298272Y-41900624D01*
X229230117Y-42007628D01*
X229128383Y-42170091D01*
X228998305Y-42379590D01*
X228845115Y-42627697D01*
X228674046Y-42905990D01*
X228509222Y-43175134D01*
X228311148Y-43501817D01*
X228138809Y-43791453D01*
X227995677Y-44037900D01*
X227885221Y-44235016D01*
X227810914Y-44376658D01*
X227776223Y-44456683D01*
X227776133Y-44472660D01*
X227834792Y-44491384D01*
X227955571Y-44530992D01*
X228120301Y-44585496D01*
X228292833Y-44642911D01*
X229020109Y-44929332D01*
X229707545Y-45287810D01*
X230351099Y-45713680D01*
X230946730Y-46202272D01*
X231490396Y-46748920D01*
X231978055Y-47348956D01*
X232405667Y-47997712D01*
X232769188Y-48690519D01*
X233064579Y-49422712D01*
X233287797Y-50189621D01*
X233352261Y-50486166D01*
X233431011Y-51019229D01*
X233469689Y-51599687D01*
X233468529Y-52200477D01*
X233427765Y-52794538D01*
X233347630Y-53354805D01*
X233326526Y-53462232D01*
X233124617Y-54233523D01*
X232845520Y-54975053D01*
X232493118Y-55681465D01*
X232071296Y-56347403D01*
X231583940Y-56967508D01*
X231034932Y-57536425D01*
X230428159Y-58048797D01*
X229767503Y-58499265D01*
X229603677Y-58596239D01*
X228961851Y-58922417D01*
X228269423Y-59194260D01*
X227546008Y-59404741D01*
X227065167Y-59505906D01*
X226722190Y-59552790D01*
X226324227Y-59583909D01*
X225899580Y-59598705D01*
X225476554Y-59596619D01*
X225083450Y-59577094D01*
X224821500Y-59550164D01*
X224012066Y-59401627D01*
X223239838Y-59177237D01*
X222502823Y-58876116D01*
X221799028Y-58497382D01*
X221126459Y-58040154D01*
X220781787Y-57765538D01*
X220608008Y-57615119D01*
X220437494Y-57459599D01*
X220293389Y-57320473D01*
X220219955Y-57243615D01*
X220034991Y-57037890D01*
X218698325Y-59223028D01*
X218459959Y-59613190D01*
X218235540Y-59981469D01*
X218028844Y-60321608D01*
X217843645Y-60627350D01*
X217683718Y-60892437D01*
X217552837Y-61110613D01*
X217454777Y-61275621D01*
X217393312Y-61381203D01*
X217372218Y-61421102D01*
X213709157Y-61421102D01*
X214804215Y-59630166D01*
X213391866Y-59619023D01*
X212965243Y-59616467D01*
X212481801Y-59614935D01*
X211969383Y-59614427D01*
X211455830Y-59614943D01*
X210968985Y-59616484D01*
X210539970Y-59619023D01*
X209100424Y-59630166D01*
X205453096Y-59630166D01*
X205338489Y-59442520D01*
X205119268Y-59083547D01*
X204899035Y-58722875D01*
X204831661Y-58612530D01*
X203874322Y-57044560D01*
X203679911Y-57252616D01*
X203564764Y-57367883D01*
X203407237Y-57514965D01*
X203230741Y-57672384D01*
X203104500Y-57780539D01*
X202453901Y-58272947D01*
X201766938Y-58690094D01*
X201048279Y-59030783D01*
X200302590Y-59293813D01*
X199534537Y-59477986D01*
X198748787Y-59582102D01*
X197950006Y-59604962D01*
X197142862Y-59545366D01*
X196585167Y-59455871D01*
X196087491Y-59333204D01*
X195556770Y-59157593D01*
X195016417Y-58939186D01*
X194489844Y-58688135D01*
X194000463Y-58414588D01*
X193643000Y-58180366D01*
X193394892Y-57988173D01*
X193114895Y-57744955D01*
X192820131Y-57467846D01*
X192527719Y-57173979D01*
X192254780Y-56880489D01*
X192018435Y-56604510D01*
X191855681Y-56391666D01*
X191512128Y-55852897D01*
X191199885Y-55258673D01*
X190931191Y-54636030D01*
X190718285Y-54012007D01*
X190631805Y-53688105D01*
X190488313Y-52912127D01*
X190426376Y-52138031D01*
X190428773Y-52028272D01*
X193534286Y-52028272D01*
X193583846Y-52601494D01*
X193705496Y-53164911D01*
X193899048Y-53711368D01*
X194164316Y-54233709D01*
X194501112Y-54724778D01*
X194909250Y-55177420D01*
X194928887Y-55196384D01*
X195269076Y-55500155D01*
X195602808Y-55747112D01*
X195958863Y-55957430D01*
X196153124Y-56054616D01*
X196726574Y-56281145D01*
X197322474Y-56427651D01*
X197933238Y-56493271D01*
X198551280Y-56477141D01*
X199111290Y-56391195D01*
X199660663Y-56231864D01*
X200199493Y-55995440D01*
X200712976Y-55689388D01*
X201121713Y-55377295D01*
X201324688Y-55187228D01*
X201540674Y-54956591D01*
X201748966Y-54709713D01*
X201928858Y-54470923D01*
X202041904Y-54296062D01*
X202115541Y-54168958D01*
X197939833Y-47325156D01*
X197660811Y-47349581D01*
X197144486Y-47432835D01*
X196619793Y-47588249D01*
X196103992Y-47807284D01*
X195614341Y-48081406D01*
X195168099Y-48402076D01*
X194782525Y-48760760D01*
X194761280Y-48783758D01*
X194374375Y-49265539D01*
X194060682Y-49780450D01*
X193820013Y-50321334D01*
X193652182Y-50881037D01*
X193557002Y-51452401D01*
X193534286Y-52028272D01*
X190428773Y-52028272D01*
X190443134Y-51370985D01*
X190535727Y-50616159D01*
X190701295Y-49878720D01*
X190936977Y-49163839D01*
X191239912Y-48476684D01*
X191607241Y-47822424D01*
X192036103Y-47206227D01*
X192523637Y-46633263D01*
X193066983Y-46108700D01*
X193663282Y-45637707D01*
X194309672Y-45225454D01*
X195003293Y-44877108D01*
X195644715Y-44629460D01*
X195834345Y-44563165D01*
X195990396Y-44503274D01*
X196097618Y-44456030D01*
X196140763Y-44427678D01*
X196140984Y-44426289D01*
X196119059Y-44383019D01*
X196057840Y-44275930D01*
X195962302Y-44113373D01*
X195837418Y-43903701D01*
X195688161Y-43655267D01*
X195519505Y-43376423D01*
X195345769Y-43090839D01*
X194553167Y-41791513D01*
X194108667Y-42029204D01*
X193133499Y-42587553D01*
X192232230Y-43179914D01*
X191405604Y-43805513D01*
X190654365Y-44463573D01*
X189979259Y-45153320D01*
X189381029Y-45873977D01*
X188860421Y-46624770D01*
X188418179Y-47404923D01*
X188055048Y-48213660D01*
X187979784Y-48411833D01*
X187763592Y-49086225D01*
X187593451Y-49796426D01*
X187472097Y-50522552D01*
X187402267Y-51244721D01*
X187386697Y-51943049D01*
X184262432Y-51943049D01*
X184263159Y-51914939D01*
X184279326Y-51433258D01*
X184297412Y-51023432D01*
X184317349Y-50690215D01*
X184332160Y-50507333D01*
X184466230Y-49519973D01*
X184681596Y-48539188D01*
X184974912Y-47573587D01*
X185342831Y-46631784D01*
X185782008Y-45722390D01*
X186289097Y-44854016D01*
X186832374Y-44072666D01*
X186985808Y-43872996D01*
X187142427Y-43674914D01*
X187285272Y-43499521D01*
X187397383Y-43367919D01*
X187410736Y-43353000D01*
X187621161Y-43120166D01*
X187245923Y-42727513D01*
X186653796Y-42049426D01*
X186135825Y-41332828D01*
X185693253Y-40580294D01*
X185327320Y-39794396D01*
X185039269Y-38977710D01*
X184830339Y-38132808D01*
X184729922Y-37511000D01*
X184693736Y-37119089D01*
X184675205Y-36673418D01*
X184673951Y-36258340D01*
X187784298Y-36258340D01*
X187788918Y-36646908D01*
X187808216Y-37012008D01*
X187842200Y-37328230D01*
X187857933Y-37424678D01*
X188022795Y-38092837D01*
X188269324Y-38743165D01*
X188595777Y-39372358D01*
X189000408Y-39977114D01*
X189481474Y-40554130D01*
X189547890Y-40625194D01*
X189920953Y-41019386D01*
X190327714Y-40724772D01*
X190498304Y-40604450D01*
X197486654Y-40604450D01*
X197491717Y-40632284D01*
X197506488Y-40657732D01*
X197533863Y-40702137D01*
X197603342Y-40815470D01*
X197712892Y-40994405D01*
X197860481Y-41235619D01*
X198044076Y-41535787D01*
X198261646Y-41891582D01*
X198511157Y-42299681D01*
X198790577Y-42756759D01*
X199097874Y-43259490D01*
X199431017Y-43804549D01*
X199787971Y-44388613D01*
X200166705Y-45008355D01*
X200565187Y-45660452D01*
X200981384Y-46341577D01*
X201413264Y-47048407D01*
X201858795Y-47777616D01*
X202315943Y-48525879D01*
X202382048Y-48634083D01*
X207198947Y-56518666D01*
X216705854Y-56518666D01*
X218129259Y-54189002D01*
X221814864Y-54189002D01*
X221844568Y-54263047D01*
X221911403Y-54375271D01*
X221987633Y-54492095D01*
X222326980Y-54931797D01*
X222732266Y-55331547D01*
X223191402Y-55684256D01*
X223692297Y-55982836D01*
X224222861Y-56220197D01*
X224771005Y-56389249D01*
X225324639Y-56482905D01*
X225393000Y-56488908D01*
X225606154Y-56503900D01*
X225773442Y-56509521D01*
X225930059Y-56505147D01*
X226111200Y-56490156D01*
X226267844Y-56473412D01*
X226880329Y-56363783D01*
X227466807Y-56176084D01*
X228019935Y-55913680D01*
X228532373Y-55579934D01*
X228908339Y-55263600D01*
X229328252Y-54814344D01*
X229676540Y-54327640D01*
X229953471Y-53810518D01*
X230159316Y-53270002D01*
X230294345Y-52713119D01*
X230358828Y-52146896D01*
X230353036Y-51578359D01*
X230277238Y-51014535D01*
X230131705Y-50462451D01*
X229916706Y-49929133D01*
X229632513Y-49421607D01*
X229279394Y-48946900D01*
X228857621Y-48512038D01*
X228641701Y-48328179D01*
X228251284Y-48054245D01*
X227810764Y-47812129D01*
X227342266Y-47610919D01*
X226867916Y-47459704D01*
X226409839Y-47367571D01*
X226264139Y-47351523D01*
X225964500Y-47326169D01*
X223932500Y-50656218D01*
X223635734Y-51142551D01*
X223350727Y-51609597D01*
X223080676Y-52052119D01*
X222828776Y-52464880D01*
X222598226Y-52842643D01*
X222392220Y-53180170D01*
X222213956Y-53472223D01*
X222066630Y-53713566D01*
X221953439Y-53898962D01*
X221877580Y-54023172D01*
X221842248Y-54080960D01*
X221840906Y-54083146D01*
X221815805Y-54135061D01*
X221814864Y-54189002D01*
X218129259Y-54189002D01*
X221523270Y-48634083D01*
X221981949Y-47883384D01*
X222429293Y-47151263D01*
X222863270Y-46441045D01*
X223281848Y-45756056D01*
X223682994Y-45099619D01*
X224064676Y-44475059D01*
X224424863Y-43885702D01*
X224761521Y-43334871D01*
X225072619Y-42825892D01*
X225356125Y-42362089D01*
X225610007Y-41946787D01*
X225832231Y-41583311D01*
X226020767Y-41274986D01*
X226173582Y-41025136D01*
X226288644Y-40837086D01*
X226363921Y-40714160D01*
X226397380Y-40659685D01*
X226398629Y-40657682D01*
X226416188Y-40625218D01*
X226416632Y-40597123D01*
X226390184Y-40568676D01*
X226327066Y-40535158D01*
X226217502Y-40491851D01*
X226051715Y-40434035D01*
X225819927Y-40356990D01*
X225681370Y-40311470D01*
X224161594Y-39849072D01*
X222578594Y-39438124D01*
X222208654Y-39357290D01*
X231388199Y-39357290D01*
X231388607Y-39358866D01*
X231468510Y-39398578D01*
X231607168Y-39476823D01*
X231792341Y-39586007D01*
X232011786Y-39718536D01*
X232253260Y-39866817D01*
X232504523Y-40023256D01*
X232753331Y-40180259D01*
X232987442Y-40330232D01*
X233194615Y-40465582D01*
X233362607Y-40578715D01*
X233421352Y-40619778D01*
X233602956Y-40746798D01*
X233762182Y-40854282D01*
X233885443Y-40933353D01*
X233959154Y-40975133D01*
X233971685Y-40979413D01*
X234018517Y-40951393D01*
X234108753Y-40873136D01*
X234228862Y-40757063D01*
X234348921Y-40633083D01*
X234824057Y-40083145D01*
X235219798Y-39524368D01*
X235541411Y-38946736D01*
X235794159Y-38340237D01*
X235983308Y-37694855D01*
X236045955Y-37405166D01*
X236085754Y-37125635D01*
X236110714Y-36787212D01*
X236120872Y-36414354D01*
X236116265Y-36031519D01*
X236096929Y-35663163D01*
X236062901Y-35333745D01*
X236042647Y-35203833D01*
X236009459Y-35024644D01*
X235979850Y-34878968D01*
X235957759Y-34785440D01*
X235949030Y-34761121D01*
X235916947Y-34787241D01*
X235829772Y-34868858D01*
X235692111Y-35001429D01*
X235508571Y-35180416D01*
X235283759Y-35401278D01*
X235022282Y-35659474D01*
X234728747Y-35950464D01*
X234407761Y-36269707D01*
X234063931Y-36612662D01*
X233701863Y-36974791D01*
X233635677Y-37041091D01*
X233271925Y-37406398D01*
X232927154Y-37754280D01*
X232605830Y-38080130D01*
X232312419Y-38379344D01*
X232051386Y-38647314D01*
X231827198Y-38879434D01*
X231644319Y-39071097D01*
X231507216Y-39217699D01*
X231420354Y-39314632D01*
X231388199Y-39357290D01*
X222208654Y-39357290D01*
X220936988Y-39079424D01*
X219241396Y-38773766D01*
X217496435Y-38521947D01*
X215706723Y-38324764D01*
X213876880Y-38183013D01*
X213083849Y-38139541D01*
X212652649Y-38121389D01*
X212263763Y-38111387D01*
X211888579Y-38109525D01*
X211498484Y-38115793D01*
X211064866Y-38130180D01*
X210860680Y-38138739D01*
X209226676Y-38235457D01*
X207603797Y-38380788D01*
X206000992Y-38573201D01*
X204427209Y-38811164D01*
X202891398Y-39093146D01*
X201402506Y-39417618D01*
X199969482Y-39783048D01*
X198601275Y-40187906D01*
X198286496Y-40289796D01*
X198007125Y-40382094D01*
X197798774Y-40452509D01*
X197651997Y-40505496D01*
X197557348Y-40545512D01*
X197505383Y-40577011D01*
X197486654Y-40604450D01*
X190498304Y-40604450D01*
X190531914Y-40580744D01*
X190775848Y-40414570D01*
X191026952Y-40248167D01*
X191225654Y-40120423D01*
X191455205Y-39978210D01*
X191706526Y-39826623D01*
X191947569Y-39684786D01*
X192128659Y-39581594D01*
X192293723Y-39488018D01*
X192427430Y-39408885D01*
X192514785Y-39353292D01*
X192541409Y-39331186D01*
X192512575Y-39296803D01*
X192429315Y-39208801D01*
X192297229Y-39072758D01*
X192121922Y-38894250D01*
X191908995Y-38678854D01*
X191664050Y-38432146D01*
X191392691Y-38159704D01*
X191100521Y-37867104D01*
X190793140Y-37559922D01*
X190476153Y-37243736D01*
X190155162Y-36924121D01*
X189835769Y-36606656D01*
X189523577Y-36296916D01*
X189224188Y-36000478D01*
X188943206Y-35722918D01*
X188686231Y-35469815D01*
X188458868Y-35246744D01*
X188266719Y-35059281D01*
X188115386Y-34913005D01*
X188010471Y-34813490D01*
X187957578Y-34766315D01*
X187952297Y-34763257D01*
X187936540Y-34811537D01*
X187911198Y-34924555D01*
X187880262Y-35083476D01*
X187858453Y-35205920D01*
X187819071Y-35512436D01*
X187794351Y-35871713D01*
X187784298Y-36258340D01*
X184673951Y-36258340D01*
X184673772Y-36199167D01*
X184688883Y-35721517D01*
X184719979Y-35265647D01*
X184766504Y-34856739D01*
X184792136Y-34695833D01*
X184980477Y-33810523D01*
X185225763Y-32969869D01*
X185535036Y-32150127D01*
X185575611Y-32054756D01*
X185751525Y-31664349D01*
X185914035Y-31346295D01*
X186070328Y-31090825D01*
X186227590Y-30888168D01*
X186393009Y-30728552D01*
X186573771Y-30602208D01*
X186690197Y-30539477D01*
X186809984Y-30484610D01*
X186916239Y-30449651D01*
X187034218Y-30430228D01*
X187189178Y-30421969D01*
X187377667Y-30420463D01*
X187585146Y-30422633D01*
X187732649Y-30431738D01*
X187844826Y-30452166D01*
X187946329Y-30488305D01*
X188055000Y-30541018D01*
X188101090Y-30569675D01*
X188165469Y-30618385D01*
X188251120Y-30690040D01*
X188361028Y-30787535D01*
X188498176Y-30913761D01*
X188665546Y-31071614D01*
X188866124Y-31263985D01*
X189102892Y-31493769D01*
X189378835Y-31763859D01*
X189696935Y-32077148D01*
X190060176Y-32436530D01*
X190471542Y-32844898D01*
X190934017Y-33305146D01*
X191450584Y-33820166D01*
X191934254Y-34302990D01*
X195580675Y-37944705D01*
X196188754Y-37722682D01*
X197660897Y-37221342D01*
X199199767Y-36767543D01*
X200801537Y-36362020D01*
X202462384Y-36005506D01*
X204178480Y-35698737D01*
X205946002Y-35442445D01*
X207761123Y-35237366D01*
X209620018Y-35084234D01*
X210089500Y-35054252D01*
X210517655Y-35033909D01*
X211007786Y-35019807D01*
X211537431Y-35011947D01*
X212084130Y-35010329D01*
X212625422Y-35014952D01*
X213138846Y-35025817D01*
X213601942Y-35042924D01*
X213814833Y-35054252D01*
X215703000Y-35195922D01*
X217545592Y-35390501D01*
X219339317Y-35637350D01*
X221080884Y-35935830D01*
X222766999Y-36285301D01*
X224394372Y-36685123D01*
X225959710Y-37134658D01*
X227459721Y-37633265D01*
X227882644Y-37787175D01*
X228319121Y-37949239D01*
X231967811Y-34305257D01*
X232532862Y-33741244D01*
X233041285Y-33234463D01*
X233496063Y-32782022D01*
X233900177Y-32381028D01*
X234256610Y-32028588D01*
X234568345Y-31721811D01*
X234838365Y-31457803D01*
X235069652Y-31233673D01*
X235265189Y-31046527D01*
X235427958Y-30893474D01*
X235560942Y-30771620D01*
X235667124Y-30678073D01*
X235749486Y-30609942D01*
X235811010Y-30564332D01*
X235849333Y-30541018D01*
X235963467Y-30485945D01*
X236064917Y-30450741D01*
X236178336Y-30431016D01*
X236328375Y-30422384D01*
X236526667Y-30420463D01*
X236736514Y-30422590D01*
%TA.AperFunction,EtchedComponent*%
G36*
X236736514Y-30422590D02*
G01*
X236886733Y-30432107D01*
X237002306Y-30453226D01*
X237108211Y-30490154D01*
X237204284Y-30534658D01*
X237397089Y-30644805D01*
X237568639Y-30779791D01*
X237726839Y-30950051D01*
X237879595Y-31166017D01*
X238034809Y-31438123D01*
X238200386Y-31776803D01*
X238281878Y-31957081D01*
X238622946Y-32818161D01*
X238893980Y-33708002D01*
X239099236Y-34640796D01*
X239117227Y-34742278D01*
X239148389Y-34933642D01*
X239172060Y-35112295D01*
X239189223Y-35294794D01*
X239200858Y-35497694D01*
X239207949Y-35737549D01*
X239211478Y-36030915D01*
X239212416Y-36346833D01*
X239211618Y-36697398D01*
X239208233Y-36979236D01*
X239201318Y-37208268D01*
X239189931Y-37400418D01*
X239173129Y-37571610D01*
X239149969Y-37737764D01*
X239119610Y-37914249D01*
X238919761Y-38784328D01*
X238645889Y-39614893D01*
X238296872Y-40408135D01*
X237871588Y-41166244D01*
X237368916Y-41891411D01*
X236787734Y-42585827D01*
X236654741Y-42728866D01*
X236283912Y-43120698D01*
X236493967Y-43353265D01*
X236667191Y-43555704D01*
X236869702Y-43809424D01*
X237086145Y-44093766D01*
X237301169Y-44388068D01*
X237499419Y-44671670D01*
X237665544Y-44923910D01*
X237689164Y-44961666D01*
X238190281Y-45848103D01*
X238622107Y-46775809D01*
X238981448Y-47735397D01*
X239265111Y-48717479D01*
X239469901Y-49712668D01*
X239573748Y-50501235D01*
X239578906Y-50597299D01*
X239583750Y-50777265D01*
X239588278Y-51040368D01*
X239592487Y-51385844D01*
X239596374Y-51812928D01*
X239599935Y-52320857D01*
X239603168Y-52908865D01*
X239606070Y-53576190D01*
X239608637Y-54322065D01*
X239610868Y-55145727D01*
X239612757Y-56046411D01*
X239614304Y-57023353D01*
X239615504Y-58075788D01*
X239616356Y-59202953D01*
X239616854Y-60404083D01*
X239617000Y-61550862D01*
X239617000Y-72162087D01*
X240135583Y-72548605D01*
X241182891Y-73372838D01*
X242222659Y-74278800D01*
X243255157Y-75266806D01*
X244280650Y-76337169D01*
X245299409Y-77490202D01*
X246311699Y-78726219D01*
X247317789Y-80045533D01*
X248317947Y-81448458D01*
X249312441Y-82935307D01*
X250169204Y-84290809D01*
X251144468Y-85921661D01*
X252110988Y-87634212D01*
X253067645Y-89425837D01*
X254013319Y-91293912D01*
X254946891Y-93235813D01*
X255867243Y-95248916D01*
X256773254Y-97330596D01*
X257663806Y-99478229D01*
X258537780Y-101689191D01*
X259394055Y-103960858D01*
X260231513Y-106290606D01*
X261049034Y-108675810D01*
X261845500Y-111113847D01*
X262491663Y-113181833D01*
X262658492Y-113732357D01*
X262834267Y-114322629D01*
X263015193Y-114939273D01*
X263197472Y-115568913D01*
X263377307Y-116198174D01*
X263550899Y-116813680D01*
X263714452Y-117402056D01*
X263864169Y-117949927D01*
X263996251Y-118443916D01*
X264106902Y-118870648D01*
X264108176Y-118875666D01*
X264187556Y-119313551D01*
X264192949Y-119710401D01*
X264124241Y-120066552D01*
X263981315Y-120382337D01*
X263764056Y-120658093D01*
X263472350Y-120894153D01*
X263397372Y-120941274D01*
X263130381Y-121078280D01*
X262785591Y-121217057D01*
X262369810Y-121356220D01*
X261889849Y-121494385D01*
X261352514Y-121630165D01*
X260764615Y-121762177D01*
X260132961Y-121889035D01*
X259464360Y-122009355D01*
X258765621Y-122121751D01*
X258043553Y-122224838D01*
X257304965Y-122317233D01*
X256556665Y-122397549D01*
X255978833Y-122450232D01*
X255303474Y-122499859D01*
X254576562Y-122540469D01*
X253815736Y-122571757D01*
X253038634Y-122593422D01*
X252262894Y-122605160D01*
X251506154Y-122606667D01*
X250786051Y-122597642D01*
X250120225Y-122577782D01*
X249707613Y-122557941D01*
X247910410Y-122424393D01*
X246166514Y-122230804D01*
X244468104Y-121975714D01*
X242807361Y-121657666D01*
X241176466Y-121275204D01*
X239567601Y-120826869D01*
X238358391Y-120442390D01*
X237586616Y-120183896D01*
X237130725Y-120590694D01*
X236490087Y-121111687D01*
X235824035Y-121553040D01*
X235128236Y-121917110D01*
X234398359Y-122206257D01*
X233877725Y-122361977D01*
X233812075Y-122379822D01*
X233753231Y-122396757D01*
X233698961Y-122412808D01*
X233647035Y-122427998D01*
X233595223Y-122442350D01*
X233541293Y-122455888D01*
X233483016Y-122468636D01*
X233418160Y-122480616D01*
X233344495Y-122491853D01*
X233259791Y-122502370D01*
X233161816Y-122512191D01*
X233048341Y-122521339D01*
X232917134Y-122529838D01*
X232765966Y-122537711D01*
X232592604Y-122544982D01*
X232394820Y-122551674D01*
X232170382Y-122557811D01*
X231917060Y-122563417D01*
X231632623Y-122568515D01*
X231314840Y-122573128D01*
X230961481Y-122577281D01*
X230570315Y-122580996D01*
X230139112Y-122584297D01*
X229665642Y-122587209D01*
X229147672Y-122589754D01*
X228582974Y-122591955D01*
X227969316Y-122593838D01*
X227304468Y-122595424D01*
X226586198Y-122596738D01*
X225812278Y-122597803D01*
X224980475Y-122598643D01*
X224088560Y-122599281D01*
X223134301Y-122599740D01*
X222115469Y-122600045D01*
X221029832Y-122600219D01*
X219875160Y-122600286D01*
X218649223Y-122600268D01*
X217349789Y-122600191D01*
X215974629Y-122600076D01*
X214521511Y-122599948D01*
X212988205Y-122599830D01*
X211372480Y-122599746D01*
X211359500Y-122599745D01*
X190108167Y-122598990D01*
X189859756Y-122496858D01*
X189539836Y-122321152D01*
X189273494Y-122080358D01*
X189073228Y-121793799D01*
X188922833Y-121521500D01*
X188923609Y-120801833D01*
X188926377Y-120494213D01*
X188935300Y-120246592D01*
X188952425Y-120034405D01*
X188979797Y-119833083D01*
X189019463Y-119618060D01*
X189024087Y-119595333D01*
X189056825Y-119467403D01*
X192288333Y-119467403D01*
X192330084Y-119478504D01*
X192455448Y-119487957D01*
X192664590Y-119495764D01*
X192957675Y-119501929D01*
X193334870Y-119506456D01*
X193796339Y-119509347D01*
X194342249Y-119510606D01*
X194505635Y-119510666D01*
X196722937Y-119510666D01*
X196730900Y-119478916D01*
X199951469Y-119478916D01*
X199993074Y-119481985D01*
X200115443Y-119484972D01*
X200314677Y-119487865D01*
X200586872Y-119490650D01*
X200928128Y-119493312D01*
X201334543Y-119495838D01*
X201802216Y-119498214D01*
X202327245Y-119500425D01*
X202905728Y-119502459D01*
X203533764Y-119504302D01*
X204207452Y-119505938D01*
X204922890Y-119507355D01*
X205676176Y-119508539D01*
X206463409Y-119509476D01*
X207280688Y-119510151D01*
X208124110Y-119510552D01*
X208881952Y-119510666D01*
X217813238Y-119510666D01*
X217774784Y-119409526D01*
X217676246Y-119185551D01*
X217540529Y-118924718D01*
X217383962Y-118655782D01*
X217222877Y-118407498D01*
X217141442Y-118294362D01*
X216740542Y-117831497D01*
X216283962Y-117429534D01*
X215778755Y-117092513D01*
X215231971Y-116824474D01*
X214650664Y-116629458D01*
X214041885Y-116511506D01*
X214026500Y-116509595D01*
X213921398Y-116502079D01*
X213738451Y-116495194D01*
X213484479Y-116488939D01*
X213166300Y-116483315D01*
X212790734Y-116478322D01*
X212364600Y-116473960D01*
X211894718Y-116470229D01*
X211387907Y-116467128D01*
X210850987Y-116464659D01*
X210290775Y-116462820D01*
X209714093Y-116461611D01*
X209127759Y-116461034D01*
X208538593Y-116461087D01*
X207953413Y-116461772D01*
X207379040Y-116463087D01*
X206822292Y-116465032D01*
X206289989Y-116467609D01*
X205788951Y-116470816D01*
X205325995Y-116474654D01*
X204907943Y-116479123D01*
X204541613Y-116484223D01*
X204233824Y-116489954D01*
X203991396Y-116496315D01*
X203821148Y-116503307D01*
X203739500Y-116509595D01*
X203148700Y-116622391D01*
X202577689Y-116810512D01*
X202035920Y-117068237D01*
X201532846Y-117389847D01*
X201077921Y-117769623D01*
X200680599Y-118201844D01*
X200472042Y-118486582D01*
X200396884Y-118607189D01*
X200306491Y-118764176D01*
X200210185Y-118939774D01*
X200117286Y-119116219D01*
X200037114Y-119275743D01*
X199978989Y-119400580D01*
X199952232Y-119472963D01*
X199951469Y-119478916D01*
X196730900Y-119478916D01*
X196815368Y-119142132D01*
X196999937Y-118535418D01*
X197248151Y-117918802D01*
X197547668Y-117319728D01*
X197880051Y-116774656D01*
X198097538Y-116452355D01*
X197023852Y-116474784D01*
X196622888Y-116485002D01*
X196292063Y-116498687D01*
X196016857Y-116518022D01*
X195782752Y-116545186D01*
X195575231Y-116582360D01*
X195379773Y-116631726D01*
X195181862Y-116695463D01*
X194966977Y-116775752D01*
X194934167Y-116788654D01*
X194357739Y-117058959D01*
X193837881Y-117392217D01*
X193374178Y-117788758D01*
X192966215Y-118248916D01*
X192771240Y-118520525D01*
X192661228Y-118695226D01*
X192550956Y-118886854D01*
X192449478Y-119077660D01*
X192365847Y-119249893D01*
X192309114Y-119385802D01*
X192288333Y-119467403D01*
X189056825Y-119467403D01*
X189228698Y-118795787D01*
X189506315Y-118039100D01*
X189857065Y-117325035D01*
X190281076Y-116653354D01*
X190778476Y-116023819D01*
X191172663Y-115605849D01*
X191784180Y-115058326D01*
X192434102Y-114586175D01*
X193121227Y-114189934D01*
X193844353Y-113870143D01*
X194602277Y-113627342D01*
X195393799Y-113462071D01*
X196130005Y-113380321D01*
X196563843Y-113351166D01*
X196241302Y-112906666D01*
X195358249Y-111628504D01*
X194507393Y-110272524D01*
X193688874Y-108839272D01*
X192902830Y-107329292D01*
X192149401Y-105743130D01*
X191428728Y-104081331D01*
X190740949Y-102344440D01*
X190086203Y-100533003D01*
X189464632Y-98647564D01*
X188876373Y-96688670D01*
X188321567Y-94656865D01*
X187800354Y-92552694D01*
X187312872Y-90376704D01*
X186859261Y-88129438D01*
X186439661Y-85811443D01*
X186054212Y-83423263D01*
X185703052Y-80965444D01*
X185386322Y-78438531D01*
X185104162Y-75843070D01*
X184856709Y-73179605D01*
X184644105Y-70448681D01*
X184466489Y-67650845D01*
X184414894Y-66699833D01*
X184382985Y-66067568D01*
X184354717Y-65465034D01*
X184329835Y-64881949D01*
X184308081Y-64308029D01*
X184289200Y-63732989D01*
X184272934Y-63146548D01*
X184259027Y-62538421D01*
X184247222Y-61898326D01*
X184237262Y-61215978D01*
X184235966Y-61102160D01*
X187344498Y-61102160D01*
X187346660Y-61287425D01*
X187351129Y-61528267D01*
X187357728Y-61815006D01*
X187366279Y-62137962D01*
X187375504Y-62451768D01*
X187478045Y-65207369D01*
X187614450Y-67906996D01*
X187784479Y-70549584D01*
X187987892Y-73134068D01*
X188224449Y-75659382D01*
X188493910Y-78124460D01*
X188796037Y-80528238D01*
X189130587Y-82869649D01*
X189497323Y-85147628D01*
X189896004Y-87361110D01*
X190326390Y-89509029D01*
X190788241Y-91590320D01*
X191281318Y-93603917D01*
X191805381Y-95548755D01*
X192360189Y-97423768D01*
X192945504Y-99227891D01*
X193561084Y-100960059D01*
X194206691Y-102619205D01*
X194882084Y-104204265D01*
X195587024Y-105714173D01*
X196321271Y-107147863D01*
X197084585Y-108504270D01*
X197876725Y-109782329D01*
X198108905Y-110133833D01*
X198687894Y-110971491D01*
X199265448Y-111751623D01*
X199860676Y-112498838D01*
X200492684Y-113237747D01*
X200694767Y-113464200D01*
X201179964Y-114002925D01*
X201464899Y-113892880D01*
X201771344Y-113784808D01*
X202128172Y-113675500D01*
X202501777Y-113574425D01*
X202858554Y-113491052D01*
X202974083Y-113467642D01*
X203034563Y-113456884D01*
X203101663Y-113447213D01*
X203179948Y-113438571D01*
X203273981Y-113430901D01*
X203388327Y-113424146D01*
X203527551Y-113418248D01*
X203696217Y-113413150D01*
X203898890Y-113408795D01*
X204140134Y-113405126D01*
X204424514Y-113402084D01*
X204756594Y-113399614D01*
X205140939Y-113397658D01*
X205582113Y-113396158D01*
X206084681Y-113395057D01*
X206653207Y-113394298D01*
X207292255Y-113393824D01*
X208006391Y-113393577D01*
X208800179Y-113393500D01*
X214407500Y-113393500D01*
X214894333Y-113491987D01*
X215690464Y-113694013D01*
X216448862Y-113968470D01*
X217165659Y-114311781D01*
X217836990Y-114720365D01*
X218458985Y-115190643D01*
X219027779Y-115719034D01*
X219539503Y-116301960D01*
X219990290Y-116935840D01*
X220376273Y-117617096D01*
X220693585Y-118342146D01*
X220930933Y-119079523D01*
X221046546Y-119510666D01*
X226624543Y-119510666D01*
X227577619Y-119510312D01*
X228446297Y-119509249D01*
X229230843Y-119507474D01*
X229931523Y-119504985D01*
X230548604Y-119501781D01*
X231082351Y-119497859D01*
X231533030Y-119493217D01*
X231900908Y-119487854D01*
X232186250Y-119481767D01*
X232389322Y-119474954D01*
X232510390Y-119467413D01*
X232528946Y-119465267D01*
X232733420Y-119429963D01*
X232971062Y-119378796D01*
X233194521Y-119322073D01*
X233219926Y-119314867D01*
X233387646Y-119260768D01*
X233576938Y-119190556D01*
X233771613Y-119111423D01*
X233955484Y-119030558D01*
X234112363Y-118955154D01*
X234226061Y-118892402D01*
X234280390Y-118849493D01*
X234282799Y-118842706D01*
X234246717Y-118814520D01*
X234147355Y-118756919D01*
X233997819Y-118677008D01*
X233811215Y-118581890D01*
X233700716Y-118527226D01*
X232268364Y-117784295D01*
X230871397Y-116974979D01*
X229504405Y-116095638D01*
X228161978Y-115142633D01*
X226838705Y-114112323D01*
X225668167Y-113123394D01*
X225433752Y-112911854D01*
X225153603Y-112648987D01*
X224838954Y-112346104D01*
X224501034Y-112014515D01*
X224151077Y-111665531D01*
X223800315Y-111310462D01*
X223459978Y-110960617D01*
X223141299Y-110627309D01*
X222855510Y-110321847D01*
X222613843Y-110055541D01*
X222552230Y-109985666D01*
X221407735Y-108619648D01*
X220320976Y-107204396D01*
X219290303Y-105737080D01*
X218314069Y-104214870D01*
X217390624Y-102634937D01*
X216518320Y-100994451D01*
X215695509Y-99290583D01*
X214920542Y-97520502D01*
X214191771Y-95681380D01*
X214141922Y-95548585D01*
X213716295Y-94358562D01*
X213348047Y-93213941D01*
X213034114Y-92100835D01*
X212771432Y-91005360D01*
X212556936Y-89913629D01*
X212387562Y-88811758D01*
X212260246Y-87685859D01*
X212180302Y-86660000D01*
X212162952Y-86286348D01*
X212153126Y-85855379D01*
X212150476Y-85386079D01*
X212152077Y-85198847D01*
X215257081Y-85198847D01*
X215287646Y-86297681D01*
X215370925Y-87421044D01*
X215505388Y-88556336D01*
X215689508Y-89690956D01*
X215921754Y-90812306D01*
X216200598Y-91907784D01*
X216524510Y-92964791D01*
X216571174Y-93102588D01*
X217222303Y-94896260D01*
X217931671Y-96647941D01*
X218696166Y-98350852D01*
X219512678Y-99998214D01*
X220378095Y-101583246D01*
X220770386Y-102253838D01*
X221716883Y-103761799D01*
X222715227Y-105204022D01*
X223764906Y-106580036D01*
X224865404Y-107889373D01*
X226016208Y-109131562D01*
X227216803Y-110306134D01*
X228466675Y-111412619D01*
X229765311Y-112450549D01*
X231112195Y-113419453D01*
X232506814Y-114318861D01*
X233948653Y-115148305D01*
X235437198Y-115907314D01*
X236018667Y-116178849D01*
X237573012Y-116841567D01*
X239166341Y-117431563D01*
X240800226Y-117949289D01*
X242476235Y-118395197D01*
X244195940Y-118769741D01*
X245960910Y-119073371D01*
X246178667Y-119105475D01*
X246854695Y-119196450D01*
X247553302Y-119276361D01*
X248288567Y-119346499D01*
X249074569Y-119408159D01*
X249925386Y-119462632D01*
X250285000Y-119482592D01*
X250480311Y-119489969D01*
X250746407Y-119495579D01*
X251069427Y-119499473D01*
X251435508Y-119501705D01*
X251830788Y-119502328D01*
X252241405Y-119501393D01*
X252653498Y-119498955D01*
X253053204Y-119495065D01*
X253426662Y-119489776D01*
X253760009Y-119483141D01*
X254039384Y-119475214D01*
X254222000Y-119467605D01*
X255317311Y-119396711D01*
X256417367Y-119297592D01*
X257493527Y-119173206D01*
X258517150Y-119026510D01*
X258561167Y-119019488D01*
X258799949Y-118979529D01*
X259070843Y-118931394D01*
X259360130Y-118877813D01*
X259654087Y-118821514D01*
X259938995Y-118765226D01*
X260201132Y-118711677D01*
X260426779Y-118663596D01*
X260602215Y-118623712D01*
X260713718Y-118594753D01*
X260738033Y-118586566D01*
X260757770Y-118570437D01*
X260766776Y-118535499D01*
X260763142Y-118472415D01*
X260744956Y-118371848D01*
X260710307Y-118224459D01*
X260657285Y-118020911D01*
X260583979Y-117751867D01*
X260519971Y-117521000D01*
X260061757Y-115914886D01*
X259566362Y-114253526D01*
X259039499Y-112554668D01*
X258486882Y-110836064D01*
X257914222Y-109115463D01*
X257327234Y-107410614D01*
X256731630Y-105739269D01*
X256697947Y-105646500D01*
X255860250Y-103395253D01*
X255008430Y-101211925D01*
X254143090Y-99097637D01*
X253264836Y-97053510D01*
X252374270Y-95080663D01*
X251471996Y-93180218D01*
X250558619Y-91353295D01*
X249634742Y-89601015D01*
X248700969Y-87924498D01*
X247757904Y-86324865D01*
X246806151Y-84803236D01*
X245846313Y-83360733D01*
X244878994Y-81998474D01*
X243904799Y-80717583D01*
X242924331Y-79519177D01*
X242132282Y-78616666D01*
X241868674Y-78332142D01*
X241565414Y-78015201D01*
X241235671Y-77678831D01*
X240892613Y-77336021D01*
X240549407Y-76999757D01*
X240219221Y-76683029D01*
X239915224Y-76398822D01*
X239650582Y-76160127D01*
X239574667Y-76094019D01*
X238599419Y-75295352D01*
X237626421Y-74581130D01*
X236655258Y-73951173D01*
X235685511Y-73405300D01*
X234716763Y-72943331D01*
X233748598Y-72565086D01*
X232780598Y-72270386D01*
X231812347Y-72059050D01*
X230843428Y-71930897D01*
X229873424Y-71885749D01*
X229829982Y-71885666D01*
X229391250Y-71891552D01*
X228955616Y-71910233D01*
X228503096Y-71943250D01*
X228013709Y-71992139D01*
X227467471Y-72058440D01*
X227301898Y-72080297D01*
X226082103Y-72275259D01*
X224926980Y-72524551D01*
X223836596Y-72828112D01*
X222811019Y-73185878D01*
X221850317Y-73597786D01*
X220954558Y-74063774D01*
X220123809Y-74583779D01*
X219358138Y-75157739D01*
X218657613Y-75785590D01*
X218022301Y-76467271D01*
X217452271Y-77202718D01*
X216947590Y-77991869D01*
X216508326Y-78834662D01*
X216134546Y-79731032D01*
X215826319Y-80680919D01*
X215583712Y-81684259D01*
X215406792Y-82740989D01*
X215360213Y-83125166D01*
X215280761Y-84137142D01*
X215257081Y-85198847D01*
X212152077Y-85198847D01*
X212154655Y-84897434D01*
X212165315Y-84408429D01*
X212182109Y-83938050D01*
X212204690Y-83505283D01*
X212232710Y-83129114D01*
X212247689Y-82977000D01*
X212415782Y-81759271D01*
X212649969Y-80593355D01*
X212950073Y-79479565D01*
X213315918Y-78418216D01*
X213747329Y-77409622D01*
X214244130Y-76454097D01*
X214806145Y-75551954D01*
X215433198Y-74703509D01*
X216125113Y-73909074D01*
X216881715Y-73168964D01*
X217702828Y-72483493D01*
X218408000Y-71973343D01*
X219290272Y-71418373D01*
X220223523Y-70916552D01*
X221210200Y-70467104D01*
X222252753Y-70069253D01*
X223353630Y-69722222D01*
X224515280Y-69425236D01*
X225740151Y-69177519D01*
X227030692Y-68978294D01*
X228314000Y-68833780D01*
X228634212Y-68810748D01*
X229013855Y-68794805D01*
X229430772Y-68785950D01*
X229862808Y-68784187D01*
X230287807Y-68789515D01*
X230683614Y-68801937D01*
X231028072Y-68821453D01*
X231171500Y-68833616D01*
X231957618Y-68928055D01*
X232716675Y-69057504D01*
X233463711Y-69226135D01*
X234213764Y-69438122D01*
X234981876Y-69697638D01*
X235783084Y-70008856D01*
X236473750Y-70304863D01*
X236482271Y-70293523D01*
X236489874Y-70248881D01*
X236496602Y-70167005D01*
X236502499Y-70043962D01*
X236507607Y-69875821D01*
X236511970Y-69658647D01*
X236515631Y-69388510D01*
X236518635Y-69061475D01*
X236521023Y-68673611D01*
X236522840Y-68220985D01*
X236524129Y-67699665D01*
X236524933Y-67105717D01*
X236525296Y-66435210D01*
X236525261Y-65684211D01*
X236525247Y-65635445D01*
X236523828Y-60942500D01*
X236387664Y-61111700D01*
X236189283Y-61347444D01*
X235951477Y-61613203D01*
X235695161Y-61886824D01*
X235441255Y-62146156D01*
X235210676Y-62369045D01*
X235135272Y-62438013D01*
X234375220Y-63072805D01*
X233587069Y-63637911D01*
X232765974Y-64135383D01*
X231907088Y-64567275D01*
X231005565Y-64935639D01*
X230056560Y-65242527D01*
X229055227Y-65489995D01*
X227996719Y-65680093D01*
X227255667Y-65776103D01*
X226918307Y-65805572D01*
X226514118Y-65827777D01*
X226060624Y-65842720D01*
X225575349Y-65850406D01*
X225075818Y-65850838D01*
X224579555Y-65844021D01*
X224104084Y-65829959D01*
X223666930Y-65808656D01*
X223285618Y-65780115D01*
X223234000Y-65775179D01*
X222067394Y-65638878D01*
X220905847Y-65460154D01*
X219734972Y-65236057D01*
X218540385Y-64963634D01*
X217307701Y-64639937D01*
X216361837Y-64365446D01*
X216143057Y-64301071D01*
X215952348Y-64247805D01*
X215804594Y-64209580D01*
X215714678Y-64190332D01*
X215695304Y-64189248D01*
X215666597Y-64226817D01*
X215598095Y-64330130D01*
X215493945Y-64492561D01*
X215358296Y-64707484D01*
X215195298Y-64968273D01*
X215009098Y-65268304D01*
X214803846Y-65600949D01*
X214583690Y-65959585D01*
X214454607Y-66170666D01*
X214222867Y-66548516D01*
X213999332Y-66909904D01*
X213788767Y-67247330D01*
X213595938Y-67553298D01*
X213425613Y-67820307D01*
X213282558Y-68040860D01*
X213171538Y-68207458D01*
X213097320Y-68312602D01*
X213076589Y-68338566D01*
X212879645Y-68516707D01*
X212634174Y-68669072D01*
X212617838Y-68677233D01*
X212470347Y-68745759D01*
X212348964Y-68787299D01*
X212222064Y-68808468D01*
X212058024Y-68815883D01*
X211952167Y-68816500D01*
X211757126Y-68813417D01*
X211615351Y-68799871D01*
X211495534Y-68769416D01*
X211366371Y-68715603D01*
X211295110Y-68681188D01*
X211124084Y-68582209D01*
X210956242Y-68461446D01*
X210846968Y-68363688D01*
X210792076Y-68293153D01*
X210698302Y-68157488D01*
X210570385Y-67964124D01*
X210413067Y-67720497D01*
X210231086Y-67434037D01*
X210029185Y-67112179D01*
X209812101Y-66762355D01*
X209584577Y-66391999D01*
X209475411Y-66213000D01*
X209249292Y-65841671D01*
X209035886Y-65491828D01*
X208839329Y-65170208D01*
X208663756Y-64883550D01*
X208513303Y-64638593D01*
X208392106Y-64442074D01*
X208304301Y-64300733D01*
X208254023Y-64221308D01*
X208243856Y-64206446D01*
X208194069Y-64206221D01*
X208074019Y-64228934D01*
X207894180Y-64272036D01*
X207665029Y-64332975D01*
X207397041Y-64409202D01*
X207329413Y-64429101D01*
X205833034Y-64843829D01*
X204383464Y-65188078D01*
X202980588Y-65461843D01*
X201624288Y-65665117D01*
X200314450Y-65797894D01*
X199050956Y-65860168D01*
X197833689Y-65851934D01*
X196662535Y-65773185D01*
X195537376Y-65623916D01*
X194458095Y-65404119D01*
X193424578Y-65113790D01*
X192436707Y-64752922D01*
X191494366Y-64321510D01*
X190597438Y-63819546D01*
X190166244Y-63542292D01*
X189738131Y-63235763D01*
X189293435Y-62883336D01*
X188849608Y-62500836D01*
X188424105Y-62104088D01*
X188034378Y-61708916D01*
X187697881Y-61331144D01*
X187612649Y-61226984D01*
X187504053Y-61095332D01*
X187415699Y-60995860D01*
X187360011Y-60942169D01*
X187347802Y-60937086D01*
X187344820Y-60982154D01*
X187344498Y-61102160D01*
X184235966Y-61102160D01*
X184228892Y-60481094D01*
X184221853Y-59683391D01*
X184215891Y-58812586D01*
X184215212Y-58698833D01*
X184211053Y-57784465D01*
X184209424Y-56899152D01*
X184210258Y-56047648D01*
X184213485Y-55234709D01*
X184219039Y-54465092D01*
X184226851Y-53743550D01*
X184236854Y-53074840D01*
X184248979Y-52463718D01*
X184262432Y-51943049D01*
X187386697Y-51943049D01*
X187417583Y-52497000D01*
X187550672Y-53514017D01*
X187749563Y-54498170D01*
X188012286Y-55444889D01*
X188336870Y-56349605D01*
X188721344Y-57207748D01*
X189163738Y-58014749D01*
X189662082Y-58766040D01*
X190214406Y-59457050D01*
X190595000Y-59865236D01*
X191223274Y-60443082D01*
X191898509Y-60955782D01*
X192621781Y-61403651D01*
X193394166Y-61787007D01*
X194216740Y-62106168D01*
X195090578Y-62361449D01*
X196016757Y-62553167D01*
X196996352Y-62681640D01*
X198030440Y-62747185D01*
X199120097Y-62750117D01*
X200204667Y-62695425D01*
X200873155Y-62631557D01*
X201602565Y-62536125D01*
X202376595Y-62412276D01*
X203178941Y-62263156D01*
X203993301Y-62091910D01*
X204803371Y-61901684D01*
X205592849Y-61695625D01*
X206032220Y-61570878D01*
X206546941Y-61420041D01*
X206167970Y-60800270D01*
X206061570Y-60626206D01*
X205918238Y-60391638D01*
X205745158Y-60108327D01*
X205549514Y-59788034D01*
X205453096Y-59630166D01*
X209100424Y-59630166D01*
X210526295Y-61964689D01*
X210774357Y-62369408D01*
X211009290Y-62749944D01*
X211227408Y-63100501D01*
X211425022Y-63415284D01*
X211598446Y-63688495D01*
X211743992Y-63914338D01*
X211857974Y-64087016D01*
X211936704Y-64200733D01*
X211976495Y-64249692D01*
X211980430Y-64250689D01*
X212006937Y-64206935D01*
X212073801Y-64097201D01*
X212177203Y-63927739D01*
X212313325Y-63704799D01*
X212478349Y-63434631D01*
X212668457Y-63123485D01*
X212879831Y-62777613D01*
X213108653Y-62403264D01*
X213351105Y-62006689D01*
X213406454Y-61916166D01*
X213709157Y-61421102D01*
X217372218Y-61421102D01*
X217372259Y-61421234D01*
X217417102Y-61438790D01*
X217530819Y-61474130D01*
X217700362Y-61523660D01*
X217912681Y-61583786D01*
X218154728Y-61650915D01*
X218413453Y-61721454D01*
X218675806Y-61791808D01*
X218928740Y-61858384D01*
X219159205Y-61917589D01*
X219318167Y-61957117D01*
X220529487Y-62230492D01*
X221685680Y-62446386D01*
X222793215Y-62605405D01*
X223858562Y-62708154D01*
X224888191Y-62755240D01*
X225888573Y-62747268D01*
X226866177Y-62684845D01*
X226977126Y-62674233D01*
X227959116Y-62540290D01*
X228894265Y-62337746D01*
X229781478Y-62067246D01*
X230619660Y-61729436D01*
X231407715Y-61324961D01*
X232144548Y-60854464D01*
X232829063Y-60318593D01*
X233460165Y-59717992D01*
X234036759Y-59053305D01*
X234557749Y-58325178D01*
X234674312Y-58141189D01*
X235088432Y-57407670D01*
X235454843Y-56627899D01*
X235770977Y-55813096D01*
X236034264Y-54974483D01*
X236242133Y-54123279D01*
X236392016Y-53270704D01*
X236481343Y-52427980D01*
X236507544Y-51606327D01*
X236468049Y-50816965D01*
X236428808Y-50479953D01*
X236262856Y-49583103D01*
X236017726Y-48715738D01*
X235693828Y-47878456D01*
X235291571Y-47071857D01*
X234811364Y-46296540D01*
X234253618Y-45553103D01*
X233618740Y-44842146D01*
X232907141Y-44164267D01*
X232119230Y-43520065D01*
X231256167Y-42910634D01*
X230965700Y-42723742D01*
X230672671Y-42542551D01*
X230386332Y-42372115D01*
X230115935Y-42217487D01*
X229870733Y-42083718D01*
X229659978Y-41975861D01*
X229492924Y-41898969D01*
X229378822Y-41858095D01*
X229327618Y-41857504D01*
X229298272Y-41900624D01*
X229230117Y-42007628D01*
X229128383Y-42170091D01*
X228998305Y-42379590D01*
X228845115Y-42627697D01*
X228674046Y-42905990D01*
X228509222Y-43175134D01*
X228311148Y-43501817D01*
X228138809Y-43791453D01*
X227995677Y-44037900D01*
X227885221Y-44235016D01*
X227810914Y-44376658D01*
X227776223Y-44456683D01*
X227776133Y-44472660D01*
X227834792Y-44491384D01*
X227955571Y-44530992D01*
X228120301Y-44585496D01*
X228292833Y-44642911D01*
X229020109Y-44929332D01*
X229707545Y-45287810D01*
X230351099Y-45713680D01*
X230946730Y-46202272D01*
X231490396Y-46748920D01*
X231978055Y-47348956D01*
X232405667Y-47997712D01*
X232769188Y-48690519D01*
X233064579Y-49422712D01*
X233287797Y-50189621D01*
X233352261Y-50486166D01*
X233431011Y-51019229D01*
X233469689Y-51599687D01*
X233468529Y-52200477D01*
X233427765Y-52794538D01*
X233347630Y-53354805D01*
X233326526Y-53462232D01*
X233124617Y-54233523D01*
X232845520Y-54975053D01*
X232493118Y-55681465D01*
X232071296Y-56347403D01*
X231583940Y-56967508D01*
X231034932Y-57536425D01*
X230428159Y-58048797D01*
X229767503Y-58499265D01*
X229603677Y-58596239D01*
X228961851Y-58922417D01*
X228269423Y-59194260D01*
X227546008Y-59404741D01*
X227065167Y-59505906D01*
X226722190Y-59552790D01*
X226324227Y-59583909D01*
X225899580Y-59598705D01*
X225476554Y-59596619D01*
X225083450Y-59577094D01*
X224821500Y-59550164D01*
X224012066Y-59401627D01*
X223239838Y-59177237D01*
X222502823Y-58876116D01*
X221799028Y-58497382D01*
X221126459Y-58040154D01*
X220781787Y-57765538D01*
X220608008Y-57615119D01*
X220437494Y-57459599D01*
X220293389Y-57320473D01*
X220219955Y-57243615D01*
X220034991Y-57037890D01*
X218698325Y-59223028D01*
X218459959Y-59613190D01*
X218235540Y-59981469D01*
X218028844Y-60321608D01*
X217843645Y-60627350D01*
X217683718Y-60892437D01*
X217552837Y-61110613D01*
X217454777Y-61275621D01*
X217393312Y-61381203D01*
X217372218Y-61421102D01*
X213709157Y-61421102D01*
X214804215Y-59630166D01*
X213391866Y-59619023D01*
X212965243Y-59616467D01*
X212481801Y-59614935D01*
X211969383Y-59614427D01*
X211455830Y-59614943D01*
X210968985Y-59616484D01*
X210539970Y-59619023D01*
X209100424Y-59630166D01*
X205453096Y-59630166D01*
X205338489Y-59442520D01*
X205119268Y-59083547D01*
X204899035Y-58722875D01*
X204831661Y-58612530D01*
X203874322Y-57044560D01*
X203679911Y-57252616D01*
X203564764Y-57367883D01*
X203407237Y-57514965D01*
X203230741Y-57672384D01*
X203104500Y-57780539D01*
X202453901Y-58272947D01*
X201766938Y-58690094D01*
X201048279Y-59030783D01*
X200302590Y-59293813D01*
X199534537Y-59477986D01*
X198748787Y-59582102D01*
X197950006Y-59604962D01*
X197142862Y-59545366D01*
X196585167Y-59455871D01*
X196087491Y-59333204D01*
X195556770Y-59157593D01*
X195016417Y-58939186D01*
X194489844Y-58688135D01*
X194000463Y-58414588D01*
X193643000Y-58180366D01*
X193394892Y-57988173D01*
X193114895Y-57744955D01*
X192820131Y-57467846D01*
X192527719Y-57173979D01*
X192254780Y-56880489D01*
X192018435Y-56604510D01*
X191855681Y-56391666D01*
X191512128Y-55852897D01*
X191199885Y-55258673D01*
X190931191Y-54636030D01*
X190718285Y-54012007D01*
X190631805Y-53688105D01*
X190488313Y-52912127D01*
X190426376Y-52138031D01*
X190428773Y-52028272D01*
X193534286Y-52028272D01*
X193583846Y-52601494D01*
X193705496Y-53164911D01*
X193899048Y-53711368D01*
X194164316Y-54233709D01*
X194501112Y-54724778D01*
X194909250Y-55177420D01*
X194928887Y-55196384D01*
X195269076Y-55500155D01*
X195602808Y-55747112D01*
X195958863Y-55957430D01*
X196153124Y-56054616D01*
X196726574Y-56281145D01*
X197322474Y-56427651D01*
X197933238Y-56493271D01*
X198551280Y-56477141D01*
X199111290Y-56391195D01*
X199660663Y-56231864D01*
X200199493Y-55995440D01*
X200712976Y-55689388D01*
X201121713Y-55377295D01*
X201324688Y-55187228D01*
X201540674Y-54956591D01*
X201748966Y-54709713D01*
X201928858Y-54470923D01*
X202041904Y-54296062D01*
X202115541Y-54168958D01*
X197939833Y-47325156D01*
X197660811Y-47349581D01*
X197144486Y-47432835D01*
X196619793Y-47588249D01*
X196103992Y-47807284D01*
X195614341Y-48081406D01*
X195168099Y-48402076D01*
X194782525Y-48760760D01*
X194761280Y-48783758D01*
X194374375Y-49265539D01*
X194060682Y-49780450D01*
X193820013Y-50321334D01*
X193652182Y-50881037D01*
X193557002Y-51452401D01*
X193534286Y-52028272D01*
X190428773Y-52028272D01*
X190443134Y-51370985D01*
X190535727Y-50616159D01*
X190701295Y-49878720D01*
X190936977Y-49163839D01*
X191239912Y-48476684D01*
X191607241Y-47822424D01*
X192036103Y-47206227D01*
X192523637Y-46633263D01*
X193066983Y-46108700D01*
X193663282Y-45637707D01*
X194309672Y-45225454D01*
X195003293Y-44877108D01*
X195644715Y-44629460D01*
X195834345Y-44563165D01*
X195990396Y-44503274D01*
X196097618Y-44456030D01*
X196140763Y-44427678D01*
X196140984Y-44426289D01*
X196119059Y-44383019D01*
X196057840Y-44275930D01*
X195962302Y-44113373D01*
X195837418Y-43903701D01*
X195688161Y-43655267D01*
X195519505Y-43376423D01*
X195345769Y-43090839D01*
X194553167Y-41791513D01*
X194108667Y-42029204D01*
X193133499Y-42587553D01*
X192232230Y-43179914D01*
X191405604Y-43805513D01*
X190654365Y-44463573D01*
X189979259Y-45153320D01*
X189381029Y-45873977D01*
X188860421Y-46624770D01*
X188418179Y-47404923D01*
X188055048Y-48213660D01*
X187979784Y-48411833D01*
X187763592Y-49086225D01*
X187593451Y-49796426D01*
X187472097Y-50522552D01*
X187402267Y-51244721D01*
X187386697Y-51943049D01*
X184262432Y-51943049D01*
X184263159Y-51914939D01*
X184279326Y-51433258D01*
X184297412Y-51023432D01*
X184317349Y-50690215D01*
X184332160Y-50507333D01*
X184466230Y-49519973D01*
X184681596Y-48539188D01*
X184974912Y-47573587D01*
X185342831Y-46631784D01*
X185782008Y-45722390D01*
X186289097Y-44854016D01*
X186832374Y-44072666D01*
X186985808Y-43872996D01*
X187142427Y-43674914D01*
X187285272Y-43499521D01*
X187397383Y-43367919D01*
X187410736Y-43353000D01*
X187621161Y-43120166D01*
X187245923Y-42727513D01*
X186653796Y-42049426D01*
X186135825Y-41332828D01*
X185693253Y-40580294D01*
X185327320Y-39794396D01*
X185039269Y-38977710D01*
X184830339Y-38132808D01*
X184729922Y-37511000D01*
X184693736Y-37119089D01*
X184675205Y-36673418D01*
X184673951Y-36258340D01*
X187784298Y-36258340D01*
X187788918Y-36646908D01*
X187808216Y-37012008D01*
X187842200Y-37328230D01*
X187857933Y-37424678D01*
X188022795Y-38092837D01*
X188269324Y-38743165D01*
X188595777Y-39372358D01*
X189000408Y-39977114D01*
X189481474Y-40554130D01*
X189547890Y-40625194D01*
X189920953Y-41019386D01*
X190327714Y-40724772D01*
X190498304Y-40604450D01*
X197486654Y-40604450D01*
X197491717Y-40632284D01*
X197506488Y-40657732D01*
X197533863Y-40702137D01*
X197603342Y-40815470D01*
X197712892Y-40994405D01*
X197860481Y-41235619D01*
X198044076Y-41535787D01*
X198261646Y-41891582D01*
X198511157Y-42299681D01*
X198790577Y-42756759D01*
X199097874Y-43259490D01*
X199431017Y-43804549D01*
X199787971Y-44388613D01*
X200166705Y-45008355D01*
X200565187Y-45660452D01*
X200981384Y-46341577D01*
X201413264Y-47048407D01*
X201858795Y-47777616D01*
X202315943Y-48525879D01*
X202382048Y-48634083D01*
X207198947Y-56518666D01*
X216705854Y-56518666D01*
X218129259Y-54189002D01*
X221814864Y-54189002D01*
X221844568Y-54263047D01*
X221911403Y-54375271D01*
X221987633Y-54492095D01*
X222326980Y-54931797D01*
X222732266Y-55331547D01*
X223191402Y-55684256D01*
X223692297Y-55982836D01*
X224222861Y-56220197D01*
X224771005Y-56389249D01*
X225324639Y-56482905D01*
X225393000Y-56488908D01*
X225606154Y-56503900D01*
X225773442Y-56509521D01*
X225930059Y-56505147D01*
X226111200Y-56490156D01*
X226267844Y-56473412D01*
X226880329Y-56363783D01*
X227466807Y-56176084D01*
X228019935Y-55913680D01*
X228532373Y-55579934D01*
X228908339Y-55263600D01*
X229328252Y-54814344D01*
X229676540Y-54327640D01*
X229953471Y-53810518D01*
X230159316Y-53270002D01*
X230294345Y-52713119D01*
X230358828Y-52146896D01*
X230353036Y-51578359D01*
X230277238Y-51014535D01*
X230131705Y-50462451D01*
X229916706Y-49929133D01*
X229632513Y-49421607D01*
X229279394Y-48946900D01*
X228857621Y-48512038D01*
X228641701Y-48328179D01*
X228251284Y-48054245D01*
X227810764Y-47812129D01*
X227342266Y-47610919D01*
X226867916Y-47459704D01*
X226409839Y-47367571D01*
X226264139Y-47351523D01*
X225964500Y-47326169D01*
X223932500Y-50656218D01*
X223635734Y-51142551D01*
X223350727Y-51609597D01*
X223080676Y-52052119D01*
X222828776Y-52464880D01*
X222598226Y-52842643D01*
X222392220Y-53180170D01*
X222213956Y-53472223D01*
X222066630Y-53713566D01*
X221953439Y-53898962D01*
X221877580Y-54023172D01*
X221842248Y-54080960D01*
X221840906Y-54083146D01*
X221815805Y-54135061D01*
X221814864Y-54189002D01*
X218129259Y-54189002D01*
X221523270Y-48634083D01*
X221981949Y-47883384D01*
X222429293Y-47151263D01*
X222863270Y-46441045D01*
X223281848Y-45756056D01*
X223682994Y-45099619D01*
X224064676Y-44475059D01*
X224424863Y-43885702D01*
X224761521Y-43334871D01*
X225072619Y-42825892D01*
X225356125Y-42362089D01*
X225610007Y-41946787D01*
X225832231Y-41583311D01*
X226020767Y-41274986D01*
X226173582Y-41025136D01*
X226288644Y-40837086D01*
X226363921Y-40714160D01*
X226397380Y-40659685D01*
X226398629Y-40657682D01*
X226416188Y-40625218D01*
X226416632Y-40597123D01*
X226390184Y-40568676D01*
X226327066Y-40535158D01*
X226217502Y-40491851D01*
X226051715Y-40434035D01*
X225819927Y-40356990D01*
X225681370Y-40311470D01*
X224161594Y-39849072D01*
X222578594Y-39438124D01*
X222208654Y-39357290D01*
X231388199Y-39357290D01*
X231388607Y-39358866D01*
X231468510Y-39398578D01*
X231607168Y-39476823D01*
X231792341Y-39586007D01*
X232011786Y-39718536D01*
X232253260Y-39866817D01*
X232504523Y-40023256D01*
X232753331Y-40180259D01*
X232987442Y-40330232D01*
X233194615Y-40465582D01*
X233362607Y-40578715D01*
X233421352Y-40619778D01*
X233602956Y-40746798D01*
X233762182Y-40854282D01*
X233885443Y-40933353D01*
X233959154Y-40975133D01*
X233971685Y-40979413D01*
X234018517Y-40951393D01*
X234108753Y-40873136D01*
X234228862Y-40757063D01*
X234348921Y-40633083D01*
X234824057Y-40083145D01*
X235219798Y-39524368D01*
X235541411Y-38946736D01*
X235794159Y-38340237D01*
X235983308Y-37694855D01*
X236045955Y-37405166D01*
X236085754Y-37125635D01*
X236110714Y-36787212D01*
X236120872Y-36414354D01*
X236116265Y-36031519D01*
X236096929Y-35663163D01*
X236062901Y-35333745D01*
X236042647Y-35203833D01*
X236009459Y-35024644D01*
X235979850Y-34878968D01*
X235957759Y-34785440D01*
X235949030Y-34761121D01*
X235916947Y-34787241D01*
X235829772Y-34868858D01*
X235692111Y-35001429D01*
X235508571Y-35180416D01*
X235283759Y-35401278D01*
X235022282Y-35659474D01*
X234728747Y-35950464D01*
X234407761Y-36269707D01*
X234063931Y-36612662D01*
X233701863Y-36974791D01*
X233635677Y-37041091D01*
X233271925Y-37406398D01*
X232927154Y-37754280D01*
X232605830Y-38080130D01*
X232312419Y-38379344D01*
X232051386Y-38647314D01*
X231827198Y-38879434D01*
X231644319Y-39071097D01*
X231507216Y-39217699D01*
X231420354Y-39314632D01*
X231388199Y-39357290D01*
X222208654Y-39357290D01*
X220936988Y-39079424D01*
X219241396Y-38773766D01*
X217496435Y-38521947D01*
X215706723Y-38324764D01*
X213876880Y-38183013D01*
X213083849Y-38139541D01*
X212652649Y-38121389D01*
X212263763Y-38111387D01*
X211888579Y-38109525D01*
X211498484Y-38115793D01*
X211064866Y-38130180D01*
X210860680Y-38138739D01*
X209226676Y-38235457D01*
X207603797Y-38380788D01*
X206000992Y-38573201D01*
X204427209Y-38811164D01*
X202891398Y-39093146D01*
X201402506Y-39417618D01*
X199969482Y-39783048D01*
X198601275Y-40187906D01*
X198286496Y-40289796D01*
X198007125Y-40382094D01*
X197798774Y-40452509D01*
X197651997Y-40505496D01*
X197557348Y-40545512D01*
X197505383Y-40577011D01*
X197486654Y-40604450D01*
X190498304Y-40604450D01*
X190531914Y-40580744D01*
X190775848Y-40414570D01*
X191026952Y-40248167D01*
X191225654Y-40120423D01*
X191455205Y-39978210D01*
X191706526Y-39826623D01*
X191947569Y-39684786D01*
X192128659Y-39581594D01*
X192293723Y-39488018D01*
X192427430Y-39408885D01*
X192514785Y-39353292D01*
X192541409Y-39331186D01*
X192512575Y-39296803D01*
X192429315Y-39208801D01*
X192297229Y-39072758D01*
X192121922Y-38894250D01*
X191908995Y-38678854D01*
X191664050Y-38432146D01*
X191392691Y-38159704D01*
X191100521Y-37867104D01*
X190793140Y-37559922D01*
X190476153Y-37243736D01*
X190155162Y-36924121D01*
X189835769Y-36606656D01*
X189523577Y-36296916D01*
X189224188Y-36000478D01*
X188943206Y-35722918D01*
X188686231Y-35469815D01*
X188458868Y-35246744D01*
X188266719Y-35059281D01*
X188115386Y-34913005D01*
X188010471Y-34813490D01*
X187957578Y-34766315D01*
X187952297Y-34763257D01*
X187936540Y-34811537D01*
X187911198Y-34924555D01*
X187880262Y-35083476D01*
X187858453Y-35205920D01*
X187819071Y-35512436D01*
X187794351Y-35871713D01*
X187784298Y-36258340D01*
X184673951Y-36258340D01*
X184673772Y-36199167D01*
X184688883Y-35721517D01*
X184719979Y-35265647D01*
X184766504Y-34856739D01*
X184792136Y-34695833D01*
X184980477Y-33810523D01*
X185225763Y-32969869D01*
X185535036Y-32150127D01*
X185575611Y-32054756D01*
X185751525Y-31664349D01*
X185914035Y-31346295D01*
X186070328Y-31090825D01*
X186227590Y-30888168D01*
X186393009Y-30728552D01*
X186573771Y-30602208D01*
X186690197Y-30539477D01*
X186809984Y-30484610D01*
X186916239Y-30449651D01*
X187034218Y-30430228D01*
X187189178Y-30421969D01*
X187377667Y-30420463D01*
X187585146Y-30422633D01*
X187732649Y-30431738D01*
X187844826Y-30452166D01*
X187946329Y-30488305D01*
X188055000Y-30541018D01*
X188101090Y-30569675D01*
X188165469Y-30618385D01*
X188251120Y-30690040D01*
X188361028Y-30787535D01*
X188498176Y-30913761D01*
X188665546Y-31071614D01*
X188866124Y-31263985D01*
X189102892Y-31493769D01*
X189378835Y-31763859D01*
X189696935Y-32077148D01*
X190060176Y-32436530D01*
X190471542Y-32844898D01*
X190934017Y-33305146D01*
X191450584Y-33820166D01*
X191934254Y-34302990D01*
X195580675Y-37944705D01*
X196188754Y-37722682D01*
X197660897Y-37221342D01*
X199199767Y-36767543D01*
X200801537Y-36362020D01*
X202462384Y-36005506D01*
X204178480Y-35698737D01*
X205946002Y-35442445D01*
X207761123Y-35237366D01*
X209620018Y-35084234D01*
X210089500Y-35054252D01*
X210517655Y-35033909D01*
X211007786Y-35019807D01*
X211537431Y-35011947D01*
X212084130Y-35010329D01*
X212625422Y-35014952D01*
X213138846Y-35025817D01*
X213601942Y-35042924D01*
X213814833Y-35054252D01*
X215703000Y-35195922D01*
X217545592Y-35390501D01*
X219339317Y-35637350D01*
X221080884Y-35935830D01*
X222766999Y-36285301D01*
X224394372Y-36685123D01*
X225959710Y-37134658D01*
X227459721Y-37633265D01*
X227882644Y-37787175D01*
X228319121Y-37949239D01*
X231967811Y-34305257D01*
X232532862Y-33741244D01*
X233041285Y-33234463D01*
X233496063Y-32782022D01*
X233900177Y-32381028D01*
X234256610Y-32028588D01*
X234568345Y-31721811D01*
X234838365Y-31457803D01*
X235069652Y-31233673D01*
X235265189Y-31046527D01*
X235427958Y-30893474D01*
X235560942Y-30771620D01*
X235667124Y-30678073D01*
X235749486Y-30609942D01*
X235811010Y-30564332D01*
X235849333Y-30541018D01*
X235963467Y-30485945D01*
X236064917Y-30450741D01*
X236178336Y-30431016D01*
X236328375Y-30422384D01*
X236526667Y-30420463D01*
X236736514Y-30422590D01*
G37*
%TD.AperFunction*%
%TD*%
M02*
