%TF.GenerationSoftware,KiCad,Pcbnew,5.1.10*%
%TF.CreationDate,2021-11-12T19:35:59+01:00*%
%TF.ProjectId,owlThief,6f776c54-6869-4656-962e-6b696361645f,rev?*%
%TF.SameCoordinates,Original*%
%TF.FileFunction,Profile,NP*%
%FSLAX46Y46*%
G04 Gerber Fmt 4.6, Leading zero omitted, Abs format (unit mm)*
G04 Created by KiCad (PCBNEW 5.1.10) date 2021-11-12 19:35:59*
%MOMM*%
%LPD*%
G01*
G04 APERTURE LIST*
%TA.AperFunction,Profile*%
%ADD10C,0.200000*%
%TD*%
G04 APERTURE END LIST*
D10*
X228129394Y-36843670D02*
X227749132Y-36707069D01*
X227749132Y-36707069D02*
X227367573Y-36574575D01*
X227367573Y-36574575D02*
X226984757Y-36446130D01*
X226984757Y-36446130D02*
X226600726Y-36321677D01*
X226600726Y-36321677D02*
X226215519Y-36201159D01*
X226215519Y-36201159D02*
X225829176Y-36084518D01*
X225829176Y-36084518D02*
X225441739Y-35971697D01*
X225441739Y-35971697D02*
X225053248Y-35862638D01*
X225053248Y-35862638D02*
X224663742Y-35757284D01*
X224663742Y-35757284D02*
X224273263Y-35655577D01*
X224273263Y-35655577D02*
X223881851Y-35557460D01*
X223881851Y-35557460D02*
X223489546Y-35462876D01*
X223489546Y-35462876D02*
X223096389Y-35371768D01*
X223096389Y-35371768D02*
X222702420Y-35284077D01*
X222702420Y-35284077D02*
X222307680Y-35199747D01*
X222307680Y-35199747D02*
X221912209Y-35118720D01*
X221912209Y-35118720D02*
X221516047Y-35040938D01*
X221516047Y-35040938D02*
X221119236Y-34966345D01*
X221119236Y-34966345D02*
X220721814Y-34894882D01*
X220721814Y-34894882D02*
X220323824Y-34826493D01*
X220323824Y-34826493D02*
X219925304Y-34761120D01*
X219925304Y-34761120D02*
X219526296Y-34698706D01*
X219526296Y-34698706D02*
X219126840Y-34639193D01*
X219126840Y-34639193D02*
X218726977Y-34582524D01*
X218726977Y-34582524D02*
X218326746Y-34528641D01*
X218326746Y-34528641D02*
X217926189Y-34477487D01*
X217926189Y-34477487D02*
X217525346Y-34429005D01*
X217525346Y-34429005D02*
X217124257Y-34383137D01*
X217124257Y-34383137D02*
X216722962Y-34339825D01*
X216722962Y-34339825D02*
X216321503Y-34299014D01*
X216321503Y-34299014D02*
X215919919Y-34260644D01*
X215919919Y-34260644D02*
X215518251Y-34224659D01*
X237895208Y-121462831D02*
X238379576Y-121625295D01*
X238379576Y-121625295D02*
X238865850Y-121781528D01*
X238865850Y-121781528D02*
X239353959Y-121931560D01*
X239353959Y-121931560D02*
X239843830Y-122075421D01*
X239843830Y-122075421D02*
X240335392Y-122213142D01*
X240335392Y-122213142D02*
X240828571Y-122344754D01*
X240828571Y-122344754D02*
X241323296Y-122470286D01*
X241323296Y-122470286D02*
X241819496Y-122589770D01*
X241819496Y-122589770D02*
X242317097Y-122703236D01*
X242317097Y-122703236D02*
X242816028Y-122810714D01*
X242816028Y-122810714D02*
X243316217Y-122912235D01*
X243316217Y-122912235D02*
X243817591Y-123007830D01*
X243817591Y-123007830D02*
X244320078Y-123097529D01*
X244320078Y-123097529D02*
X244823607Y-123181362D01*
X244823607Y-123181362D02*
X245328105Y-123259360D01*
X245328105Y-123259360D02*
X245833500Y-123331554D01*
X245833500Y-123331554D02*
X246339720Y-123397973D01*
X246339720Y-123397973D02*
X246846693Y-123458650D01*
X246846693Y-123458650D02*
X247354347Y-123513613D01*
X247354347Y-123513613D02*
X247862610Y-123562894D01*
X247862610Y-123562894D02*
X248371409Y-123606523D01*
X248371409Y-123606523D02*
X248880673Y-123644530D01*
X248880673Y-123644530D02*
X249390330Y-123676947D01*
X249390330Y-123676947D02*
X249900306Y-123703803D01*
X249900306Y-123703803D02*
X250410531Y-123725129D01*
X250410531Y-123725129D02*
X250920933Y-123740956D01*
X250920933Y-123740956D02*
X251431438Y-123751314D01*
X251431438Y-123751314D02*
X251941975Y-123756234D01*
X251941975Y-123756234D02*
X252452472Y-123755745D01*
X252452472Y-123755745D02*
X252962857Y-123749880D01*
X252962857Y-123749880D02*
X253473057Y-123738667D01*
X253473057Y-123738667D02*
X253983002Y-123722139D01*
X240740515Y-71754215D02*
X240740390Y-71117664D01*
X240740390Y-71117664D02*
X240740310Y-70481113D01*
X240740310Y-70481113D02*
X240740270Y-69844560D01*
X240740270Y-69844560D02*
X240740265Y-69208007D01*
X240740265Y-69208007D02*
X240740290Y-68571453D01*
X240740290Y-68571453D02*
X240740340Y-67934898D01*
X240740340Y-67934898D02*
X240740409Y-67298343D01*
X240740409Y-67298343D02*
X240740494Y-66661788D01*
X240740494Y-66661788D02*
X240740588Y-66025231D01*
X240740588Y-66025231D02*
X240740687Y-65388675D01*
X240740687Y-65388675D02*
X240740786Y-64752119D01*
X240740786Y-64752119D02*
X240740879Y-64115562D01*
X240740879Y-64115562D02*
X240740962Y-63479005D01*
X240740962Y-63479005D02*
X240741030Y-62842449D01*
X240741030Y-62842449D02*
X240741078Y-62205892D01*
X240741078Y-62205892D02*
X240741100Y-61569336D01*
X240741100Y-61569336D02*
X240741092Y-60932780D01*
X240741092Y-60932780D02*
X240741049Y-60296225D01*
X240741049Y-60296225D02*
X240740965Y-59659670D01*
X240740965Y-59659670D02*
X240740837Y-59023116D01*
X240740837Y-59023116D02*
X240740657Y-58386563D01*
X240740657Y-58386563D02*
X240740423Y-57750010D01*
X240740423Y-57750010D02*
X240740127Y-57113459D01*
X240740127Y-57113459D02*
X240739767Y-56476908D01*
X240739767Y-56476908D02*
X240739336Y-55840359D01*
X240739336Y-55840359D02*
X240738830Y-55203810D01*
X240738830Y-55203810D02*
X240738243Y-54567263D01*
X240738243Y-54567263D02*
X240737571Y-53930718D01*
X240737571Y-53930718D02*
X240736808Y-53294174D01*
X240736808Y-53294174D02*
X240735950Y-52657631D01*
X240735950Y-52657631D02*
X240734991Y-52021091D01*
X240734991Y-52021091D02*
X240733927Y-51384552D01*
X265249835Y-118980478D02*
X265123194Y-118499180D01*
X265123194Y-118499180D02*
X264994978Y-118018304D01*
X264994978Y-118018304D02*
X264865198Y-117537850D01*
X264865198Y-117537850D02*
X264733864Y-117057821D01*
X264733864Y-117057821D02*
X264600988Y-116578217D01*
X264600988Y-116578217D02*
X264466580Y-116099041D01*
X264466580Y-116099041D02*
X264330650Y-115620292D01*
X264330650Y-115620292D02*
X264193211Y-115141974D01*
X264193211Y-115141974D02*
X264054272Y-114664087D01*
X264054272Y-114664087D02*
X263913845Y-114186632D01*
X263913845Y-114186632D02*
X263771941Y-113709611D01*
X263771941Y-113709611D02*
X263628570Y-113233026D01*
X263628570Y-113233026D02*
X263483744Y-112756877D01*
X263483744Y-112756877D02*
X263337472Y-112281167D01*
X263337472Y-112281167D02*
X263189767Y-111805896D01*
X263189767Y-111805896D02*
X263040639Y-111331067D01*
X263040639Y-111331067D02*
X262890098Y-110856679D01*
X262890098Y-110856679D02*
X262738156Y-110382736D01*
X262738156Y-110382736D02*
X262584824Y-109909238D01*
X262584824Y-109909238D02*
X262430112Y-109436186D01*
X262430112Y-109436186D02*
X262274032Y-108963582D01*
X262274032Y-108963582D02*
X262116594Y-108491428D01*
X262116594Y-108491428D02*
X261957809Y-108019725D01*
X261957809Y-108019725D02*
X261797688Y-107548473D01*
X261797688Y-107548473D02*
X261636242Y-107077676D01*
X261636242Y-107077676D02*
X261473481Y-106607333D01*
X261473481Y-106607333D02*
X261309417Y-106137447D01*
X261309417Y-106137447D02*
X261144061Y-105668018D01*
X261144061Y-105668018D02*
X260977423Y-105199049D01*
X260977423Y-105199049D02*
X260809514Y-104730540D01*
X260809514Y-104730540D02*
X260640346Y-104262494D01*
X260640346Y-104262494D02*
X260469929Y-103794911D01*
X215518251Y-34224659D02*
X215181124Y-34196468D01*
X215181124Y-34196468D02*
X214843769Y-34170367D01*
X214843769Y-34170367D02*
X214506209Y-34146517D01*
X214506209Y-34146517D02*
X214168471Y-34125082D01*
X214168471Y-34125082D02*
X213830579Y-34106225D01*
X213830579Y-34106225D02*
X213492559Y-34090110D01*
X213492559Y-34090110D02*
X213154435Y-34076900D01*
X213154435Y-34076900D02*
X212816232Y-34066759D01*
X212816232Y-34066759D02*
X212477976Y-34059848D01*
X212477976Y-34059848D02*
X212139691Y-34056333D01*
X212139691Y-34056333D02*
X211801403Y-34056376D01*
X211801403Y-34056376D02*
X211463137Y-34060140D01*
X211463137Y-34060140D02*
X211124917Y-34067789D01*
X211124917Y-34067789D02*
X210786770Y-34079487D01*
X210786770Y-34079487D02*
X210448719Y-34095395D01*
X210448719Y-34095395D02*
X210110790Y-34115679D01*
X210110790Y-34115679D02*
X209747784Y-34137092D01*
X209747784Y-34137092D02*
X209384869Y-34160653D01*
X209384869Y-34160653D02*
X209022065Y-34186378D01*
X209022065Y-34186378D02*
X208659392Y-34214288D01*
X208659392Y-34214288D02*
X208296870Y-34244399D01*
X208296870Y-34244399D02*
X207934519Y-34276731D01*
X207934519Y-34276731D02*
X207572359Y-34311302D01*
X207572359Y-34311302D02*
X207210411Y-34348131D01*
X207210411Y-34348131D02*
X206848696Y-34387236D01*
X206848696Y-34387236D02*
X206487232Y-34428636D01*
X206487232Y-34428636D02*
X206126041Y-34472348D01*
X206126041Y-34472348D02*
X205765142Y-34518392D01*
X205765142Y-34518392D02*
X205404555Y-34566786D01*
X205404555Y-34566786D02*
X205044302Y-34617548D01*
X205044302Y-34617548D02*
X204684402Y-34670697D01*
X204684402Y-34670697D02*
X204324875Y-34726252D01*
X204324875Y-34726252D02*
X203965742Y-34784231D01*
X203965742Y-34784231D02*
X203607023Y-34844652D01*
X203607023Y-34844652D02*
X203248737Y-34907534D01*
X203248737Y-34907534D02*
X202890906Y-34972895D01*
X202890906Y-34972895D02*
X202533549Y-35040754D01*
X202533549Y-35040754D02*
X202176686Y-35111129D01*
X202176686Y-35111129D02*
X201820338Y-35184039D01*
X201820338Y-35184039D02*
X201464526Y-35259502D01*
X201464526Y-35259502D02*
X201109268Y-35337537D01*
X201109268Y-35337537D02*
X200754586Y-35418163D01*
X200754586Y-35418163D02*
X200400499Y-35501397D01*
X200400499Y-35501397D02*
X200047028Y-35587258D01*
X200047028Y-35587258D02*
X199694193Y-35675765D01*
X199694193Y-35675765D02*
X199342015Y-35766935D01*
X199342015Y-35766935D02*
X198990512Y-35860789D01*
X198990512Y-35860789D02*
X198639707Y-35957344D01*
X187368188Y-94968122D02*
X187491872Y-95437847D01*
X187491872Y-95437847D02*
X187617989Y-95907086D01*
X187617989Y-95907086D02*
X187746606Y-96375783D01*
X187746606Y-96375783D02*
X187877790Y-96843882D01*
X187877790Y-96843882D02*
X188011609Y-97311327D01*
X188011609Y-97311327D02*
X188148130Y-97778063D01*
X188148130Y-97778063D02*
X188287421Y-98244032D01*
X188287421Y-98244032D02*
X188429549Y-98709180D01*
X188429549Y-98709180D02*
X188574581Y-99173450D01*
X188574581Y-99173450D02*
X188722585Y-99636786D01*
X188722585Y-99636786D02*
X188873627Y-100099132D01*
X188873627Y-100099132D02*
X189027777Y-100560432D01*
X189027777Y-100560432D02*
X189185100Y-101020631D01*
X189185100Y-101020631D02*
X189345665Y-101479672D01*
X189345665Y-101479672D02*
X189509538Y-101937499D01*
X189509538Y-101937499D02*
X189676788Y-102394057D01*
X189676788Y-102394057D02*
X189847481Y-102849289D01*
X189847481Y-102849289D02*
X190021685Y-103303139D01*
X190021685Y-103303139D02*
X190199467Y-103755551D01*
X190199467Y-103755551D02*
X190380895Y-104206470D01*
X190380895Y-104206470D02*
X190566037Y-104655840D01*
X190566037Y-104655840D02*
X190754958Y-105103603D01*
X190754958Y-105103603D02*
X190947728Y-105549705D01*
X190947728Y-105549705D02*
X191144413Y-105994090D01*
X191144413Y-105994090D02*
X191345080Y-106436701D01*
X191345080Y-106436701D02*
X191549798Y-106877482D01*
X191549798Y-106877482D02*
X191758633Y-107316378D01*
X191758633Y-107316378D02*
X191971653Y-107753333D01*
X191971653Y-107753333D02*
X192188925Y-108188290D01*
X192188925Y-108188290D02*
X192410517Y-108621194D01*
X192410517Y-108621194D02*
X192636496Y-109051988D01*
X192636496Y-109051988D02*
X192866930Y-109480617D01*
X240329053Y-37223347D02*
X240341276Y-37010100D01*
X240341276Y-37010100D02*
X240349326Y-36796735D01*
X240349326Y-36796735D02*
X240353234Y-36583316D01*
X240353234Y-36583316D02*
X240353032Y-36369909D01*
X240353032Y-36369909D02*
X240348751Y-36156576D01*
X240348751Y-36156576D02*
X240340424Y-35943383D01*
X240340424Y-35943383D02*
X240328082Y-35730394D01*
X240328082Y-35730394D02*
X240311756Y-35517674D01*
X240311756Y-35517674D02*
X240291479Y-35305287D01*
X240291479Y-35305287D02*
X240267281Y-35093298D01*
X240267281Y-35093298D02*
X240239196Y-34881770D01*
X240239196Y-34881770D02*
X240207253Y-34670769D01*
X240207253Y-34670769D02*
X240171486Y-34460358D01*
X240171486Y-34460358D02*
X240131926Y-34250603D01*
X240131926Y-34250603D02*
X240088604Y-34041568D01*
X240088604Y-34041568D02*
X240041553Y-33833317D01*
X240041553Y-33833317D02*
X239990803Y-33625915D01*
X239990803Y-33625915D02*
X239936387Y-33419425D01*
X239936387Y-33419425D02*
X239878336Y-33213914D01*
X239878336Y-33213914D02*
X239816682Y-33009444D01*
X239816682Y-33009444D02*
X239751457Y-32806081D01*
X239751457Y-32806081D02*
X239682693Y-32603889D01*
X239682693Y-32603889D02*
X239610420Y-32402932D01*
X239610420Y-32402932D02*
X239534671Y-32203276D01*
X239534671Y-32203276D02*
X239455478Y-32004983D01*
X239455478Y-32004983D02*
X239372872Y-31808120D01*
X239372872Y-31808120D02*
X239286885Y-31612749D01*
X239286885Y-31612749D02*
X239197548Y-31418937D01*
X239197548Y-31418937D02*
X239104893Y-31226746D01*
X239104893Y-31226746D02*
X239008953Y-31036242D01*
X239008953Y-31036242D02*
X238909758Y-30847490D01*
X238909758Y-30847490D02*
X238807341Y-30660553D01*
X262392387Y-122556151D02*
X262617521Y-122490091D01*
X262617521Y-122490091D02*
X262843831Y-122421353D01*
X262843831Y-122421353D02*
X263069714Y-122348106D01*
X263069714Y-122348106D02*
X263293565Y-122268517D01*
X263293565Y-122268517D02*
X263513780Y-122180755D01*
X263513780Y-122180755D02*
X263728755Y-122082987D01*
X263728755Y-122082987D02*
X263936886Y-121973382D01*
X263936886Y-121973382D02*
X264136569Y-121850107D01*
X264136569Y-121850107D02*
X264326199Y-121711330D01*
X264326199Y-121711330D02*
X264504173Y-121555220D01*
X264504173Y-121555220D02*
X264615555Y-121440612D01*
X264615555Y-121440612D02*
X264779855Y-121252667D01*
X264779855Y-121252667D02*
X264923528Y-121049806D01*
X264923528Y-121049806D02*
X265046207Y-120834136D01*
X265046207Y-120834136D02*
X265147523Y-120607761D01*
X265147523Y-120607761D02*
X265227108Y-120372787D01*
X265227108Y-120372787D02*
X265284593Y-120131320D01*
X265284593Y-120131320D02*
X265319610Y-119885464D01*
X265319610Y-119885464D02*
X265331792Y-119637326D01*
X265331792Y-119637326D02*
X265320770Y-119389011D01*
X265320770Y-119389011D02*
X265286175Y-119142624D01*
X265286175Y-119142624D02*
X265249835Y-118980478D01*
X187925210Y-121381697D02*
X187948909Y-121587234D01*
X187948909Y-121587234D02*
X187990145Y-121789231D01*
X187990145Y-121789231D02*
X188048106Y-121986706D01*
X188048106Y-121986706D02*
X188121978Y-122178675D01*
X188121978Y-122178675D02*
X188210946Y-122364156D01*
X188210946Y-122364156D02*
X188314199Y-122542166D01*
X188314199Y-122542166D02*
X188430922Y-122711724D01*
X188430922Y-122711724D02*
X188560303Y-122871847D01*
X188560303Y-122871847D02*
X188701528Y-123021552D01*
X188701528Y-123021552D02*
X188853783Y-123159856D01*
X188853783Y-123159856D02*
X189016256Y-123285778D01*
X189016256Y-123285778D02*
X189188132Y-123398335D01*
X189188132Y-123398335D02*
X189368599Y-123496543D01*
X189368599Y-123496543D02*
X189556844Y-123579422D01*
X189556844Y-123579422D02*
X189752052Y-123645988D01*
X189752052Y-123645988D02*
X189953411Y-123695259D01*
X198639707Y-35957344D02*
X198381007Y-36031430D01*
X198381007Y-36031430D02*
X198122781Y-36107177D01*
X198122781Y-36107177D02*
X197865060Y-36184643D01*
X197865060Y-36184643D02*
X197607880Y-36263882D01*
X197607880Y-36263882D02*
X197351274Y-36344950D01*
X197351274Y-36344950D02*
X197095275Y-36427904D01*
X197095275Y-36427904D02*
X196839918Y-36512800D01*
X196839918Y-36512800D02*
X196585235Y-36599694D01*
X196585235Y-36599694D02*
X196331262Y-36688641D01*
X196331262Y-36688641D02*
X196078031Y-36779698D01*
X196078031Y-36779698D02*
X195909640Y-36841603D01*
X234552178Y-30423671D02*
X234351330Y-30624179D01*
X234351330Y-30624179D02*
X234150496Y-30824696D01*
X234150496Y-30824696D02*
X233949674Y-31025222D01*
X233949674Y-31025222D02*
X233748864Y-31225758D01*
X233748864Y-31225758D02*
X233548065Y-31426302D01*
X233548065Y-31426302D02*
X233347278Y-31626855D01*
X233347278Y-31626855D02*
X233146502Y-31827416D01*
X233146502Y-31827416D02*
X232945736Y-32027986D01*
X232945736Y-32027986D02*
X232744981Y-32228564D01*
X232744981Y-32228564D02*
X232544235Y-32429149D01*
X232544235Y-32429149D02*
X232343497Y-32629742D01*
X232343497Y-32629742D02*
X232142769Y-32830343D01*
X232142769Y-32830343D02*
X231942049Y-33030951D01*
X231942049Y-33030951D02*
X231741337Y-33231567D01*
X231741337Y-33231567D02*
X231540633Y-33432189D01*
X231540633Y-33432189D02*
X231339935Y-33632818D01*
X231339935Y-33632818D02*
X231139244Y-33833454D01*
X231139244Y-33833454D02*
X230938559Y-34034097D01*
X230938559Y-34034097D02*
X230737881Y-34234745D01*
X230737881Y-34234745D02*
X230537207Y-34435400D01*
X230537207Y-34435400D02*
X230336539Y-34636061D01*
X230336539Y-34636061D02*
X230135875Y-34836727D01*
X230135875Y-34836727D02*
X229935215Y-35037399D01*
X229935215Y-35037399D02*
X229734559Y-35238077D01*
X229734559Y-35238077D02*
X229533906Y-35438759D01*
X229533906Y-35438759D02*
X229333256Y-35639447D01*
X229333256Y-35639447D02*
X229132609Y-35840140D01*
X229132609Y-35840140D02*
X228931963Y-36040837D01*
X228931963Y-36040837D02*
X228731319Y-36241539D01*
X228731319Y-36241539D02*
X228530677Y-36442245D01*
X228530677Y-36442245D02*
X228330035Y-36642955D01*
X228330035Y-36642955D02*
X228129394Y-36843670D01*
X191786168Y-123761921D02*
X193047995Y-123761812D01*
X193047995Y-123761812D02*
X194309823Y-123761734D01*
X194309823Y-123761734D02*
X195571652Y-123761682D01*
X195571652Y-123761682D02*
X196833480Y-123761654D01*
X196833480Y-123761654D02*
X198095309Y-123761647D01*
X198095309Y-123761647D02*
X199357139Y-123761657D01*
X199357139Y-123761657D02*
X200618968Y-123761681D01*
X200618968Y-123761681D02*
X201880798Y-123761717D01*
X201880798Y-123761717D02*
X203142628Y-123761760D01*
X203142628Y-123761760D02*
X204404458Y-123761809D01*
X204404458Y-123761809D02*
X205666288Y-123761860D01*
X205666288Y-123761860D02*
X206928118Y-123761910D01*
X206928118Y-123761910D02*
X208189948Y-123761956D01*
X208189948Y-123761956D02*
X209451779Y-123761994D01*
X209451779Y-123761994D02*
X210713609Y-123762022D01*
X210713609Y-123762022D02*
X211975439Y-123762037D01*
X211975439Y-123762037D02*
X213237268Y-123762035D01*
X213237268Y-123762035D02*
X214499098Y-123762013D01*
X214499098Y-123762013D02*
X215760928Y-123761969D01*
X215760928Y-123761969D02*
X217022757Y-123761899D01*
X217022757Y-123761899D02*
X218284586Y-123761800D01*
X218284586Y-123761800D02*
X219546414Y-123761669D01*
X219546414Y-123761669D02*
X220808243Y-123761503D01*
X220808243Y-123761503D02*
X222070070Y-123761300D01*
X222070070Y-123761300D02*
X223331898Y-123761054D01*
X223331898Y-123761054D02*
X224593725Y-123760765D01*
X224593725Y-123760765D02*
X225855551Y-123760428D01*
X225855551Y-123760428D02*
X227117377Y-123760041D01*
X227117377Y-123760041D02*
X228379202Y-123759600D01*
X228379202Y-123759600D02*
X229641027Y-123759103D01*
X229641027Y-123759103D02*
X230902851Y-123758545D01*
X230902851Y-123758545D02*
X232164675Y-123757926D01*
X195909640Y-36841603D02*
X195697924Y-36630428D01*
X195697924Y-36630428D02*
X195486287Y-36419170D01*
X195486287Y-36419170D02*
X195274721Y-36207838D01*
X195274721Y-36207838D02*
X195063218Y-35996439D01*
X195063218Y-35996439D02*
X194851770Y-35784982D01*
X194851770Y-35784982D02*
X194640369Y-35573474D01*
X194640369Y-35573474D02*
X194429008Y-35361924D01*
X194429008Y-35361924D02*
X194217680Y-35150340D01*
X194217680Y-35150340D02*
X194006376Y-34938730D01*
X194006376Y-34938730D02*
X193795088Y-34727102D01*
X193795088Y-34727102D02*
X193583810Y-34515463D01*
X193583810Y-34515463D02*
X193372533Y-34303823D01*
X193372533Y-34303823D02*
X193161250Y-34092190D01*
X193161250Y-34092190D02*
X192949953Y-33880570D01*
X192949953Y-33880570D02*
X192738634Y-33668973D01*
X192738634Y-33668973D02*
X192527285Y-33457407D01*
X192527285Y-33457407D02*
X192315900Y-33245879D01*
X192315900Y-33245879D02*
X192104470Y-33034398D01*
X192104470Y-33034398D02*
X191892987Y-32822972D01*
X191892987Y-32822972D02*
X191681444Y-32611609D01*
X191681444Y-32611609D02*
X191469833Y-32400316D01*
X191469833Y-32400316D02*
X191258146Y-32189103D01*
X191258146Y-32189103D02*
X191046376Y-31977978D01*
X191046376Y-31977978D02*
X190834515Y-31766947D01*
X190834515Y-31766947D02*
X190622556Y-31556020D01*
X190622556Y-31556020D02*
X190410490Y-31345205D01*
X190410490Y-31345205D02*
X190198310Y-31134509D01*
X190198310Y-31134509D02*
X189986008Y-30923940D01*
X189986008Y-30923940D02*
X189773577Y-30713508D01*
X189773577Y-30713508D02*
X189561009Y-30503219D01*
X189561009Y-30503219D02*
X189348295Y-30293083D01*
X189348295Y-30293083D02*
X189135430Y-30083107D01*
X189953411Y-123695259D02*
X190180169Y-123732771D01*
X190180169Y-123732771D02*
X190408209Y-123754761D01*
X190408209Y-123754761D02*
X190637222Y-123764821D01*
X190637222Y-123764821D02*
X190866902Y-123766544D01*
X190866902Y-123766544D02*
X191096943Y-123763522D01*
X191096943Y-123763522D02*
X191327039Y-123759350D01*
X191327039Y-123759350D02*
X191556882Y-123757618D01*
X191556882Y-123757618D02*
X191786168Y-123761921D01*
X188988936Y-116982132D02*
X188855912Y-117235378D01*
X188855912Y-117235378D02*
X188731227Y-117492933D01*
X188731227Y-117492933D02*
X188614995Y-117754495D01*
X188614995Y-117754495D02*
X188507330Y-118019761D01*
X188507330Y-118019761D02*
X188408345Y-118288428D01*
X188408345Y-118288428D02*
X188318157Y-118560194D01*
X188318157Y-118560194D02*
X188236879Y-118834756D01*
X188236879Y-118834756D02*
X188164626Y-119111811D01*
X188164626Y-119111811D02*
X188101511Y-119391057D01*
X188101511Y-119391057D02*
X188047650Y-119672191D01*
X188047650Y-119672191D02*
X188003157Y-119954910D01*
X188003157Y-119954910D02*
X187968145Y-120238912D01*
X187968145Y-120238912D02*
X187942731Y-120523895D01*
X187942731Y-120523895D02*
X187927027Y-120809555D01*
X187927027Y-120809555D02*
X187921148Y-121095589D01*
X187921148Y-121095589D02*
X187925210Y-121381697D01*
X252917543Y-86925727D02*
X252714624Y-86562206D01*
X252714624Y-86562206D02*
X252509966Y-86199524D01*
X252509966Y-86199524D02*
X252303524Y-85837736D01*
X252303524Y-85837736D02*
X252095254Y-85476897D01*
X252095254Y-85476897D02*
X251885113Y-85117065D01*
X251885113Y-85117065D02*
X251673057Y-84758295D01*
X251673057Y-84758295D02*
X251459042Y-84400643D01*
X251459042Y-84400643D02*
X251243024Y-84044165D01*
X251243024Y-84044165D02*
X251024960Y-83688917D01*
X251024960Y-83688917D02*
X250804805Y-83334955D01*
X250804805Y-83334955D02*
X250582517Y-82982335D01*
X250582517Y-82982335D02*
X250358051Y-82631112D01*
X250358051Y-82631112D02*
X250131363Y-82281343D01*
X250131363Y-82281343D02*
X249902410Y-81933084D01*
X249902410Y-81933084D02*
X249671148Y-81586391D01*
X249671148Y-81586391D02*
X249437534Y-81241319D01*
X249437534Y-81241319D02*
X249201522Y-80897925D01*
X249201522Y-80897925D02*
X248963071Y-80556265D01*
X248963071Y-80556265D02*
X248722135Y-80216394D01*
X248722135Y-80216394D02*
X248478672Y-79878369D01*
X248478672Y-79878369D02*
X248232636Y-79542245D01*
X248232636Y-79542245D02*
X247983986Y-79208079D01*
X247983986Y-79208079D02*
X247732676Y-78875926D01*
X247732676Y-78875926D02*
X247478663Y-78545842D01*
X247478663Y-78545842D02*
X247221904Y-78217884D01*
X247221904Y-78217884D02*
X246962354Y-77892107D01*
X246962354Y-77892107D02*
X246699969Y-77568568D01*
X246699969Y-77568568D02*
X246434707Y-77247322D01*
X246434707Y-77247322D02*
X246166523Y-76928425D01*
X246166523Y-76928425D02*
X245895373Y-76611933D01*
X245895373Y-76611933D02*
X245621215Y-76297902D01*
X245621215Y-76297902D02*
X245344003Y-75986389D01*
X238807341Y-30660553D02*
X238648418Y-30431773D01*
X238648418Y-30431773D02*
X238465220Y-30223375D01*
X238465220Y-30223375D02*
X238260514Y-30036645D01*
X238260514Y-30036645D02*
X238037067Y-29872873D01*
X238037067Y-29872873D02*
X237797647Y-29733349D01*
X237797647Y-29733349D02*
X237545019Y-29619359D01*
X237545019Y-29619359D02*
X237281952Y-29532194D01*
X237281952Y-29532194D02*
X237011211Y-29473143D01*
X237011211Y-29473143D02*
X236735565Y-29443493D01*
X236735565Y-29443493D02*
X236457781Y-29444534D01*
X236457781Y-29444534D02*
X236272770Y-29462916D01*
X185898321Y-42779856D02*
X186031714Y-42945755D01*
X186031714Y-42945755D02*
X186168648Y-43108753D01*
X186168648Y-43108753D02*
X186295752Y-43254656D01*
X183265079Y-61614467D02*
X183277839Y-62168629D01*
X183277839Y-62168629D02*
X183292275Y-62722745D01*
X183292275Y-62722745D02*
X183308386Y-63276809D01*
X183308386Y-63276809D02*
X183326170Y-63830817D01*
X183326170Y-63830817D02*
X183345625Y-64384765D01*
X183345625Y-64384765D02*
X183366752Y-64938649D01*
X183366752Y-64938649D02*
X183389549Y-65492464D01*
X183389549Y-65492464D02*
X183414015Y-66046206D01*
X183414015Y-66046206D02*
X183440149Y-66599870D01*
X183440149Y-66599870D02*
X183467949Y-67153452D01*
X183467949Y-67153452D02*
X183497414Y-67706949D01*
X183497414Y-67706949D02*
X183528544Y-68260355D01*
X183528544Y-68260355D02*
X183561338Y-68813667D01*
X183561338Y-68813667D02*
X183595793Y-69366880D01*
X183595793Y-69366880D02*
X183631910Y-69919990D01*
X183631910Y-69919990D02*
X183669687Y-70472992D01*
X183669687Y-70472992D02*
X183709122Y-71025882D01*
X183709122Y-71025882D02*
X183750216Y-71578656D01*
X183750216Y-71578656D02*
X183792966Y-72131310D01*
X183792966Y-72131310D02*
X183837371Y-72683839D01*
X183837371Y-72683839D02*
X183883431Y-73236239D01*
X183883431Y-73236239D02*
X183931145Y-73788505D01*
X183931145Y-73788505D02*
X183980511Y-74340634D01*
X183980511Y-74340634D02*
X184031528Y-74892621D01*
X184031528Y-74892621D02*
X184084195Y-75444462D01*
X184084195Y-75444462D02*
X184138511Y-75996152D01*
X184138511Y-75996152D02*
X184194474Y-76547688D01*
X184194474Y-76547688D02*
X184252085Y-77099064D01*
X184252085Y-77099064D02*
X184311341Y-77650277D01*
X184311341Y-77650277D02*
X184372242Y-78201322D01*
X184372242Y-78201322D02*
X184434786Y-78752195D01*
X184434786Y-78752195D02*
X184498973Y-79302892D01*
X186295752Y-43254656D02*
X186118703Y-43481554D01*
X186118703Y-43481554D02*
X185946665Y-43712170D01*
X185946665Y-43712170D02*
X185779676Y-43946385D01*
X185779676Y-43946385D02*
X185617773Y-44184085D01*
X185617773Y-44184085D02*
X185460996Y-44425150D01*
X185460996Y-44425150D02*
X185309383Y-44669464D01*
X185309383Y-44669464D02*
X185162972Y-44916910D01*
X185162972Y-44916910D02*
X185021801Y-45167372D01*
X185021801Y-45167372D02*
X184885909Y-45420731D01*
X184885909Y-45420731D02*
X184755334Y-45676871D01*
X184755334Y-45676871D02*
X184630115Y-45935675D01*
X184630115Y-45935675D02*
X184510289Y-46197025D01*
X184510289Y-46197025D02*
X184395895Y-46460806D01*
X184395895Y-46460806D02*
X184286971Y-46726899D01*
X184286971Y-46726899D02*
X184183556Y-46995188D01*
X184183556Y-46995188D02*
X184085688Y-47265555D01*
X184085688Y-47265555D02*
X183993405Y-47537884D01*
X183993405Y-47537884D02*
X183906746Y-47812057D01*
X183906746Y-47812057D02*
X183825749Y-48087958D01*
X183825749Y-48087958D02*
X183750453Y-48365469D01*
X183750453Y-48365469D02*
X183680894Y-48644473D01*
X183680894Y-48644473D02*
X183617113Y-48924854D01*
X183617113Y-48924854D02*
X183559147Y-49206494D01*
X183559147Y-49206494D02*
X183507035Y-49489276D01*
X183507035Y-49489276D02*
X183460815Y-49773083D01*
X183460815Y-49773083D02*
X183420525Y-50057799D01*
X183420525Y-50057799D02*
X183386203Y-50343305D01*
X183386203Y-50343305D02*
X183357889Y-50629485D01*
X183357889Y-50629485D02*
X183335620Y-50916223D01*
X183335620Y-50916223D02*
X183319434Y-51203400D01*
X183319434Y-51203400D02*
X183309370Y-51490900D01*
X183309370Y-51490900D02*
X183305467Y-51778606D01*
X183305467Y-51778606D02*
X183297487Y-52085905D01*
X183297487Y-52085905D02*
X183289853Y-52393215D01*
X183289853Y-52393215D02*
X183282575Y-52700535D01*
X183282575Y-52700535D02*
X183275659Y-53007865D01*
X183275659Y-53007865D02*
X183269116Y-53315203D01*
X183269116Y-53315203D02*
X183262954Y-53622550D01*
X183262954Y-53622550D02*
X183257182Y-53929904D01*
X183257182Y-53929904D02*
X183251809Y-54237265D01*
X183251809Y-54237265D02*
X183246842Y-54544633D01*
X183246842Y-54544633D02*
X183242291Y-54852006D01*
X183242291Y-54852006D02*
X183238166Y-55159385D01*
X183238166Y-55159385D02*
X183234473Y-55466768D01*
X183234473Y-55466768D02*
X183231223Y-55774155D01*
X183231223Y-55774155D02*
X183228423Y-56081546D01*
X183228423Y-56081546D02*
X183226083Y-56388939D01*
X183226083Y-56388939D02*
X183224211Y-56696335D01*
X183224211Y-56696335D02*
X183222817Y-57003732D01*
X183222817Y-57003732D02*
X183221908Y-57311130D01*
X183221908Y-57311130D02*
X183221493Y-57618528D01*
X183221493Y-57618528D02*
X183221582Y-57925926D01*
X183221582Y-57925926D02*
X183222183Y-58233324D01*
X183222183Y-58233324D02*
X183223305Y-58540720D01*
X183223305Y-58540720D02*
X183224955Y-58848113D01*
X183224955Y-58848113D02*
X183227145Y-59155505D01*
X183227145Y-59155505D02*
X183229881Y-59462893D01*
X183229881Y-59462893D02*
X183233172Y-59770277D01*
X183233172Y-59770277D02*
X183237028Y-60077656D01*
X183237028Y-60077656D02*
X183241457Y-60385031D01*
X183241457Y-60385031D02*
X183246468Y-60692400D01*
X183246468Y-60692400D02*
X183252069Y-60999762D01*
X183252069Y-60999762D02*
X183258270Y-61307118D01*
X183258270Y-61307118D02*
X183265079Y-61614467D01*
X185130492Y-30842822D02*
X184952020Y-31188187D01*
X184952020Y-31188187D02*
X184784544Y-31539203D01*
X184784544Y-31539203D02*
X184628234Y-31895479D01*
X184628234Y-31895479D02*
X184483261Y-32256624D01*
X184483261Y-32256624D02*
X184349795Y-32622247D01*
X184349795Y-32622247D02*
X184228006Y-32991957D01*
X184228006Y-32991957D02*
X184118065Y-33365362D01*
X184118065Y-33365362D02*
X184020142Y-33742073D01*
X184020142Y-33742073D02*
X183934407Y-34121697D01*
X183934407Y-34121697D02*
X183861031Y-34503844D01*
X183861031Y-34503844D02*
X183800184Y-34888123D01*
X183800184Y-34888123D02*
X183752037Y-35274144D01*
X183752037Y-35274144D02*
X183716759Y-35661514D01*
X183716759Y-35661514D02*
X183694522Y-36049843D01*
X183694522Y-36049843D02*
X183685495Y-36438741D01*
X183685495Y-36438741D02*
X183689849Y-36827816D01*
X184498973Y-79302892D02*
X184559794Y-79797091D01*
X184559794Y-79797091D02*
X184622177Y-80291133D01*
X184622177Y-80291133D02*
X184686152Y-80785002D01*
X184686152Y-80785002D02*
X184751749Y-81278685D01*
X184751749Y-81278685D02*
X184818997Y-81772168D01*
X184818997Y-81772168D02*
X184887928Y-82265435D01*
X184887928Y-82265435D02*
X184958569Y-82758473D01*
X184958569Y-82758473D02*
X185030952Y-83251267D01*
X185030952Y-83251267D02*
X185105106Y-83743804D01*
X185105106Y-83743804D02*
X185181062Y-84236068D01*
X185181062Y-84236068D02*
X185258848Y-84728046D01*
X185258848Y-84728046D02*
X185338495Y-85219723D01*
X185338495Y-85219723D02*
X185420032Y-85711086D01*
X185420032Y-85711086D02*
X185503490Y-86202119D01*
X185503490Y-86202119D02*
X185588898Y-86692808D01*
X185588898Y-86692808D02*
X185676287Y-87183139D01*
X185676287Y-87183139D02*
X185765686Y-87673099D01*
X185765686Y-87673099D02*
X185857124Y-88162672D01*
X185857124Y-88162672D02*
X185950633Y-88651844D01*
X185950633Y-88651844D02*
X186046241Y-89140601D01*
X186046241Y-89140601D02*
X186143979Y-89628929D01*
X186143979Y-89628929D02*
X186243876Y-90116814D01*
X186243876Y-90116814D02*
X186345962Y-90604240D01*
X186345962Y-90604240D02*
X186450268Y-91091195D01*
X186450268Y-91091195D02*
X186556823Y-91577663D01*
X186556823Y-91577663D02*
X186665656Y-92063630D01*
X186665656Y-92063630D02*
X186776799Y-92549083D01*
X186776799Y-92549083D02*
X186890280Y-93034006D01*
X186890280Y-93034006D02*
X187006129Y-93518386D01*
X187006129Y-93518386D02*
X187124377Y-94002208D01*
X187124377Y-94002208D02*
X187245053Y-94485458D01*
X187245053Y-94485458D02*
X187368188Y-94968122D01*
X232164675Y-123757926D02*
X232558869Y-123741644D01*
X232558869Y-123741644D02*
X232951745Y-123707143D01*
X232951745Y-123707143D02*
X233342555Y-123654695D01*
X233342555Y-123654695D02*
X233730554Y-123584568D01*
X233730554Y-123584568D02*
X234114993Y-123497036D01*
X234114993Y-123497036D02*
X234495125Y-123392368D01*
X234495125Y-123392368D02*
X234870204Y-123270835D01*
X234870204Y-123270835D02*
X235239481Y-123132709D01*
X235239481Y-123132709D02*
X235602211Y-122978260D01*
X235602211Y-122978260D02*
X235957645Y-122807758D01*
X235957645Y-122807758D02*
X236305036Y-122621476D01*
X236305036Y-122621476D02*
X236643638Y-122419684D01*
X236643638Y-122419684D02*
X236972704Y-122202652D01*
X236972704Y-122202652D02*
X237291485Y-121970652D01*
X237291485Y-121970652D02*
X237599235Y-121723955D01*
X237599235Y-121723955D02*
X237895208Y-121462831D01*
X183689849Y-36827816D02*
X183698581Y-37029601D01*
X183698581Y-37029601D02*
X183711454Y-37231127D01*
X183711454Y-37231127D02*
X183728442Y-37432318D01*
X183728442Y-37432318D02*
X183749522Y-37633099D01*
X183749522Y-37633099D02*
X183774666Y-37833392D01*
X183774666Y-37833392D02*
X183803851Y-38033123D01*
X183803851Y-38033123D02*
X183837051Y-38232215D01*
X183837051Y-38232215D02*
X183874240Y-38430593D01*
X183874240Y-38430593D02*
X183915394Y-38628179D01*
X183915394Y-38628179D02*
X183960488Y-38824900D01*
X183960488Y-38824900D02*
X184009497Y-39020678D01*
X184009497Y-39020678D02*
X184062394Y-39215437D01*
X184062394Y-39215437D02*
X184119155Y-39409103D01*
X184119155Y-39409103D02*
X184179756Y-39601598D01*
X184179756Y-39601598D02*
X184244170Y-39792847D01*
X184244170Y-39792847D02*
X184312372Y-39982774D01*
X184312372Y-39982774D02*
X184384338Y-40171303D01*
X184384338Y-40171303D02*
X184460042Y-40358359D01*
X184460042Y-40358359D02*
X184539460Y-40543864D01*
X184539460Y-40543864D02*
X184622565Y-40727744D01*
X184622565Y-40727744D02*
X184709332Y-40909922D01*
X184709332Y-40909922D02*
X184799738Y-41090322D01*
X184799738Y-41090322D02*
X184893755Y-41268869D01*
X184893755Y-41268869D02*
X184991360Y-41445487D01*
X184991360Y-41445487D02*
X185092527Y-41620099D01*
X185092527Y-41620099D02*
X185197231Y-41792630D01*
X185197231Y-41792630D02*
X185305447Y-41963003D01*
X185305447Y-41963003D02*
X185417149Y-42131144D01*
X185417149Y-42131144D02*
X185532313Y-42296975D01*
X185532313Y-42296975D02*
X185650913Y-42460421D01*
X185650913Y-42460421D02*
X185772924Y-42621407D01*
X185772924Y-42621407D02*
X185898321Y-42779856D01*
X187390259Y-29438950D02*
X187390259Y-29438950D01*
X189135430Y-30083107D02*
X188949304Y-29933060D01*
X188949304Y-29933060D02*
X188750618Y-29802696D01*
X188750618Y-29802696D02*
X188541077Y-29692106D01*
X188541077Y-29692106D02*
X188322388Y-29601381D01*
X188322388Y-29601381D02*
X188096256Y-29530612D01*
X188096256Y-29530612D02*
X187864387Y-29479889D01*
X187864387Y-29479889D02*
X187628486Y-29449305D01*
X187628486Y-29449305D02*
X187390259Y-29438950D01*
X187390259Y-29438955D02*
X187128690Y-29457352D01*
X187128690Y-29457352D02*
X186870884Y-29502626D01*
X186870884Y-29502626D02*
X186619098Y-29573580D01*
X186619098Y-29573580D02*
X186375591Y-29669020D01*
X186375591Y-29669020D02*
X186142620Y-29787751D01*
X186142620Y-29787751D02*
X185922445Y-29928578D01*
X185922445Y-29928578D02*
X185717322Y-30090307D01*
X185717322Y-30090307D02*
X185529512Y-30271741D01*
X185529512Y-30271741D02*
X185361271Y-30471687D01*
X185361271Y-30471687D02*
X185214858Y-30688950D01*
X185214858Y-30688950D02*
X185130492Y-30842822D01*
X194782575Y-112635465D02*
X194554813Y-112687796D01*
X194554813Y-112687796D02*
X194328747Y-112746499D01*
X194328747Y-112746499D02*
X194104507Y-112811475D01*
X194104507Y-112811475D02*
X193882226Y-112882625D01*
X193882226Y-112882625D02*
X193662035Y-112959851D01*
X193662035Y-112959851D02*
X193444067Y-113043055D01*
X193444067Y-113043055D02*
X193228452Y-113132139D01*
X193228452Y-113132139D02*
X193015324Y-113227003D01*
X193015324Y-113227003D02*
X192804814Y-113327550D01*
X192804814Y-113327550D02*
X192597053Y-113433681D01*
X192597053Y-113433681D02*
X192392174Y-113545297D01*
X192392174Y-113545297D02*
X192190309Y-113662301D01*
X192190309Y-113662301D02*
X191991588Y-113784593D01*
X191991588Y-113784593D02*
X191796146Y-113912076D01*
X191796146Y-113912076D02*
X191604112Y-114044651D01*
X191604112Y-114044651D02*
X191415620Y-114182219D01*
X191415620Y-114182219D02*
X191230800Y-114324683D01*
X191230800Y-114324683D02*
X191049785Y-114471943D01*
X191049785Y-114471943D02*
X190872707Y-114623901D01*
X190872707Y-114623901D02*
X190699698Y-114780460D01*
X190699698Y-114780460D02*
X190530889Y-114941520D01*
X190530889Y-114941520D02*
X190366412Y-115106983D01*
X190366412Y-115106983D02*
X190206400Y-115276751D01*
X190206400Y-115276751D02*
X190050983Y-115450725D01*
X190050983Y-115450725D02*
X189900295Y-115628806D01*
X189900295Y-115628806D02*
X189754466Y-115810898D01*
X189754466Y-115810898D02*
X189613629Y-115996900D01*
X189613629Y-115996900D02*
X189477916Y-116186715D01*
X189477916Y-116186715D02*
X189347458Y-116380244D01*
X189347458Y-116380244D02*
X189222387Y-116577388D01*
X189222387Y-116577388D02*
X189102836Y-116778050D01*
X189102836Y-116778050D02*
X188988936Y-116982132D01*
X192866930Y-109480617D02*
X192978442Y-109682642D01*
X192978442Y-109682642D02*
X193090981Y-109884103D01*
X193090981Y-109884103D02*
X193204560Y-110084983D01*
X193204560Y-110084983D02*
X193319196Y-110285264D01*
X193319196Y-110285264D02*
X193434902Y-110484928D01*
X193434902Y-110484928D02*
X193551693Y-110683958D01*
X193551693Y-110683958D02*
X193669585Y-110882335D01*
X193669585Y-110882335D02*
X193788592Y-111080043D01*
X193788592Y-111080043D02*
X193908729Y-111277063D01*
X193908729Y-111277063D02*
X194030011Y-111473378D01*
X194030011Y-111473378D02*
X194152452Y-111668969D01*
X194152452Y-111668969D02*
X194276068Y-111863821D01*
X194276068Y-111863821D02*
X194400873Y-112057913D01*
X194400873Y-112057913D02*
X194526883Y-112251230D01*
X194526883Y-112251230D02*
X194654112Y-112443753D01*
X194654112Y-112443753D02*
X194782575Y-112635465D01*
X236272770Y-29462916D02*
X236023937Y-29507045D01*
X236023937Y-29507045D02*
X235782571Y-29576902D01*
X235782571Y-29576902D02*
X235549761Y-29670474D01*
X235549761Y-29670474D02*
X235326596Y-29785751D01*
X235326596Y-29785751D02*
X235114165Y-29920721D01*
X235114165Y-29920721D02*
X234913559Y-30073372D01*
X234913559Y-30073372D02*
X234725867Y-30241692D01*
X234725867Y-30241692D02*
X234552178Y-30423671D01*
X253983002Y-123722139D02*
X254248356Y-123710242D01*
X254248356Y-123710242D02*
X254513724Y-123697138D01*
X254513724Y-123697138D02*
X254779086Y-123682788D01*
X254779086Y-123682788D02*
X255044425Y-123667156D01*
X255044425Y-123667156D02*
X255309723Y-123650203D01*
X255309723Y-123650203D02*
X255574962Y-123631893D01*
X255574962Y-123631893D02*
X255840126Y-123612187D01*
X255840126Y-123612187D02*
X256105194Y-123591048D01*
X256105194Y-123591048D02*
X256370151Y-123568438D01*
X256370151Y-123568438D02*
X256634979Y-123544321D01*
X256634979Y-123544321D02*
X256899658Y-123518657D01*
X256899658Y-123518657D02*
X257164173Y-123491411D01*
X257164173Y-123491411D02*
X257428504Y-123462543D01*
X257428504Y-123462543D02*
X257692635Y-123432017D01*
X257692635Y-123432017D02*
X257956547Y-123399796D01*
X257956547Y-123399796D02*
X258220223Y-123365840D01*
X258220223Y-123365840D02*
X258483644Y-123330114D01*
X258483644Y-123330114D02*
X258746794Y-123292579D01*
X258746794Y-123292579D02*
X259009654Y-123253198D01*
X259009654Y-123253198D02*
X259272206Y-123211933D01*
X259272206Y-123211933D02*
X259534434Y-123168747D01*
X259534434Y-123168747D02*
X259796318Y-123123602D01*
X259796318Y-123123602D02*
X260057841Y-123076460D01*
X260057841Y-123076460D02*
X260318986Y-123027285D01*
X260318986Y-123027285D02*
X260579735Y-122976038D01*
X260579735Y-122976038D02*
X260840070Y-122922682D01*
X260840070Y-122922682D02*
X261099973Y-122867179D01*
X261099973Y-122867179D02*
X261359426Y-122809492D01*
X261359426Y-122809492D02*
X261618411Y-122749583D01*
X261618411Y-122749583D02*
X261876912Y-122687415D01*
X261876912Y-122687415D02*
X262134910Y-122622950D01*
X262134910Y-122622950D02*
X262392387Y-122556151D01*
X245344003Y-75986389D02*
X245081106Y-75696328D01*
X245081106Y-75696328D02*
X244814890Y-75409280D01*
X244814890Y-75409280D02*
X244545357Y-75125330D01*
X244545357Y-75125330D02*
X244272508Y-74844561D01*
X244272508Y-74844561D02*
X243996346Y-74567057D01*
X243996346Y-74567057D02*
X243716873Y-74292904D01*
X243716873Y-74292904D02*
X243434091Y-74022186D01*
X243434091Y-74022186D02*
X243148003Y-73754987D01*
X243148003Y-73754987D02*
X242858610Y-73491391D01*
X242858610Y-73491391D02*
X242565915Y-73231484D01*
X242565915Y-73231484D02*
X242269919Y-72975349D01*
X242269919Y-72975349D02*
X241970625Y-72723070D01*
X241970625Y-72723070D02*
X241668036Y-72474733D01*
X241668036Y-72474733D02*
X241362153Y-72230422D01*
X241362153Y-72230422D02*
X241052978Y-71990221D01*
X241052978Y-71990221D02*
X240740515Y-71754215D01*
X240733927Y-51384552D02*
X240722822Y-51109282D01*
X240722822Y-51109282D02*
X240706023Y-50834348D01*
X240706023Y-50834348D02*
X240683571Y-50559852D01*
X240683571Y-50559852D02*
X240655504Y-50285898D01*
X240655504Y-50285898D02*
X240621862Y-50012586D01*
X240621862Y-50012586D02*
X240582685Y-49740020D01*
X240582685Y-49740020D02*
X240538011Y-49468301D01*
X240538011Y-49468301D02*
X240487879Y-49197532D01*
X240487879Y-49197532D02*
X240432330Y-48927815D01*
X240432330Y-48927815D02*
X240371403Y-48659253D01*
X240371403Y-48659253D02*
X240305137Y-48391947D01*
X240305137Y-48391947D02*
X240233572Y-48126000D01*
X240233572Y-48126000D02*
X240156746Y-47861515D01*
X240156746Y-47861515D02*
X240074699Y-47598594D01*
X240074699Y-47598594D02*
X239987471Y-47337338D01*
X239987471Y-47337338D02*
X239895101Y-47077850D01*
X239895101Y-47077850D02*
X239797629Y-46820233D01*
X239797629Y-46820233D02*
X239695093Y-46564589D01*
X239695093Y-46564589D02*
X239587533Y-46311020D01*
X239587533Y-46311020D02*
X239474989Y-46059628D01*
X239474989Y-46059628D02*
X239357499Y-45810516D01*
X239357499Y-45810516D02*
X239235104Y-45563786D01*
X239235104Y-45563786D02*
X239107843Y-45319541D01*
X239107843Y-45319541D02*
X238975754Y-45077882D01*
X238975754Y-45077882D02*
X238838878Y-44838911D01*
X238838878Y-44838911D02*
X238697253Y-44602732D01*
X238697253Y-44602732D02*
X238550920Y-44369446D01*
X238550920Y-44369446D02*
X238399918Y-44139156D01*
X238399918Y-44139156D02*
X238244285Y-43911964D01*
X238244285Y-43911964D02*
X238084061Y-43687973D01*
X238084061Y-43687973D02*
X237919286Y-43467284D01*
X237919286Y-43467284D02*
X237750000Y-43250000D01*
X260469929Y-103794911D02*
X260269547Y-103252811D01*
X260269547Y-103252811D02*
X260067288Y-102711340D01*
X260067288Y-102711340D02*
X259863108Y-102170530D01*
X259863108Y-102170530D02*
X259656966Y-101630415D01*
X259656966Y-101630415D02*
X259448819Y-101091028D01*
X259448819Y-101091028D02*
X259238625Y-100552404D01*
X259238625Y-100552404D02*
X259026344Y-100014575D01*
X259026344Y-100014575D02*
X258811931Y-99477576D01*
X258811931Y-99477576D02*
X258595346Y-98941439D01*
X258595346Y-98941439D02*
X258376546Y-98406199D01*
X258376546Y-98406199D02*
X258155490Y-97871890D01*
X258155490Y-97871890D02*
X257932134Y-97338543D01*
X257932134Y-97338543D02*
X257706438Y-96806194D01*
X257706438Y-96806194D02*
X257478359Y-96274876D01*
X257478359Y-96274876D02*
X257247856Y-95744623D01*
X257247856Y-95744623D02*
X257014885Y-95215467D01*
X257014885Y-95215467D02*
X256779405Y-94687443D01*
X256779405Y-94687443D02*
X256541374Y-94160585D01*
X256541374Y-94160585D02*
X256300750Y-93634925D01*
X256300750Y-93634925D02*
X256057491Y-93110498D01*
X256057491Y-93110498D02*
X255811555Y-92587336D01*
X255811555Y-92587336D02*
X255562900Y-92065474D01*
X255562900Y-92065474D02*
X255311484Y-91544946D01*
X255311484Y-91544946D02*
X255057264Y-91025784D01*
X255057264Y-91025784D02*
X254800199Y-90508023D01*
X254800199Y-90508023D02*
X254540246Y-89991696D01*
X254540246Y-89991696D02*
X254277364Y-89476836D01*
X254277364Y-89476836D02*
X254011511Y-88963477D01*
X254011511Y-88963477D02*
X253742644Y-88451653D01*
X253742644Y-88451653D02*
X253470722Y-87941398D01*
X253470722Y-87941398D02*
X253195702Y-87432744D01*
X253195702Y-87432744D02*
X252917543Y-86925727D01*
X237750000Y-43250000D02*
X237887214Y-43093033D01*
X237887214Y-43093033D02*
X238021279Y-42933313D01*
X238021279Y-42933313D02*
X238152146Y-42770913D01*
X238152146Y-42770913D02*
X238279763Y-42605906D01*
X238279763Y-42605906D02*
X238404081Y-42438366D01*
X238404081Y-42438366D02*
X238525048Y-42268364D01*
X238525048Y-42268364D02*
X238642615Y-42095974D01*
X238642615Y-42095974D02*
X238756730Y-41921268D01*
X238756730Y-41921268D02*
X238867344Y-41744320D01*
X238867344Y-41744320D02*
X238974406Y-41565203D01*
X238974406Y-41565203D02*
X239077866Y-41383989D01*
X239077866Y-41383989D02*
X239177673Y-41200752D01*
X239177673Y-41200752D02*
X239273777Y-41015564D01*
X239273777Y-41015564D02*
X239366126Y-40828498D01*
X239366126Y-40828498D02*
X239454672Y-40639627D01*
X239454672Y-40639627D02*
X239539364Y-40449025D01*
X239539364Y-40449025D02*
X239620150Y-40256763D01*
X239620150Y-40256763D02*
X239696981Y-40062915D01*
X239696981Y-40062915D02*
X239769806Y-39867554D01*
X239769806Y-39867554D02*
X239838574Y-39670753D01*
X239838574Y-39670753D02*
X239903236Y-39472585D01*
X239903236Y-39472585D02*
X239963741Y-39273122D01*
X239963741Y-39273122D02*
X240020039Y-39072438D01*
X240020039Y-39072438D02*
X240072078Y-38870605D01*
X240072078Y-38870605D02*
X240119809Y-38667697D01*
X240119809Y-38667697D02*
X240163181Y-38463786D01*
X240163181Y-38463786D02*
X240202144Y-38258945D01*
X240202144Y-38258945D02*
X240236647Y-38053247D01*
X240236647Y-38053247D02*
X240266639Y-37846766D01*
X240266639Y-37846766D02*
X240292072Y-37639573D01*
X240292072Y-37639573D02*
X240312893Y-37431742D01*
X240312893Y-37431742D02*
X240329053Y-37223347D01*
M02*
