%TF.GenerationSoftware,KiCad,Pcbnew,7.0.1*%
%TF.CreationDate,2023-04-19T21:35:14+02:00*%
%TF.ProjectId,owlThief,6f776c54-6869-4656-962e-6b696361645f,rev?*%
%TF.SameCoordinates,Original*%
%TF.FileFunction,Legend,Bot*%
%TF.FilePolarity,Positive*%
%FSLAX46Y46*%
G04 Gerber Fmt 4.6, Leading zero omitted, Abs format (unit mm)*
G04 Created by KiCad (PCBNEW 7.0.1) date 2023-04-19 21:35:14*
%MOMM*%
%LPD*%
G01*
G04 APERTURE LIST*
%ADD10C,0.120000*%
%ADD11C,0.150000*%
G04 APERTURE END LIST*
D10*
X240000000Y-103000000D02*
X240000000Y-88000000D01*
X214000000Y-105000000D02*
X193000000Y-105000000D01*
X253000000Y-88000000D02*
X253000000Y-103000000D01*
X253000000Y-103000000D02*
X240000000Y-103000000D01*
X240000000Y-88000000D02*
X253000000Y-88000000D01*
X214000000Y-71000000D02*
X214000000Y-105000000D01*
X193000000Y-71000000D02*
X214000000Y-71000000D01*
X193000000Y-105000000D02*
X193000000Y-71000000D01*
D11*
X213190475Y-71462619D02*
X212619047Y-71462619D01*
X212904761Y-72462619D02*
X212904761Y-71462619D01*
X212285713Y-72462619D02*
X212285713Y-71462619D01*
X212285713Y-71938809D02*
X211714285Y-71938809D01*
X211714285Y-72462619D02*
X211714285Y-71462619D01*
X211380951Y-71462619D02*
X210809523Y-71462619D01*
X211095237Y-72462619D02*
X211095237Y-71462619D01*
X252452381Y-89415000D02*
X252309524Y-89462619D01*
X252309524Y-89462619D02*
X252071429Y-89462619D01*
X252071429Y-89462619D02*
X251976191Y-89415000D01*
X251976191Y-89415000D02*
X251928572Y-89367380D01*
X251928572Y-89367380D02*
X251880953Y-89272142D01*
X251880953Y-89272142D02*
X251880953Y-89176904D01*
X251880953Y-89176904D02*
X251928572Y-89081666D01*
X251928572Y-89081666D02*
X251976191Y-89034047D01*
X251976191Y-89034047D02*
X252071429Y-88986428D01*
X252071429Y-88986428D02*
X252261905Y-88938809D01*
X252261905Y-88938809D02*
X252357143Y-88891190D01*
X252357143Y-88891190D02*
X252404762Y-88843571D01*
X252404762Y-88843571D02*
X252452381Y-88748333D01*
X252452381Y-88748333D02*
X252452381Y-88653095D01*
X252452381Y-88653095D02*
X252404762Y-88557857D01*
X252404762Y-88557857D02*
X252357143Y-88510238D01*
X252357143Y-88510238D02*
X252261905Y-88462619D01*
X252261905Y-88462619D02*
X252023810Y-88462619D01*
X252023810Y-88462619D02*
X251880953Y-88510238D01*
X251452381Y-89462619D02*
X251452381Y-88462619D01*
X251452381Y-88462619D02*
X251119048Y-89176904D01*
X251119048Y-89176904D02*
X250785715Y-88462619D01*
X250785715Y-88462619D02*
X250785715Y-89462619D01*
X250309524Y-89462619D02*
X250309524Y-88462619D01*
X250309524Y-88462619D02*
X250071429Y-88462619D01*
X250071429Y-88462619D02*
X249928572Y-88510238D01*
X249928572Y-88510238D02*
X249833334Y-88605476D01*
X249833334Y-88605476D02*
X249785715Y-88700714D01*
X249785715Y-88700714D02*
X249738096Y-88891190D01*
X249738096Y-88891190D02*
X249738096Y-89034047D01*
X249738096Y-89034047D02*
X249785715Y-89224523D01*
X249785715Y-89224523D02*
X249833334Y-89319761D01*
X249833334Y-89319761D02*
X249928572Y-89415000D01*
X249928572Y-89415000D02*
X250071429Y-89462619D01*
X250071429Y-89462619D02*
X250309524Y-89462619D01*
X248261905Y-89843571D02*
X248309524Y-89795952D01*
X248309524Y-89795952D02*
X248404762Y-89653095D01*
X248404762Y-89653095D02*
X248452381Y-89557857D01*
X248452381Y-89557857D02*
X248500000Y-89415000D01*
X248500000Y-89415000D02*
X248547619Y-89176904D01*
X248547619Y-89176904D02*
X248547619Y-88986428D01*
X248547619Y-88986428D02*
X248500000Y-88748333D01*
X248500000Y-88748333D02*
X248452381Y-88605476D01*
X248452381Y-88605476D02*
X248404762Y-88510238D01*
X248404762Y-88510238D02*
X248309524Y-88367380D01*
X248309524Y-88367380D02*
X248261905Y-88319761D01*
X247738095Y-89462619D02*
X247833333Y-89415000D01*
X247833333Y-89415000D02*
X247880952Y-89367380D01*
X247880952Y-89367380D02*
X247928571Y-89272142D01*
X247928571Y-89272142D02*
X247928571Y-88986428D01*
X247928571Y-88986428D02*
X247880952Y-88891190D01*
X247880952Y-88891190D02*
X247833333Y-88843571D01*
X247833333Y-88843571D02*
X247738095Y-88795952D01*
X247738095Y-88795952D02*
X247595238Y-88795952D01*
X247595238Y-88795952D02*
X247500000Y-88843571D01*
X247500000Y-88843571D02*
X247452381Y-88891190D01*
X247452381Y-88891190D02*
X247404762Y-88986428D01*
X247404762Y-88986428D02*
X247404762Y-89272142D01*
X247404762Y-89272142D02*
X247452381Y-89367380D01*
X247452381Y-89367380D02*
X247500000Y-89415000D01*
X247500000Y-89415000D02*
X247595238Y-89462619D01*
X247595238Y-89462619D02*
X247738095Y-89462619D01*
X246976190Y-88795952D02*
X246976190Y-89795952D01*
X246976190Y-88843571D02*
X246880952Y-88795952D01*
X246880952Y-88795952D02*
X246690476Y-88795952D01*
X246690476Y-88795952D02*
X246595238Y-88843571D01*
X246595238Y-88843571D02*
X246547619Y-88891190D01*
X246547619Y-88891190D02*
X246500000Y-88986428D01*
X246500000Y-88986428D02*
X246500000Y-89272142D01*
X246500000Y-89272142D02*
X246547619Y-89367380D01*
X246547619Y-89367380D02*
X246595238Y-89415000D01*
X246595238Y-89415000D02*
X246690476Y-89462619D01*
X246690476Y-89462619D02*
X246880952Y-89462619D01*
X246880952Y-89462619D02*
X246976190Y-89415000D01*
X246214285Y-88795952D02*
X245833333Y-88795952D01*
X246071428Y-88462619D02*
X246071428Y-89319761D01*
X246071428Y-89319761D02*
X246023809Y-89415000D01*
X246023809Y-89415000D02*
X245928571Y-89462619D01*
X245928571Y-89462619D02*
X245833333Y-89462619D01*
X245499999Y-89462619D02*
X245499999Y-88795952D01*
X245499999Y-88462619D02*
X245547618Y-88510238D01*
X245547618Y-88510238D02*
X245499999Y-88557857D01*
X245499999Y-88557857D02*
X245452380Y-88510238D01*
X245452380Y-88510238D02*
X245499999Y-88462619D01*
X245499999Y-88462619D02*
X245499999Y-88557857D01*
X244880952Y-89462619D02*
X244976190Y-89415000D01*
X244976190Y-89415000D02*
X245023809Y-89367380D01*
X245023809Y-89367380D02*
X245071428Y-89272142D01*
X245071428Y-89272142D02*
X245071428Y-88986428D01*
X245071428Y-88986428D02*
X245023809Y-88891190D01*
X245023809Y-88891190D02*
X244976190Y-88843571D01*
X244976190Y-88843571D02*
X244880952Y-88795952D01*
X244880952Y-88795952D02*
X244738095Y-88795952D01*
X244738095Y-88795952D02*
X244642857Y-88843571D01*
X244642857Y-88843571D02*
X244595238Y-88891190D01*
X244595238Y-88891190D02*
X244547619Y-88986428D01*
X244547619Y-88986428D02*
X244547619Y-89272142D01*
X244547619Y-89272142D02*
X244595238Y-89367380D01*
X244595238Y-89367380D02*
X244642857Y-89415000D01*
X244642857Y-89415000D02*
X244738095Y-89462619D01*
X244738095Y-89462619D02*
X244880952Y-89462619D01*
X244119047Y-88795952D02*
X244119047Y-89462619D01*
X244119047Y-88891190D02*
X244071428Y-88843571D01*
X244071428Y-88843571D02*
X243976190Y-88795952D01*
X243976190Y-88795952D02*
X243833333Y-88795952D01*
X243833333Y-88795952D02*
X243738095Y-88843571D01*
X243738095Y-88843571D02*
X243690476Y-88938809D01*
X243690476Y-88938809D02*
X243690476Y-89462619D01*
X242785714Y-89462619D02*
X242785714Y-88938809D01*
X242785714Y-88938809D02*
X242833333Y-88843571D01*
X242833333Y-88843571D02*
X242928571Y-88795952D01*
X242928571Y-88795952D02*
X243119047Y-88795952D01*
X243119047Y-88795952D02*
X243214285Y-88843571D01*
X242785714Y-89415000D02*
X242880952Y-89462619D01*
X242880952Y-89462619D02*
X243119047Y-89462619D01*
X243119047Y-89462619D02*
X243214285Y-89415000D01*
X243214285Y-89415000D02*
X243261904Y-89319761D01*
X243261904Y-89319761D02*
X243261904Y-89224523D01*
X243261904Y-89224523D02*
X243214285Y-89129285D01*
X243214285Y-89129285D02*
X243119047Y-89081666D01*
X243119047Y-89081666D02*
X242880952Y-89081666D01*
X242880952Y-89081666D02*
X242785714Y-89034047D01*
X242166666Y-89462619D02*
X242261904Y-89415000D01*
X242261904Y-89415000D02*
X242309523Y-89319761D01*
X242309523Y-89319761D02*
X242309523Y-88462619D01*
X241880951Y-89843571D02*
X241833332Y-89795952D01*
X241833332Y-89795952D02*
X241738094Y-89653095D01*
X241738094Y-89653095D02*
X241690475Y-89557857D01*
X241690475Y-89557857D02*
X241642856Y-89415000D01*
X241642856Y-89415000D02*
X241595237Y-89176904D01*
X241595237Y-89176904D02*
X241595237Y-88986428D01*
X241595237Y-88986428D02*
X241642856Y-88748333D01*
X241642856Y-88748333D02*
X241690475Y-88605476D01*
X241690475Y-88605476D02*
X241738094Y-88510238D01*
X241738094Y-88510238D02*
X241833332Y-88367380D01*
X241833332Y-88367380D02*
X241880951Y-88319761D01*
%TO.C,C1*%
X203666666Y-75367380D02*
X203714285Y-75415000D01*
X203714285Y-75415000D02*
X203857142Y-75462619D01*
X203857142Y-75462619D02*
X203952380Y-75462619D01*
X203952380Y-75462619D02*
X204095237Y-75415000D01*
X204095237Y-75415000D02*
X204190475Y-75319761D01*
X204190475Y-75319761D02*
X204238094Y-75224523D01*
X204238094Y-75224523D02*
X204285713Y-75034047D01*
X204285713Y-75034047D02*
X204285713Y-74891190D01*
X204285713Y-74891190D02*
X204238094Y-74700714D01*
X204238094Y-74700714D02*
X204190475Y-74605476D01*
X204190475Y-74605476D02*
X204095237Y-74510238D01*
X204095237Y-74510238D02*
X203952380Y-74462619D01*
X203952380Y-74462619D02*
X203857142Y-74462619D01*
X203857142Y-74462619D02*
X203714285Y-74510238D01*
X203714285Y-74510238D02*
X203666666Y-74557857D01*
X202714285Y-75462619D02*
X203285713Y-75462619D01*
X202999999Y-75462619D02*
X202999999Y-74462619D01*
X202999999Y-74462619D02*
X203095237Y-74605476D01*
X203095237Y-74605476D02*
X203190475Y-74700714D01*
X203190475Y-74700714D02*
X203285713Y-74748333D01*
%TO.C,D1*%
X197938094Y-68712619D02*
X197938094Y-67712619D01*
X197938094Y-67712619D02*
X197699999Y-67712619D01*
X197699999Y-67712619D02*
X197557142Y-67760238D01*
X197557142Y-67760238D02*
X197461904Y-67855476D01*
X197461904Y-67855476D02*
X197414285Y-67950714D01*
X197414285Y-67950714D02*
X197366666Y-68141190D01*
X197366666Y-68141190D02*
X197366666Y-68284047D01*
X197366666Y-68284047D02*
X197414285Y-68474523D01*
X197414285Y-68474523D02*
X197461904Y-68569761D01*
X197461904Y-68569761D02*
X197557142Y-68665000D01*
X197557142Y-68665000D02*
X197699999Y-68712619D01*
X197699999Y-68712619D02*
X197938094Y-68712619D01*
X196414285Y-68712619D02*
X196985713Y-68712619D01*
X196699999Y-68712619D02*
X196699999Y-67712619D01*
X196699999Y-67712619D02*
X196795237Y-67855476D01*
X196795237Y-67855476D02*
X196890475Y-67950714D01*
X196890475Y-67950714D02*
X196985713Y-67998333D01*
X200580951Y-64581666D02*
X199819047Y-64581666D01*
X200199999Y-64962619D02*
X200199999Y-64200714D01*
%TO.C,D2*%
X226098094Y-68612619D02*
X226098094Y-67612619D01*
X226098094Y-67612619D02*
X225859999Y-67612619D01*
X225859999Y-67612619D02*
X225717142Y-67660238D01*
X225717142Y-67660238D02*
X225621904Y-67755476D01*
X225621904Y-67755476D02*
X225574285Y-67850714D01*
X225574285Y-67850714D02*
X225526666Y-68041190D01*
X225526666Y-68041190D02*
X225526666Y-68184047D01*
X225526666Y-68184047D02*
X225574285Y-68374523D01*
X225574285Y-68374523D02*
X225621904Y-68469761D01*
X225621904Y-68469761D02*
X225717142Y-68565000D01*
X225717142Y-68565000D02*
X225859999Y-68612619D01*
X225859999Y-68612619D02*
X226098094Y-68612619D01*
X225145713Y-67707857D02*
X225098094Y-67660238D01*
X225098094Y-67660238D02*
X225002856Y-67612619D01*
X225002856Y-67612619D02*
X224764761Y-67612619D01*
X224764761Y-67612619D02*
X224669523Y-67660238D01*
X224669523Y-67660238D02*
X224621904Y-67707857D01*
X224621904Y-67707857D02*
X224574285Y-67803095D01*
X224574285Y-67803095D02*
X224574285Y-67898333D01*
X224574285Y-67898333D02*
X224621904Y-68041190D01*
X224621904Y-68041190D02*
X225193332Y-68612619D01*
X225193332Y-68612619D02*
X224574285Y-68612619D01*
X228740951Y-64481666D02*
X227979047Y-64481666D01*
X228359999Y-64862619D02*
X228359999Y-64100714D01*
%TO.C,D3*%
X210762619Y-81061905D02*
X209762619Y-81061905D01*
X209762619Y-81061905D02*
X209762619Y-81300000D01*
X209762619Y-81300000D02*
X209810238Y-81442857D01*
X209810238Y-81442857D02*
X209905476Y-81538095D01*
X209905476Y-81538095D02*
X210000714Y-81585714D01*
X210000714Y-81585714D02*
X210191190Y-81633333D01*
X210191190Y-81633333D02*
X210334047Y-81633333D01*
X210334047Y-81633333D02*
X210524523Y-81585714D01*
X210524523Y-81585714D02*
X210619761Y-81538095D01*
X210619761Y-81538095D02*
X210715000Y-81442857D01*
X210715000Y-81442857D02*
X210762619Y-81300000D01*
X210762619Y-81300000D02*
X210762619Y-81061905D01*
X209762619Y-81966667D02*
X209762619Y-82585714D01*
X209762619Y-82585714D02*
X210143571Y-82252381D01*
X210143571Y-82252381D02*
X210143571Y-82395238D01*
X210143571Y-82395238D02*
X210191190Y-82490476D01*
X210191190Y-82490476D02*
X210238809Y-82538095D01*
X210238809Y-82538095D02*
X210334047Y-82585714D01*
X210334047Y-82585714D02*
X210572142Y-82585714D01*
X210572142Y-82585714D02*
X210667380Y-82538095D01*
X210667380Y-82538095D02*
X210715000Y-82490476D01*
X210715000Y-82490476D02*
X210762619Y-82395238D01*
X210762619Y-82395238D02*
X210762619Y-82109524D01*
X210762619Y-82109524D02*
X210715000Y-82014286D01*
X210715000Y-82014286D02*
X210667380Y-81966667D01*
X212662619Y-88238095D02*
X211662619Y-88238095D01*
X212662619Y-88809523D02*
X212091190Y-88380952D01*
X211662619Y-88809523D02*
X212234047Y-88238095D01*
%TO.C,Q1*%
X203495238Y-96057857D02*
X203590476Y-96010238D01*
X203590476Y-96010238D02*
X203685714Y-95915000D01*
X203685714Y-95915000D02*
X203828571Y-95772142D01*
X203828571Y-95772142D02*
X203923809Y-95724523D01*
X203923809Y-95724523D02*
X204019047Y-95724523D01*
X203971428Y-95962619D02*
X204066666Y-95915000D01*
X204066666Y-95915000D02*
X204161904Y-95819761D01*
X204161904Y-95819761D02*
X204209523Y-95629285D01*
X204209523Y-95629285D02*
X204209523Y-95295952D01*
X204209523Y-95295952D02*
X204161904Y-95105476D01*
X204161904Y-95105476D02*
X204066666Y-95010238D01*
X204066666Y-95010238D02*
X203971428Y-94962619D01*
X203971428Y-94962619D02*
X203780952Y-94962619D01*
X203780952Y-94962619D02*
X203685714Y-95010238D01*
X203685714Y-95010238D02*
X203590476Y-95105476D01*
X203590476Y-95105476D02*
X203542857Y-95295952D01*
X203542857Y-95295952D02*
X203542857Y-95629285D01*
X203542857Y-95629285D02*
X203590476Y-95819761D01*
X203590476Y-95819761D02*
X203685714Y-95915000D01*
X203685714Y-95915000D02*
X203780952Y-95962619D01*
X203780952Y-95962619D02*
X203971428Y-95962619D01*
X202590476Y-95962619D02*
X203161904Y-95962619D01*
X202876190Y-95962619D02*
X202876190Y-94962619D01*
X202876190Y-94962619D02*
X202971428Y-95105476D01*
X202971428Y-95105476D02*
X203066666Y-95200714D01*
X203066666Y-95200714D02*
X203161904Y-95248333D01*
X208390476Y-104967380D02*
X208438095Y-105015000D01*
X208438095Y-105015000D02*
X208580952Y-105062619D01*
X208580952Y-105062619D02*
X208676190Y-105062619D01*
X208676190Y-105062619D02*
X208819047Y-105015000D01*
X208819047Y-105015000D02*
X208914285Y-104919761D01*
X208914285Y-104919761D02*
X208961904Y-104824523D01*
X208961904Y-104824523D02*
X209009523Y-104634047D01*
X209009523Y-104634047D02*
X209009523Y-104491190D01*
X209009523Y-104491190D02*
X208961904Y-104300714D01*
X208961904Y-104300714D02*
X208914285Y-104205476D01*
X208914285Y-104205476D02*
X208819047Y-104110238D01*
X208819047Y-104110238D02*
X208676190Y-104062619D01*
X208676190Y-104062619D02*
X208580952Y-104062619D01*
X208580952Y-104062619D02*
X208438095Y-104110238D01*
X208438095Y-104110238D02*
X208390476Y-104157857D01*
X198164285Y-104538809D02*
X197830952Y-104538809D01*
X197688095Y-105062619D02*
X198164285Y-105062619D01*
X198164285Y-105062619D02*
X198164285Y-104062619D01*
X198164285Y-104062619D02*
X197688095Y-104062619D01*
X203378571Y-84788809D02*
X203235714Y-84836428D01*
X203235714Y-84836428D02*
X203188095Y-84884047D01*
X203188095Y-84884047D02*
X203140476Y-84979285D01*
X203140476Y-84979285D02*
X203140476Y-85122142D01*
X203140476Y-85122142D02*
X203188095Y-85217380D01*
X203188095Y-85217380D02*
X203235714Y-85265000D01*
X203235714Y-85265000D02*
X203330952Y-85312619D01*
X203330952Y-85312619D02*
X203711904Y-85312619D01*
X203711904Y-85312619D02*
X203711904Y-84312619D01*
X203711904Y-84312619D02*
X203378571Y-84312619D01*
X203378571Y-84312619D02*
X203283333Y-84360238D01*
X203283333Y-84360238D02*
X203235714Y-84407857D01*
X203235714Y-84407857D02*
X203188095Y-84503095D01*
X203188095Y-84503095D02*
X203188095Y-84598333D01*
X203188095Y-84598333D02*
X203235714Y-84693571D01*
X203235714Y-84693571D02*
X203283333Y-84741190D01*
X203283333Y-84741190D02*
X203378571Y-84788809D01*
X203378571Y-84788809D02*
X203711904Y-84788809D01*
%TO.C,T1*%
X227261904Y-82462619D02*
X226690476Y-82462619D01*
X226976190Y-83462619D02*
X226976190Y-82462619D01*
X225833333Y-83462619D02*
X226404761Y-83462619D01*
X226119047Y-83462619D02*
X226119047Y-82462619D01*
X226119047Y-82462619D02*
X226214285Y-82605476D01*
X226214285Y-82605476D02*
X226309523Y-82700714D01*
X226309523Y-82700714D02*
X226404761Y-82748333D01*
X235214285Y-87693928D02*
X235214285Y-88693928D01*
X235571427Y-87122500D02*
X235928570Y-88193928D01*
X235928570Y-88193928D02*
X234999999Y-88193928D01*
X217071427Y-88693928D02*
X217928570Y-88693928D01*
X217499999Y-88693928D02*
X217499999Y-87193928D01*
X217499999Y-87193928D02*
X217642856Y-87408214D01*
X217642856Y-87408214D02*
X217785713Y-87551071D01*
X217785713Y-87551071D02*
X217928570Y-87622500D01*
X235999999Y-78193928D02*
X235071427Y-78193928D01*
X235071427Y-78193928D02*
X235571427Y-78765357D01*
X235571427Y-78765357D02*
X235357142Y-78765357D01*
X235357142Y-78765357D02*
X235214285Y-78836785D01*
X235214285Y-78836785D02*
X235142856Y-78908214D01*
X235142856Y-78908214D02*
X235071427Y-79051071D01*
X235071427Y-79051071D02*
X235071427Y-79408214D01*
X235071427Y-79408214D02*
X235142856Y-79551071D01*
X235142856Y-79551071D02*
X235214285Y-79622500D01*
X235214285Y-79622500D02*
X235357142Y-79693928D01*
X235357142Y-79693928D02*
X235785713Y-79693928D01*
X235785713Y-79693928D02*
X235928570Y-79622500D01*
X235928570Y-79622500D02*
X235999999Y-79551071D01*
X217928570Y-77836785D02*
X217857142Y-77765357D01*
X217857142Y-77765357D02*
X217714285Y-77693928D01*
X217714285Y-77693928D02*
X217357142Y-77693928D01*
X217357142Y-77693928D02*
X217214285Y-77765357D01*
X217214285Y-77765357D02*
X217142856Y-77836785D01*
X217142856Y-77836785D02*
X217071427Y-77979642D01*
X217071427Y-77979642D02*
X217071427Y-78122500D01*
X217071427Y-78122500D02*
X217142856Y-78336785D01*
X217142856Y-78336785D02*
X217999999Y-79193928D01*
X217999999Y-79193928D02*
X217071427Y-79193928D01*
%TO.C,R1*%
X196462619Y-84383333D02*
X195986428Y-84050000D01*
X196462619Y-83811905D02*
X195462619Y-83811905D01*
X195462619Y-83811905D02*
X195462619Y-84192857D01*
X195462619Y-84192857D02*
X195510238Y-84288095D01*
X195510238Y-84288095D02*
X195557857Y-84335714D01*
X195557857Y-84335714D02*
X195653095Y-84383333D01*
X195653095Y-84383333D02*
X195795952Y-84383333D01*
X195795952Y-84383333D02*
X195891190Y-84335714D01*
X195891190Y-84335714D02*
X195938809Y-84288095D01*
X195938809Y-84288095D02*
X195986428Y-84192857D01*
X195986428Y-84192857D02*
X195986428Y-83811905D01*
X196462619Y-85335714D02*
X196462619Y-84764286D01*
X196462619Y-85050000D02*
X195462619Y-85050000D01*
X195462619Y-85050000D02*
X195605476Y-84954762D01*
X195605476Y-84954762D02*
X195700714Y-84859524D01*
X195700714Y-84859524D02*
X195748333Y-84764286D01*
%TO.C,C_b1*%
X250462500Y-100547380D02*
X250510119Y-100595000D01*
X250510119Y-100595000D02*
X250652976Y-100642619D01*
X250652976Y-100642619D02*
X250748214Y-100642619D01*
X250748214Y-100642619D02*
X250891071Y-100595000D01*
X250891071Y-100595000D02*
X250986309Y-100499761D01*
X250986309Y-100499761D02*
X251033928Y-100404523D01*
X251033928Y-100404523D02*
X251081547Y-100214047D01*
X251081547Y-100214047D02*
X251081547Y-100071190D01*
X251081547Y-100071190D02*
X251033928Y-99880714D01*
X251033928Y-99880714D02*
X250986309Y-99785476D01*
X250986309Y-99785476D02*
X250891071Y-99690238D01*
X250891071Y-99690238D02*
X250748214Y-99642619D01*
X250748214Y-99642619D02*
X250652976Y-99642619D01*
X250652976Y-99642619D02*
X250510119Y-99690238D01*
X250510119Y-99690238D02*
X250462500Y-99737857D01*
X250272024Y-100737857D02*
X249510119Y-100737857D01*
X249272023Y-100642619D02*
X249272023Y-99642619D01*
X249272023Y-100023571D02*
X249176785Y-99975952D01*
X249176785Y-99975952D02*
X248986309Y-99975952D01*
X248986309Y-99975952D02*
X248891071Y-100023571D01*
X248891071Y-100023571D02*
X248843452Y-100071190D01*
X248843452Y-100071190D02*
X248795833Y-100166428D01*
X248795833Y-100166428D02*
X248795833Y-100452142D01*
X248795833Y-100452142D02*
X248843452Y-100547380D01*
X248843452Y-100547380D02*
X248891071Y-100595000D01*
X248891071Y-100595000D02*
X248986309Y-100642619D01*
X248986309Y-100642619D02*
X249176785Y-100642619D01*
X249176785Y-100642619D02*
X249272023Y-100595000D01*
X247843452Y-100642619D02*
X248414880Y-100642619D01*
X248129166Y-100642619D02*
X248129166Y-99642619D01*
X248129166Y-99642619D02*
X248224404Y-99785476D01*
X248224404Y-99785476D02*
X248319642Y-99880714D01*
X248319642Y-99880714D02*
X248414880Y-99928333D01*
%TO.C,Q_b1*%
X244428571Y-101557857D02*
X244523809Y-101510238D01*
X244523809Y-101510238D02*
X244619047Y-101415000D01*
X244619047Y-101415000D02*
X244761904Y-101272142D01*
X244761904Y-101272142D02*
X244857142Y-101224523D01*
X244857142Y-101224523D02*
X244952380Y-101224523D01*
X244904761Y-101462619D02*
X244999999Y-101415000D01*
X244999999Y-101415000D02*
X245095237Y-101319761D01*
X245095237Y-101319761D02*
X245142856Y-101129285D01*
X245142856Y-101129285D02*
X245142856Y-100795952D01*
X245142856Y-100795952D02*
X245095237Y-100605476D01*
X245095237Y-100605476D02*
X244999999Y-100510238D01*
X244999999Y-100510238D02*
X244904761Y-100462619D01*
X244904761Y-100462619D02*
X244714285Y-100462619D01*
X244714285Y-100462619D02*
X244619047Y-100510238D01*
X244619047Y-100510238D02*
X244523809Y-100605476D01*
X244523809Y-100605476D02*
X244476190Y-100795952D01*
X244476190Y-100795952D02*
X244476190Y-101129285D01*
X244476190Y-101129285D02*
X244523809Y-101319761D01*
X244523809Y-101319761D02*
X244619047Y-101415000D01*
X244619047Y-101415000D02*
X244714285Y-101462619D01*
X244714285Y-101462619D02*
X244904761Y-101462619D01*
X244285714Y-101557857D02*
X243523809Y-101557857D01*
X243285713Y-101462619D02*
X243285713Y-100462619D01*
X243285713Y-100843571D02*
X243190475Y-100795952D01*
X243190475Y-100795952D02*
X242999999Y-100795952D01*
X242999999Y-100795952D02*
X242904761Y-100843571D01*
X242904761Y-100843571D02*
X242857142Y-100891190D01*
X242857142Y-100891190D02*
X242809523Y-100986428D01*
X242809523Y-100986428D02*
X242809523Y-101272142D01*
X242809523Y-101272142D02*
X242857142Y-101367380D01*
X242857142Y-101367380D02*
X242904761Y-101415000D01*
X242904761Y-101415000D02*
X242999999Y-101462619D01*
X242999999Y-101462619D02*
X243190475Y-101462619D01*
X243190475Y-101462619D02*
X243285713Y-101415000D01*
X241857142Y-101462619D02*
X242428570Y-101462619D01*
X242142856Y-101462619D02*
X242142856Y-100462619D01*
X242142856Y-100462619D02*
X242238094Y-100605476D01*
X242238094Y-100605476D02*
X242333332Y-100700714D01*
X242333332Y-100700714D02*
X242428570Y-100748333D01*
%TO.C,BT1*%
X229035714Y-101588809D02*
X228892857Y-101636428D01*
X228892857Y-101636428D02*
X228845238Y-101684047D01*
X228845238Y-101684047D02*
X228797619Y-101779285D01*
X228797619Y-101779285D02*
X228797619Y-101922142D01*
X228797619Y-101922142D02*
X228845238Y-102017380D01*
X228845238Y-102017380D02*
X228892857Y-102065000D01*
X228892857Y-102065000D02*
X228988095Y-102112619D01*
X228988095Y-102112619D02*
X229369047Y-102112619D01*
X229369047Y-102112619D02*
X229369047Y-101112619D01*
X229369047Y-101112619D02*
X229035714Y-101112619D01*
X229035714Y-101112619D02*
X228940476Y-101160238D01*
X228940476Y-101160238D02*
X228892857Y-101207857D01*
X228892857Y-101207857D02*
X228845238Y-101303095D01*
X228845238Y-101303095D02*
X228845238Y-101398333D01*
X228845238Y-101398333D02*
X228892857Y-101493571D01*
X228892857Y-101493571D02*
X228940476Y-101541190D01*
X228940476Y-101541190D02*
X229035714Y-101588809D01*
X229035714Y-101588809D02*
X229369047Y-101588809D01*
X228511904Y-101112619D02*
X227940476Y-101112619D01*
X228226190Y-102112619D02*
X228226190Y-101112619D01*
X227083333Y-102112619D02*
X227654761Y-102112619D01*
X227369047Y-102112619D02*
X227369047Y-101112619D01*
X227369047Y-101112619D02*
X227464285Y-101255476D01*
X227464285Y-101255476D02*
X227559523Y-101350714D01*
X227559523Y-101350714D02*
X227654761Y-101398333D01*
X199660951Y-114471666D02*
X198899047Y-114471666D01*
X258430951Y-114471666D02*
X257669047Y-114471666D01*
X258049999Y-114852619D02*
X258049999Y-114090714D01*
X224830951Y-97631666D02*
X224069047Y-97631666D01*
X233330951Y-97631666D02*
X232569047Y-97631666D01*
X232949999Y-98012619D02*
X232949999Y-97250714D01*
%TO.C,D_b3*%
X251083928Y-93962619D02*
X251083928Y-92962619D01*
X251083928Y-92962619D02*
X250845833Y-92962619D01*
X250845833Y-92962619D02*
X250702976Y-93010238D01*
X250702976Y-93010238D02*
X250607738Y-93105476D01*
X250607738Y-93105476D02*
X250560119Y-93200714D01*
X250560119Y-93200714D02*
X250512500Y-93391190D01*
X250512500Y-93391190D02*
X250512500Y-93534047D01*
X250512500Y-93534047D02*
X250560119Y-93724523D01*
X250560119Y-93724523D02*
X250607738Y-93819761D01*
X250607738Y-93819761D02*
X250702976Y-93915000D01*
X250702976Y-93915000D02*
X250845833Y-93962619D01*
X250845833Y-93962619D02*
X251083928Y-93962619D01*
X250322024Y-94057857D02*
X249560119Y-94057857D01*
X249322023Y-93962619D02*
X249322023Y-92962619D01*
X249322023Y-93343571D02*
X249226785Y-93295952D01*
X249226785Y-93295952D02*
X249036309Y-93295952D01*
X249036309Y-93295952D02*
X248941071Y-93343571D01*
X248941071Y-93343571D02*
X248893452Y-93391190D01*
X248893452Y-93391190D02*
X248845833Y-93486428D01*
X248845833Y-93486428D02*
X248845833Y-93772142D01*
X248845833Y-93772142D02*
X248893452Y-93867380D01*
X248893452Y-93867380D02*
X248941071Y-93915000D01*
X248941071Y-93915000D02*
X249036309Y-93962619D01*
X249036309Y-93962619D02*
X249226785Y-93962619D01*
X249226785Y-93962619D02*
X249322023Y-93915000D01*
X248512499Y-92962619D02*
X247893452Y-92962619D01*
X247893452Y-92962619D02*
X248226785Y-93343571D01*
X248226785Y-93343571D02*
X248083928Y-93343571D01*
X248083928Y-93343571D02*
X247988690Y-93391190D01*
X247988690Y-93391190D02*
X247941071Y-93438809D01*
X247941071Y-93438809D02*
X247893452Y-93534047D01*
X247893452Y-93534047D02*
X247893452Y-93772142D01*
X247893452Y-93772142D02*
X247941071Y-93867380D01*
X247941071Y-93867380D02*
X247988690Y-93915000D01*
X247988690Y-93915000D02*
X248083928Y-93962619D01*
X248083928Y-93962619D02*
X248369642Y-93962619D01*
X248369642Y-93962619D02*
X248464880Y-93915000D01*
X248464880Y-93915000D02*
X248512499Y-93867380D01*
%TO.C,R_b1*%
X243412500Y-93612619D02*
X243745833Y-93136428D01*
X243983928Y-93612619D02*
X243983928Y-92612619D01*
X243983928Y-92612619D02*
X243602976Y-92612619D01*
X243602976Y-92612619D02*
X243507738Y-92660238D01*
X243507738Y-92660238D02*
X243460119Y-92707857D01*
X243460119Y-92707857D02*
X243412500Y-92803095D01*
X243412500Y-92803095D02*
X243412500Y-92945952D01*
X243412500Y-92945952D02*
X243460119Y-93041190D01*
X243460119Y-93041190D02*
X243507738Y-93088809D01*
X243507738Y-93088809D02*
X243602976Y-93136428D01*
X243602976Y-93136428D02*
X243983928Y-93136428D01*
X243222024Y-93707857D02*
X242460119Y-93707857D01*
X242222023Y-93612619D02*
X242222023Y-92612619D01*
X242222023Y-92993571D02*
X242126785Y-92945952D01*
X242126785Y-92945952D02*
X241936309Y-92945952D01*
X241936309Y-92945952D02*
X241841071Y-92993571D01*
X241841071Y-92993571D02*
X241793452Y-93041190D01*
X241793452Y-93041190D02*
X241745833Y-93136428D01*
X241745833Y-93136428D02*
X241745833Y-93422142D01*
X241745833Y-93422142D02*
X241793452Y-93517380D01*
X241793452Y-93517380D02*
X241841071Y-93565000D01*
X241841071Y-93565000D02*
X241936309Y-93612619D01*
X241936309Y-93612619D02*
X242126785Y-93612619D01*
X242126785Y-93612619D02*
X242222023Y-93565000D01*
X240793452Y-93612619D02*
X241364880Y-93612619D01*
X241079166Y-93612619D02*
X241079166Y-92612619D01*
X241079166Y-92612619D02*
X241174404Y-92755476D01*
X241174404Y-92755476D02*
X241269642Y-92850714D01*
X241269642Y-92850714D02*
X241364880Y-92898333D01*
%TO.C,SW1*%
X213333332Y-41415000D02*
X213190475Y-41462619D01*
X213190475Y-41462619D02*
X212952380Y-41462619D01*
X212952380Y-41462619D02*
X212857142Y-41415000D01*
X212857142Y-41415000D02*
X212809523Y-41367380D01*
X212809523Y-41367380D02*
X212761904Y-41272142D01*
X212761904Y-41272142D02*
X212761904Y-41176904D01*
X212761904Y-41176904D02*
X212809523Y-41081666D01*
X212809523Y-41081666D02*
X212857142Y-41034047D01*
X212857142Y-41034047D02*
X212952380Y-40986428D01*
X212952380Y-40986428D02*
X213142856Y-40938809D01*
X213142856Y-40938809D02*
X213238094Y-40891190D01*
X213238094Y-40891190D02*
X213285713Y-40843571D01*
X213285713Y-40843571D02*
X213333332Y-40748333D01*
X213333332Y-40748333D02*
X213333332Y-40653095D01*
X213333332Y-40653095D02*
X213285713Y-40557857D01*
X213285713Y-40557857D02*
X213238094Y-40510238D01*
X213238094Y-40510238D02*
X213142856Y-40462619D01*
X213142856Y-40462619D02*
X212904761Y-40462619D01*
X212904761Y-40462619D02*
X212761904Y-40510238D01*
X212428570Y-40462619D02*
X212190475Y-41462619D01*
X212190475Y-41462619D02*
X211999999Y-40748333D01*
X211999999Y-40748333D02*
X211809523Y-41462619D01*
X211809523Y-41462619D02*
X211571428Y-40462619D01*
X210666666Y-41462619D02*
X211238094Y-41462619D01*
X210952380Y-41462619D02*
X210952380Y-40462619D01*
X210952380Y-40462619D02*
X211047618Y-40605476D01*
X211047618Y-40605476D02*
X211142856Y-40700714D01*
X211142856Y-40700714D02*
X211238094Y-40748333D01*
D10*
%TO.C,D3*%
X210300000Y-87360000D02*
X210300000Y-84870000D01*
X208830000Y-84870000D02*
X208830000Y-79430000D01*
X211770000Y-84870000D02*
X208830000Y-84870000D01*
X211770000Y-84090000D02*
X208830000Y-84090000D01*
X211770000Y-83970000D02*
X208830000Y-83970000D01*
X211770000Y-83850000D02*
X208830000Y-83850000D01*
X208830000Y-79430000D02*
X211770000Y-79430000D01*
X211770000Y-79430000D02*
X211770000Y-84870000D01*
X210300000Y-76940000D02*
X210300000Y-79430000D01*
%TO.C,Q1*%
X205230000Y-97450000D02*
X201630000Y-97450000D01*
X205241452Y-97442155D02*
G75*
G03*
X204250000Y-93150001I-1811452J1842155D01*
G01*
X202650000Y-93150000D02*
G75*
G03*
X201621555Y-97427684I780000J-2450000D01*
G01*
%TO.C,R1*%
X196000000Y-93560000D02*
X196000000Y-89910000D01*
X194080000Y-89910000D02*
X194080000Y-79770000D01*
X197920000Y-89910000D02*
X194080000Y-89910000D01*
X194080000Y-79770000D02*
X197920000Y-79770000D01*
X197920000Y-79770000D02*
X197920000Y-89910000D01*
X196000000Y-76120000D02*
X196000000Y-79770000D01*
%TO.C,C_b1*%
X249201248Y-97765000D02*
X249723752Y-97765000D01*
X249201248Y-99235000D02*
X249723752Y-99235000D01*
%TO.C,Q_b1*%
X244260000Y-96920000D02*
X242800000Y-96920000D01*
X244260000Y-96920000D02*
X244260000Y-97850000D01*
X244260000Y-100080000D02*
X242100000Y-100080000D01*
X244260000Y-100080000D02*
X244260000Y-99150000D01*
%TO.C,BT1*%
X257270000Y-123015000D02*
X257270000Y-105885000D01*
X257270000Y-105885000D02*
X200030000Y-105885000D01*
X256550000Y-122050000D02*
X238550000Y-122050000D01*
X256550000Y-106850000D02*
X256550000Y-122050000D01*
X256550000Y-106850000D02*
X238550000Y-106850000D01*
X236550000Y-108850000D02*
X220750000Y-108850000D01*
X220750000Y-120050000D02*
X236550000Y-120050000D01*
X218750000Y-122050000D02*
X200750000Y-122050000D01*
X218750000Y-106850000D02*
X200750000Y-106850000D01*
X207340000Y-113390000D02*
X207340000Y-115390000D01*
X206340000Y-112390000D02*
X206340000Y-116390000D01*
X205340000Y-117390000D02*
X205340000Y-111390000D01*
X204340000Y-110390000D02*
X204340000Y-118390000D01*
X200750000Y-106850000D02*
X200750000Y-122050000D01*
X200030000Y-123015000D02*
X257270000Y-123015000D01*
X200030000Y-105885000D02*
X200030000Y-123015000D01*
X236550000Y-108850000D02*
G75*
G03*
X238550000Y-106850000I0J2000000D01*
G01*
X238550000Y-122050000D02*
G75*
G03*
X236550000Y-120050000I-2000000J0D01*
G01*
X218750000Y-106850000D02*
G75*
G03*
X220750000Y-108850000I2000000J0D01*
G01*
X220750000Y-120050000D02*
G75*
G03*
X218750000Y-122050000I0J-2000000D01*
G01*
%TO.C,D_b3*%
X247052500Y-90365000D02*
X251112500Y-90365000D01*
X247052500Y-92635000D02*
X247052500Y-90365000D01*
X251112500Y-92635000D02*
X247052500Y-92635000D01*
%TO.C,R_b1*%
X242185436Y-90765000D02*
X242639564Y-90765000D01*
X242185436Y-92235000D02*
X242639564Y-92235000D01*
%TO.C,SW1*%
X213950000Y-41000000D02*
G75*
G03*
X213950000Y-41000000I-2000000J0D01*
G01*
X215450000Y-41000000D02*
G75*
G03*
X215450000Y-41000000I-3500000J0D01*
G01*
%TD*%
M02*
