<?xml version="1.0" encoding="UTF-8" standalone="no"?>
<svg
   viewBox="0 0 310.33813 356.51416"
   x="0px"
   y="0px"
   version="1.1"
   id="svg20"
   sodipodi:docname="outline_only.svg"
   width="310.33813"
   height="356.51416"
   inkscape:version="1.1 (c4e8f9ed74, 2021-05-24)"
   xmlns:inkscape="http://www.inkscape.org/namespaces/inkscape"
   xmlns:sodipodi="http://sodipodi.sourceforge.net/DTD/sodipodi-0.dtd"
   xmlns="http://www.w3.org/2000/svg"
   xmlns:svg="http://www.w3.org/2000/svg">
  <defs
     id="defs24" />
  <sodipodi:namedview
     id="namedview22"
     pagecolor="#ffffff"
     bordercolor="#666666"
     borderopacity="1.0"
     inkscape:pageshadow="2"
     inkscape:pageopacity="0.0"
     inkscape:pagecheckerboard="0"
     showgrid="false"
     fit-margin-top="0"
     fit-margin-left="0"
     fit-margin-right="0"
     fit-margin-bottom="0"
     inkscape:zoom="1.7147339"
     inkscape:cx="248.72663"
     inkscape:cy="138.79704"
     inkscape:window-width="2560"
     inkscape:window-height="1339"
     inkscape:window-x="0"
     inkscape:window-y="0"
     inkscape:window-maximized="1"
     inkscape:current-layer="svg20" />
  <path
     id="path2-3"
     style="fill:#ff0000;fill-opacity:0.485026;stroke-width:0.726037"
     d="m 15.756058,2e-5 c -3.5302,0.0613 -6.95262,2.13445 -8.54085,5.30595 -3.707217,6.90212 -5.668717,14.77852 -5.444947,22.62044 0.26823,8.13917 3.223697,16.1602 8.346977,22.49589 0.48174,0.61368 0.98523,1.21039 1.5021,1.79452 -7.23818,9.07089 -11.26917697,20.61507 -11.30185697,32.21649 -0.32856,12.38854 -0.43951,24.78432 -0.15265,37.17489 0.48066,22.34194 2.04276997,44.65617 4.66353697,66.85386 2.42091,19.92662 5.83017,39.7606 10.84427,59.20714 4.9382,18.94598 11.40203,37.61461 20.78264,54.85035 2.23757,4.07788 4.63821,8.06771 7.24023,11.92383 -9.21457,1.97999 -17.42101,8.13323 -21.89721,16.42834 -2.76468,5.05934 -4.20319,10.86238 -4.02038,16.62827 0.2955,4.1722 3.55023,7.93191 7.66564,8.74417 2.27796,0.46837 4.61989,0.16611 6.92695,0.25195 50.8705,-0.005 101.741292,0.0112 152.611612,-0.0151 7.95422,-0.14275 15.81638,-3.26719 21.6587,-8.67437 19.48787,6.67577 40.252,9.31222 60.80423,8.53911 10.69728,-0.45577 21.41406,-1.6663 31.78349,-4.40688 3.01033,-0.87795 6.21995,-1.8165 8.40252,-4.21621 2.34486,-2.41601 3.23779,-6.05193 2.39728,-9.29814 -5.0736,-19.41196 -11.17038,-38.55301 -18.06578,-57.39424 -8.04106,-21.8669 -17.2666,-43.35054 -28.54444,-63.75752 -8.14615,-14.67145 -17.38647,-28.83835 -28.62439,-41.34551 -5.26585,-5.87668 -11.06738,-11.28116 -17.399,-15.99561 -0.006,-25.66247 0.0202,-51.32567 -0.0249,-76.98767 -0.3324,-11.10289 -4.36262,-22.05496 -11.27783,-30.74475 5.59457,-6.27164 9.19076,-14.36601 9.7476,-22.77789 0.57734,-8.59378 -1.55786,-17.30535 -5.75135,-24.80425 -1.96015,-3.20557 -5.85844,-5.04283 -9.57948,-4.5265 -2.54188,0.30836 -4.82668,1.73502 -6.50302,3.6312 -8.09742,8.08328 -16.18623,16.17269 -24.27508,24.26455 -15.30355,-5.5906 -31.46976,-8.49517 -47.66414,-9.89862 -6.79314,-0.58819 -13.62724,-0.86594 -20.43764,-0.41189 -14.636092,0.82027 -29.226852,3.01333 -43.355252,6.96062 -3.47951,0.98468 -6.92756,2.08443 -10.31836,3.34208 C 39.418308,19.4668 30.936828,10.89646 22.351978,2.43461 20.545088,0.82345 18.163078,0.00212 15.756058,0 Z"
     sodipodi:nodetypes="sccccccccccccccccccccccccccccccccccccss" />
</svg>
